<svg xmlns="http://www.w3.org/2000/svg" width="174" height="101" viewBox="0 0 174 101">
    <defs>
        <linearGradient id="a" x1="50.002%" x2="50.002%" y1="100%" y2="-.002%">
            <stop offset="0%" stop-color="gray" stop-opacity=".25"/>
            <stop offset="54%" stop-color="gray" stop-opacity=".12"/>
            <stop offset="100%" stop-color="gray" stop-opacity=".1"/>
        </linearGradient>
    </defs>
    <g fill="none" fill-rule="evenodd">
        <path fill="#19BABD" d="M40.382 76.649c-.63 1.345.271 2.797-.042 4.186-.394 1.752-2.658 3.117-5.096 3.987-2.438.87-5.16 1.4-7.537 2.337-1.027.404-2.099 1.15-1.565 1.837.185.238.532.405.87.56 6.923 3.179 15.479 4.905 24.027 4.85 9.042-.06 17.896-2.045 26.93-1.817 11.651.292 22.921 4.244 34.444 3.105 4.89-.486 9.432-1.865 14.195-2.727 7.004-1.266 14.371-1.393 21.625-1.81 5.447-.312 11.672-1.122 14.274-4.17 1.882-2.202 1.092-5.11-1.559-6.976-2.65-1.865-6.885-2.662-10.797-2.3-2.103.194-4.193.698-6.297.498-1.22-.117-2.348-.465-3.462-.806-8.618-2.659-17.545-5.31-27.11-5.696-15.56-.633-29.98 4.754-45.138 7.083-2.36.362-4.923.641-7.153.034-2.349-.642-3.89-2.156-6.243-2.794-1.117-.304-2.361-.392-3.46-.722-3.017-.908-1.614-2.157-5.803-1.314-2.188.444-4.399 1.155-5.103 2.655z" opacity=".1"/>
        <path fill="#19BABD" d="M42.099 30.758s8.184 8.144 3.567 20.228c-4.618 12.085 7.926 32.18 7.926 32.18s-.135-.02-.383-.063C36.39 80.15 28.039 61.022 37.386 46.815c3.474-5.288 6.327-11.485 4.713-16.057z" opacity=".4"/>
        <path stroke="#535461" stroke-width=".5" d="M42.099 30.758s4.62 9.983 0 18.127c-4.62 8.144-.793 30.998 11.484 34.28"/>
        <path fill="#19BABD" d="M27.522 63.696s9.34-1.48 10.191 6.848c.851 8.328 17.957 9.483 17.957 9.483s-.111.076-.321.212c-14.123 9.223-27.626 5.877-25.591-6.374.757-4.558.694-9.13-2.236-10.17z" opacity=".9"/>
        <path fill="#F5F5F5" d="M27.522 63.696s9.34-1.48 10.191 6.848c.851 8.328 17.957 9.483 17.957 9.483s-.111.076-.321.212c-14.123 9.223-27.626 5.877-25.591-6.374.757-4.558.694-9.13-2.236-10.17z" opacity=".2"/>
        <path stroke="#535461" stroke-width=".5" d="M27.522 63.696s7.25 1.583 6.654 8.142c-.596 6.56 10.765 14.421 21.494 8.19"/>
        <path fill="#19BABD" d="M125.332 82.982h-76.83V35.228h9.826l4.043 4.968h62.961z"/>
        <path fill="#000" d="M125.332 82.982h-76.83V35.228h9.826l4.043 4.968h62.961z" opacity=".1"/>
        <path fill="#DADCE5" d="M62.8 27.846l34.578-12.444 19.47 53.561L82.27 81.408z"/>
        <path fill="#FFF" d="M69.331 31.454l9.77-3.516.831 2.287-9.77 3.516zM73.374 37.175l21.496-7.637.753 2.1-21.495 7.638zM74.985 41.664l21.496-7.637.753 2.1-21.495 7.637zM76.595 46.152l21.495-7.637.754 2.1-21.496 7.637zM78.206 50.639L99.7 43.002l.754 2.1-21.496 7.637zM79.816 55.126l21.495-7.637.754 2.1-21.495 7.637zM81.427 59.614l21.495-7.637.754 2.1-21.495 7.638zM101.543 61.402l5.565-1.977 1.988 5.538-5.566 1.977z"/>
        <path fill="url(#a)" d="M26.505 20.072l37.823.083.129 59.022-37.823-.083z" transform="rotate(-59.28 58.48 26.778)"/>
        <path fill="#DADCE5" d="M37.471 50.804l18.792-31.466 49.229 29.108L86.7 79.912z"/>
        <path fill="#FFF" d="M44.787 49.47l5.31-8.891 2.102 1.243-5.31 8.89zM51.434 51.04l11.66-19.524 1.927 1.14-11.66 19.523zM55.551 53.475l11.66-19.524 1.927 1.14-11.66 19.523zM59.652 55.844l11.64-19.531 1.928 1.137-11.64 19.532zM63.785 58.343l11.66-19.524 1.926 1.139-11.66 19.524zM67.902 60.778l11.66-19.524 1.926 1.139-11.66 19.524zM72.02 63.212L83.68 43.69l1.927 1.139-11.66 19.524zM88.614 51.743l3.014-5.056 5.082 2.998-3.014 5.057z"/>
        <path fill="#DADCE5" d="M105.303 32.043L125.029 1.15l48.335 30.556L153.637 62.6z"/>
        <path fill="#FFF" d="M112.655 30.927l5.574-8.73 2.064 1.305-5.574 8.73zM119.253 32.695l12.24-19.17 1.892 1.196-12.24 19.17zM123.296 35.25l12.24-19.17 1.892 1.197-12.24 19.169zM127.338 37.805l12.24-19.169 1.892 1.196-12.24 19.17zM131.625 40.996L143.95 21.92l1.883 1.205L133.508 42.2zM135.423 42.916l12.24-19.169 1.892 1.196-12.24 19.17zM139.72 46.159l12.325-19.077 1.882 1.204-12.325 19.077zM156.439 34.579l3.169-4.963 4.988 3.153-3.17 4.963z"/>
        <path fill="#19BABD" d="M125.332 85.009h-76.83V37.255h9.826l4.043 4.968h62.961z"/>
        <path fill="#A8A8A8" d="M52.858 89.773s-3.313-.659-4.197-1.538c-.883-.88-4.858-2.417-5.3-1.314-.442 1.102-5.962 4.834-2.202 5.494 3.761.66 8.834.876 9.939.438 1.105-.438 1.76-3.08 1.76-3.08z"/>
        <path fill="#000" d="M41.154 92.002c3.754.659 8.833.876 9.938.438.841-.334 1.425-1.943 1.656-2.692l.11.024s-.662 2.637-1.761 3.075c-1.1.439-6.184.22-9.939-.438-1.083-.19-1.393-.636-1.277-1.203.088.37.465.654 1.273.796z" opacity=".2"/>
        <path fill="#A8A8A8" d="M121.313 95.814s-5.053-1.007-6.402-2.347c-1.35-1.341-7.413-3.688-8.086-2.011-.674 1.676-9.1 7.375-3.376 8.381 5.724 1.007 13.477 1.341 15.162.67 1.685-.67 2.702-4.693 2.702-4.693z"/>
        <path fill="#000" d="M103.456 99.214c5.724 1.006 13.477 1.34 15.162.67 1.283-.511 2.176-2.965 2.528-4.105l.169.035s-1.012 4.018-2.7 4.692c-1.687.675-9.435.336-15.162-.67-1.654-.292-2.127-.973-1.948-1.834.144.562.72.996 1.951 1.212z" opacity=".2"/>
        <path fill="#000" d="M77.664 59.671h17.027v2.921H77.664z" opacity=".1"/>
    </g>
</svg>
