<svg xmlns="http://www.w3.org/2000/svg" xmlns:xlink="http://www.w3.org/1999/xlink" width="337" height="140" viewBox="0 0 337 140">
    <defs>
        <path id="a" d="M0 0h337v140H0z"/>
    </defs>
    <g fill="none" fill-rule="evenodd">
        <mask id="b" fill="#fff">
            <use xlink:href="#a"/>
        </mask>
        <use fill="#ACB1CA" xlink:href="#a"/>
        <path fill="#000" fill-rule="nonzero" d="M326.826 125.923c0-1.53-1.222-2.77-2.73-2.77-2.263 0-4.096-1.859-4.096-4.153h1.365c0 1.53 1.222 2.77 2.73 2.77 2.263 0 4.096 1.859 4.096 4.153 0 1.53 1.222 2.77 2.73 2.77 2.263 0 4.096 1.859 4.096 4.153 0 1.53 1.222 2.77 2.73 2.77V137c-2.262 0-4.095-1.86-4.095-4.154 0-1.53-1.222-2.77-2.73-2.77-2.263 0-4.096-1.859-4.096-4.153zm-40 0c0-1.53-1.222-2.77-2.73-2.77-2.263 0-4.096-1.859-4.096-4.153h1.365c0 1.53 1.222 2.77 2.73 2.77 2.263 0 4.096 1.859 4.096 4.153 0 1.53 1.222 2.77 2.73 2.77 2.263 0 4.096 1.859 4.096 4.153 0 1.53 1.222 2.77 2.73 2.77V137c-2.262 0-4.095-1.86-4.095-4.154 0-1.53-1.222-2.77-2.73-2.77-2.263 0-4.096-1.859-4.096-4.153zm-40 0c0-1.53-1.222-2.77-2.73-2.77-2.263 0-4.096-1.859-4.096-4.153h1.365c0 1.53 1.222 2.77 2.73 2.77 2.263 0 4.096 1.859 4.096 4.153 0 1.53 1.222 2.77 2.73 2.77 2.263 0 4.096 1.859 4.096 4.153 0 1.53 1.222 2.77 2.73 2.77V137c-2.262 0-4.095-1.86-4.095-4.154 0-1.53-1.222-2.77-2.73-2.77-2.263 0-4.096-1.859-4.096-4.153zm-40 0c0-1.53-1.222-2.77-2.73-2.77-2.263 0-4.096-1.859-4.096-4.153h1.365c0 1.53 1.222 2.77 2.73 2.77 2.263 0 4.096 1.859 4.096 4.153 0 1.53 1.222 2.77 2.73 2.77 2.263 0 4.096 1.859 4.096 4.153 0 1.53 1.222 2.77 2.73 2.77V137c-2.262 0-4.095-1.86-4.095-4.154 0-1.53-1.222-2.77-2.73-2.77-2.263 0-4.096-1.859-4.096-4.153zm-40 0c0-1.53-1.222-2.77-2.73-2.77-2.263 0-4.096-1.859-4.096-4.153h1.365c0 1.53 1.222 2.77 2.73 2.77 2.263 0 4.096 1.859 4.096 4.153 0 1.53 1.222 2.77 2.73 2.77 2.263 0 4.096 1.859 4.096 4.153 0 1.53 1.222 2.77 2.73 2.77V137c-2.262 0-4.095-1.86-4.095-4.154 0-1.53-1.222-2.77-2.73-2.77-2.263 0-4.096-1.859-4.096-4.153zm-40 0c0-1.53-1.222-2.77-2.73-2.77-2.263 0-4.096-1.859-4.096-4.153h1.365c0 1.53 1.222 2.77 2.73 2.77 2.263 0 4.096 1.859 4.096 4.153 0 1.53 1.222 2.77 2.73 2.77 2.263 0 4.096 1.859 4.096 4.153 0 1.53 1.222 2.77 2.73 2.77V137c-2.262 0-4.095-1.86-4.095-4.154 0-1.53-1.222-2.77-2.73-2.77-2.263 0-4.096-1.859-4.096-4.153zm-40 0c0-1.53-1.222-2.77-2.73-2.77-2.263 0-4.096-1.859-4.096-4.153h1.365c0 1.53 1.222 2.77 2.73 2.77 2.263 0 4.096 1.859 4.096 4.153 0 1.53 1.222 2.77 2.73 2.77 2.263 0 4.096 1.859 4.096 4.153 0 1.53 1.222 2.77 2.73 2.77V137c-2.262 0-4.095-1.86-4.095-4.154 0-1.53-1.222-2.77-2.73-2.77-2.263 0-4.096-1.859-4.096-4.153zm-40 0c0-1.53-1.222-2.77-2.73-2.77-2.263 0-4.096-1.859-4.096-4.153h1.365c0 1.53 1.222 2.77 2.73 2.77 2.263 0 4.096 1.859 4.096 4.153 0 1.53 1.222 2.77 2.73 2.77 2.263 0 4.096 1.859 4.096 4.153 0 1.53 1.222 2.77 2.73 2.77V137c-2.262 0-4.095-1.86-4.095-4.154 0-1.53-1.222-2.77-2.73-2.77-2.263 0-4.096-1.859-4.096-4.153zm-40 0c0-1.53-1.222-2.77-2.73-2.77C1.833 123.154 0 121.295 0 119h1.365c0 1.53 1.222 2.77 2.73 2.77 2.263 0 4.096 1.859 4.096 4.153 0 1.53 1.222 2.77 2.73 2.77 2.263 0 4.096 1.859 4.096 4.153 0 1.53 1.222 2.77 2.73 2.77V137c-2.262 0-4.095-1.86-4.095-4.154 0-1.53-1.222-2.77-2.73-2.77-2.263 0-4.096-1.859-4.096-4.153zm320-28c0-1.53-1.222-2.77-2.73-2.77-2.263 0-4.096-1.859-4.096-4.153h1.365c0 1.53 1.222 2.77 2.73 2.77 2.263 0 4.096 1.859 4.096 4.153 0 1.53 1.222 2.77 2.73 2.77 2.263 0 4.096 1.859 4.096 4.153 0 1.53 1.222 2.77 2.73 2.77V109c-2.262 0-4.095-1.86-4.095-4.154 0-1.53-1.222-2.77-2.73-2.77-2.263 0-4.096-1.859-4.096-4.153zm-40 0c0-1.53-1.222-2.77-2.73-2.77-2.263 0-4.096-1.859-4.096-4.153h1.365c0 1.53 1.222 2.77 2.73 2.77 2.263 0 4.096 1.859 4.096 4.153 0 1.53 1.222 2.77 2.73 2.77 2.263 0 4.096 1.859 4.096 4.153 0 1.53 1.222 2.77 2.73 2.77V109c-2.262 0-4.095-1.86-4.095-4.154 0-1.53-1.222-2.77-2.73-2.77-2.263 0-4.096-1.859-4.096-4.153zm-40 0c0-1.53-1.222-2.77-2.73-2.77-2.263 0-4.096-1.859-4.096-4.153h1.365c0 1.53 1.222 2.77 2.73 2.77 2.263 0 4.096 1.859 4.096 4.153 0 1.53 1.222 2.77 2.73 2.77 2.263 0 4.096 1.859 4.096 4.153 0 1.53 1.222 2.77 2.73 2.77V109c-2.262 0-4.095-1.86-4.095-4.154 0-1.53-1.222-2.77-2.73-2.77-2.263 0-4.096-1.859-4.096-4.153zm-40 0c0-1.53-1.222-2.77-2.73-2.77-2.263 0-4.096-1.859-4.096-4.153h1.365c0 1.53 1.222 2.77 2.73 2.77 2.263 0 4.096 1.859 4.096 4.153 0 1.53 1.222 2.77 2.73 2.77 2.263 0 4.096 1.859 4.096 4.153 0 1.53 1.222 2.77 2.73 2.77V109c-2.262 0-4.095-1.86-4.095-4.154 0-1.53-1.222-2.77-2.73-2.77-2.263 0-4.096-1.859-4.096-4.153zm-40 0c0-1.53-1.222-2.77-2.73-2.77-2.263 0-4.096-1.859-4.096-4.153h1.365c0 1.53 1.222 2.77 2.73 2.77 2.263 0 4.096 1.859 4.096 4.153 0 1.53 1.222 2.77 2.73 2.77 2.263 0 4.096 1.859 4.096 4.153 0 1.53 1.222 2.77 2.73 2.77V109c-2.262 0-4.095-1.86-4.095-4.154 0-1.53-1.222-2.77-2.73-2.77-2.263 0-4.096-1.859-4.096-4.153zm-40 0c0-1.53-1.222-2.77-2.73-2.77-2.263 0-4.096-1.859-4.096-4.153h1.365c0 1.53 1.222 2.77 2.73 2.77 2.263 0 4.096 1.859 4.096 4.153 0 1.53 1.222 2.77 2.73 2.77 2.263 0 4.096 1.859 4.096 4.153 0 1.53 1.222 2.77 2.73 2.77V109c-2.262 0-4.095-1.86-4.095-4.154 0-1.53-1.222-2.77-2.73-2.77-2.263 0-4.096-1.859-4.096-4.153zm-40 0c0-1.53-1.222-2.77-2.73-2.77C81.833 95.154 80 93.295 80 91h1.365c0 1.53 1.222 2.77 2.73 2.77 2.263 0 4.096 1.859 4.096 4.153 0 1.53 1.222 2.77 2.73 2.77 2.263 0 4.096 1.859 4.096 4.153 0 1.53 1.222 2.77 2.73 2.77V109c-2.262 0-4.095-1.86-4.095-4.154 0-1.53-1.222-2.77-2.73-2.77-2.263 0-4.096-1.859-4.096-4.153zm-40 0c0-1.53-1.222-2.77-2.73-2.77C41.833 95.154 40 93.295 40 91h1.365c0 1.53 1.222 2.77 2.73 2.77 2.263 0 4.096 1.859 4.096 4.153 0 1.53 1.222 2.77 2.73 2.77 2.263 0 4.096 1.859 4.096 4.153 0 1.53 1.222 2.77 2.73 2.77V109c-2.262 0-4.095-1.86-4.095-4.154 0-1.53-1.222-2.77-2.73-2.77-2.263 0-4.096-1.859-4.096-4.153zm-40 0c0-1.53-1.222-2.77-2.73-2.77C1.833 95.154 0 93.295 0 91h1.365c0 1.53 1.222 2.77 2.73 2.77 2.263 0 4.096 1.859 4.096 4.153 0 1.53 1.222 2.77 2.73 2.77 2.263 0 4.096 1.859 4.096 4.153 0 1.53 1.222 2.77 2.73 2.77V109c-2.262 0-4.095-1.86-4.095-4.154 0-1.53-1.222-2.77-2.73-2.77-2.263 0-4.096-1.859-4.096-4.153zm320-28c0-1.53-1.222-2.77-2.73-2.77-2.263 0-4.096-1.859-4.096-4.153h1.365c0 1.53 1.222 2.77 2.73 2.77 2.263 0 4.096 1.859 4.096 4.153 0 1.53 1.222 2.77 2.73 2.77 2.263 0 4.096 1.859 4.096 4.153 0 1.53 1.222 2.77 2.73 2.77V81c-2.262 0-4.095-1.86-4.095-4.154 0-1.53-1.222-2.77-2.73-2.77-2.263 0-4.096-1.859-4.096-4.153zm-40 0c0-1.53-1.222-2.77-2.73-2.77-2.263 0-4.096-1.859-4.096-4.153h1.365c0 1.53 1.222 2.77 2.73 2.77 2.263 0 4.096 1.859 4.096 4.153 0 1.53 1.222 2.77 2.73 2.77 2.263 0 4.096 1.859 4.096 4.153 0 1.53 1.222 2.77 2.73 2.77V81c-2.262 0-4.095-1.86-4.095-4.154 0-1.53-1.222-2.77-2.73-2.77-2.263 0-4.096-1.859-4.096-4.153zm-40 0c0-1.53-1.222-2.77-2.73-2.77-2.263 0-4.096-1.859-4.096-4.153h1.365c0 1.53 1.222 2.77 2.73 2.77 2.263 0 4.096 1.859 4.096 4.153 0 1.53 1.222 2.77 2.73 2.77 2.263 0 4.096 1.859 4.096 4.153 0 1.53 1.222 2.77 2.73 2.77V81c-2.262 0-4.095-1.86-4.095-4.154 0-1.53-1.222-2.77-2.73-2.77-2.263 0-4.096-1.859-4.096-4.153zm-40 0c0-1.53-1.222-2.77-2.73-2.77-2.263 0-4.096-1.859-4.096-4.153h1.365c0 1.53 1.222 2.77 2.73 2.77 2.263 0 4.096 1.859 4.096 4.153 0 1.53 1.222 2.77 2.73 2.77 2.263 0 4.096 1.859 4.096 4.153 0 1.53 1.222 2.77 2.73 2.77V81c-2.262 0-4.095-1.86-4.095-4.154 0-1.53-1.222-2.77-2.73-2.77-2.263 0-4.096-1.859-4.096-4.153zm-40 0c0-1.53-1.222-2.77-2.73-2.77-2.263 0-4.096-1.859-4.096-4.153h1.365c0 1.53 1.222 2.77 2.73 2.77 2.263 0 4.096 1.859 4.096 4.153 0 1.53 1.222 2.77 2.73 2.77 2.263 0 4.096 1.859 4.096 4.153 0 1.53 1.222 2.77 2.73 2.77V81c-2.262 0-4.095-1.86-4.095-4.154 0-1.53-1.222-2.77-2.73-2.77-2.263 0-4.096-1.859-4.096-4.153zm-40 0c0-1.53-1.222-2.77-2.73-2.77-2.263 0-4.096-1.859-4.096-4.153h1.365c0 1.53 1.222 2.77 2.73 2.77 2.263 0 4.096 1.859 4.096 4.153 0 1.53 1.222 2.77 2.73 2.77 2.263 0 4.096 1.859 4.096 4.153 0 1.53 1.222 2.77 2.73 2.77V81c-2.262 0-4.095-1.86-4.095-4.154 0-1.53-1.222-2.77-2.73-2.77-2.263 0-4.096-1.859-4.096-4.153zm-40 0c0-1.53-1.222-2.77-2.73-2.77C81.833 67.154 80 65.295 80 63h1.365c0 1.53 1.222 2.77 2.73 2.77 2.263 0 4.096 1.859 4.096 4.153 0 1.53 1.222 2.77 2.73 2.77 2.263 0 4.096 1.859 4.096 4.153 0 1.53 1.222 2.77 2.73 2.77V81c-2.262 0-4.095-1.86-4.095-4.154 0-1.53-1.222-2.77-2.73-2.77-2.263 0-4.096-1.859-4.096-4.153zm-40 0c0-1.53-1.222-2.77-2.73-2.77C41.833 67.154 40 65.295 40 63h1.365c0 1.53 1.222 2.77 2.73 2.77 2.263 0 4.096 1.859 4.096 4.153 0 1.53 1.222 2.77 2.73 2.77 2.263 0 4.096 1.859 4.096 4.153 0 1.53 1.222 2.77 2.73 2.77V81c-2.262 0-4.095-1.86-4.095-4.154 0-1.53-1.222-2.77-2.73-2.77-2.263 0-4.096-1.859-4.096-4.153zm-40 0c0-1.53-1.222-2.77-2.73-2.77C1.833 67.154 0 65.295 0 63h1.365c0 1.53 1.222 2.77 2.73 2.77 2.263 0 4.096 1.859 4.096 4.153 0 1.53 1.222 2.77 2.73 2.77 2.263 0 4.096 1.859 4.096 4.153 0 1.53 1.222 2.77 2.73 2.77V81c-2.262 0-4.095-1.86-4.095-4.154 0-1.53-1.222-2.77-2.73-2.77-2.263 0-4.096-1.859-4.096-4.153zm320-28c0-1.53-1.222-2.77-2.73-2.77-2.263 0-4.096-1.859-4.096-4.153h1.365c0 1.53 1.222 2.77 2.73 2.77 2.263 0 4.096 1.859 4.096 4.153 0 1.53 1.222 2.77 2.73 2.77 2.263 0 4.096 1.859 4.096 4.153 0 1.53 1.222 2.77 2.73 2.77V53c-2.262 0-4.095-1.86-4.095-4.154 0-1.53-1.222-2.77-2.73-2.77-2.263 0-4.096-1.859-4.096-4.153zm-40 0c0-1.53-1.222-2.77-2.73-2.77-2.263 0-4.096-1.859-4.096-4.153h1.365c0 1.53 1.222 2.77 2.73 2.77 2.263 0 4.096 1.859 4.096 4.153 0 1.53 1.222 2.77 2.73 2.77 2.263 0 4.096 1.859 4.096 4.153 0 1.53 1.222 2.77 2.73 2.77V53c-2.262 0-4.095-1.86-4.095-4.154 0-1.53-1.222-2.77-2.73-2.77-2.263 0-4.096-1.859-4.096-4.153zm-40 0c0-1.53-1.222-2.77-2.73-2.77-2.263 0-4.096-1.859-4.096-4.153h1.365c0 1.53 1.222 2.77 2.73 2.77 2.263 0 4.096 1.859 4.096 4.153 0 1.53 1.222 2.77 2.73 2.77 2.263 0 4.096 1.859 4.096 4.153 0 1.53 1.222 2.77 2.73 2.77V53c-2.262 0-4.095-1.86-4.095-4.154 0-1.53-1.222-2.77-2.73-2.77-2.263 0-4.096-1.859-4.096-4.153zm-40 0c0-1.53-1.222-2.77-2.73-2.77-2.263 0-4.096-1.859-4.096-4.153h1.365c0 1.53 1.222 2.77 2.73 2.77 2.263 0 4.096 1.859 4.096 4.153 0 1.53 1.222 2.77 2.73 2.77 2.263 0 4.096 1.859 4.096 4.153 0 1.53 1.222 2.77 2.73 2.77V53c-2.262 0-4.095-1.86-4.095-4.154 0-1.53-1.222-2.77-2.73-2.77-2.263 0-4.096-1.859-4.096-4.153zm-40 0c0-1.53-1.222-2.77-2.73-2.77-2.263 0-4.096-1.859-4.096-4.153h1.365c0 1.53 1.222 2.77 2.73 2.77 2.263 0 4.096 1.859 4.096 4.153 0 1.53 1.222 2.77 2.73 2.77 2.263 0 4.096 1.859 4.096 4.153 0 1.53 1.222 2.77 2.73 2.77V53c-2.262 0-4.095-1.86-4.095-4.154 0-1.53-1.222-2.77-2.73-2.77-2.263 0-4.096-1.859-4.096-4.153zm-40 0c0-1.53-1.222-2.77-2.73-2.77-2.263 0-4.096-1.859-4.096-4.153h1.365c0 1.53 1.222 2.77 2.73 2.77 2.263 0 4.096 1.859 4.096 4.153 0 1.53 1.222 2.77 2.73 2.77 2.263 0 4.096 1.859 4.096 4.153 0 1.53 1.222 2.77 2.73 2.77V53c-2.262 0-4.095-1.86-4.095-4.154 0-1.53-1.222-2.77-2.73-2.77-2.263 0-4.096-1.859-4.096-4.153zm-40 0c0-1.53-1.222-2.77-2.73-2.77C81.833 39.154 80 37.295 80 35h1.365c0 1.53 1.222 2.77 2.73 2.77 2.263 0 4.096 1.859 4.096 4.153 0 1.53 1.222 2.77 2.73 2.77 2.263 0 4.096 1.859 4.096 4.153 0 1.53 1.222 2.77 2.73 2.77V53c-2.262 0-4.095-1.86-4.095-4.154 0-1.53-1.222-2.77-2.73-2.77-2.263 0-4.096-1.859-4.096-4.153zm-40 0c0-1.53-1.222-2.77-2.73-2.77C41.833 39.154 40 37.295 40 35h1.365c0 1.53 1.222 2.77 2.73 2.77 2.263 0 4.096 1.859 4.096 4.153 0 1.53 1.222 2.77 2.73 2.77 2.263 0 4.096 1.859 4.096 4.153 0 1.53 1.222 2.77 2.73 2.77V53c-2.262 0-4.095-1.86-4.095-4.154 0-1.53-1.222-2.77-2.73-2.77-2.263 0-4.096-1.859-4.096-4.153zm-40 0c0-1.53-1.222-2.77-2.73-2.77C1.833 39.154 0 37.295 0 35h1.365c0 1.53 1.222 2.77 2.73 2.77 2.263 0 4.096 1.859 4.096 4.153 0 1.53 1.222 2.77 2.73 2.77 2.263 0 4.096 1.859 4.096 4.153 0 1.53 1.222 2.77 2.73 2.77V53c-2.262 0-4.095-1.86-4.095-4.154 0-1.53-1.222-2.77-2.73-2.77-2.263 0-4.096-1.859-4.096-4.153zm320-28c0-1.53-1.222-2.77-2.73-2.77C321.833 11.154 320 9.295 320 7h1.365c0 1.53 1.222 2.77 2.73 2.77 2.263 0 4.096 1.859 4.096 4.153 0 1.53 1.222 2.77 2.73 2.77 2.263 0 4.096 1.859 4.096 4.153 0 1.53 1.222 2.77 2.73 2.77V25c-2.262 0-4.095-1.86-4.095-4.154 0-1.53-1.222-2.77-2.73-2.77-2.263 0-4.096-1.859-4.096-4.153zm-40 0c0-1.53-1.222-2.77-2.73-2.77C281.833 11.154 280 9.295 280 7h1.365c0 1.53 1.222 2.77 2.73 2.77 2.263 0 4.096 1.859 4.096 4.153 0 1.53 1.222 2.77 2.73 2.77 2.263 0 4.096 1.859 4.096 4.153 0 1.53 1.222 2.77 2.73 2.77V25c-2.262 0-4.095-1.86-4.095-4.154 0-1.53-1.222-2.77-2.73-2.77-2.263 0-4.096-1.859-4.096-4.153zm-40 0c0-1.53-1.222-2.77-2.73-2.77C241.833 11.154 240 9.295 240 7h1.365c0 1.53 1.222 2.77 2.73 2.77 2.263 0 4.096 1.859 4.096 4.153 0 1.53 1.222 2.77 2.73 2.77 2.263 0 4.096 1.859 4.096 4.153 0 1.53 1.222 2.77 2.73 2.77V25c-2.262 0-4.095-1.86-4.095-4.154 0-1.53-1.222-2.77-2.73-2.77-2.263 0-4.096-1.859-4.096-4.153zm-40 0c0-1.53-1.222-2.77-2.73-2.77C201.833 11.154 200 9.295 200 7h1.365c0 1.53 1.222 2.77 2.73 2.77 2.263 0 4.096 1.859 4.096 4.153 0 1.53 1.222 2.77 2.73 2.77 2.263 0 4.096 1.859 4.096 4.153 0 1.53 1.222 2.77 2.73 2.77V25c-2.262 0-4.095-1.86-4.095-4.154 0-1.53-1.222-2.77-2.73-2.77-2.263 0-4.096-1.859-4.096-4.153zm-40 0c0-1.53-1.222-2.77-2.73-2.77C161.833 11.154 160 9.295 160 7h1.365c0 1.53 1.222 2.77 2.73 2.77 2.263 0 4.096 1.859 4.096 4.153 0 1.53 1.222 2.77 2.73 2.77 2.263 0 4.096 1.859 4.096 4.153 0 1.53 1.222 2.77 2.73 2.77V25c-2.262 0-4.095-1.86-4.095-4.154 0-1.53-1.222-2.77-2.73-2.77-2.263 0-4.096-1.859-4.096-4.153zm-40 0c0-1.53-1.222-2.77-2.73-2.77C121.833 11.154 120 9.295 120 7h1.365c0 1.53 1.222 2.77 2.73 2.77 2.263 0 4.096 1.859 4.096 4.153 0 1.53 1.222 2.77 2.73 2.77 2.263 0 4.096 1.859 4.096 4.153 0 1.53 1.222 2.77 2.73 2.77V25c-2.262 0-4.095-1.86-4.095-4.154 0-1.53-1.222-2.77-2.73-2.77-2.263 0-4.096-1.859-4.096-4.153zm-40 0c0-1.53-1.222-2.77-2.73-2.77C81.833 11.154 80 9.295 80 7h1.365c0 1.53 1.222 2.77 2.73 2.77 2.263 0 4.096 1.859 4.096 4.153 0 1.53 1.222 2.77 2.73 2.77 2.263 0 4.096 1.859 4.096 4.153 0 1.53 1.222 2.77 2.73 2.77V25c-2.262 0-4.095-1.86-4.095-4.154 0-1.53-1.222-2.77-2.73-2.77-2.263 0-4.096-1.859-4.096-4.153zm-40 0c0-1.53-1.222-2.77-2.73-2.77C41.833 11.154 40 9.295 40 7h1.365c0 1.53 1.222 2.77 2.73 2.77 2.263 0 4.096 1.859 4.096 4.153 0 1.53 1.222 2.77 2.73 2.77 2.263 0 4.096 1.859 4.096 4.153 0 1.53 1.222 2.77 2.73 2.77V25c-2.262 0-4.095-1.86-4.095-4.154 0-1.53-1.222-2.77-2.73-2.77-2.263 0-4.096-1.859-4.096-4.153zm-40 0c0-1.53-1.222-2.77-2.73-2.77C1.833 11.154 0 9.295 0 7h1.365c0 1.53 1.222 2.77 2.73 2.77 2.263 0 4.096 1.859 4.096 4.153 0 1.53 1.222 2.77 2.73 2.77 2.263 0 4.096 1.859 4.096 4.153 0 1.53 1.222 2.77 2.73 2.77V25c-2.262 0-4.095-1.86-4.095-4.154 0-1.53-1.222-2.77-2.73-2.77-2.263 0-4.096-1.859-4.096-4.153z" mask="url(#b)" opacity=".1"/>
        <path fill="#FFF" fill-rule="nonzero" d="M344.208 115.573l5.792 5.875-.965.979-5.793-5.875.966-.979zm-40 0l5.792 5.875-.965.979-5.793-5.875.966-.979zm-40 0l5.792 5.875-.965.979-5.793-5.875.966-.979zm-40 0l5.792 5.875-.965.979-5.793-5.875.966-.979zm-40 0l5.792 5.875-.965.979-5.793-5.875.966-.979zm-40 0l5.792 5.875-.965.979-5.793-5.875.966-.979zm-40 0l5.792 5.875-.965.979-5.793-5.875.966-.979zm-40 0L70 121.448l-.965.979-5.793-5.875.966-.979zm-40 0L30 121.448l-.965.979-5.793-5.875.966-.979zm320-28L350 93.448l-.965.979-5.793-5.875.966-.979zm-40 0L310 93.448l-.965.979-5.793-5.875.966-.979zm-40 0L270 93.448l-.965.979-5.793-5.875.966-.979zm-40 0L230 93.448l-.965.979-5.793-5.875.966-.979zm-40 0L190 93.448l-.965.979-5.793-5.875.966-.979zm-40 0L150 93.448l-.965.979-5.793-5.875.966-.979zm-40 0L110 93.448l-.965.979-5.793-5.875.966-.979zm-40 0L70 93.448l-.965.979-5.793-5.875.966-.979zm-40 0L30 93.448l-.965.979-5.793-5.875.966-.979zm320-28L350 65.448l-.965.979-5.793-5.875.966-.979zm-40 0L310 65.448l-.965.979-5.793-5.875.966-.979zm-40 0L270 65.448l-.965.979-5.793-5.875.966-.979zm-40 0L230 65.448l-.965.979-5.793-5.875.966-.979zm-40 0L190 65.448l-.965.979-5.793-5.875.966-.979zm-40 0L150 65.448l-.965.979-5.793-5.875.966-.979zm-40 0L110 65.448l-.965.979-5.793-5.875.966-.979zm-40 0L70 65.448l-.965.979-5.793-5.875.966-.979zm-40 0L30 65.448l-.965.979-5.793-5.875.966-.979zm320-28L350 37.448l-.965.979-5.793-5.875.966-.979zm-40 0L310 37.448l-.965.979-5.793-5.875.966-.979zm-40 0L270 37.448l-.965.979-5.793-5.875.966-.979zm-40 0L230 37.448l-.965.979-5.793-5.875.966-.979zm-40 0L190 37.448l-.965.979-5.793-5.875.966-.979zm-40 0L150 37.448l-.965.979-5.793-5.875.966-.979zm-40 0L110 37.448l-.965.979-5.793-5.875.966-.979zm-40 0L70 37.448l-.965.979-5.793-5.875.966-.979zm-40 0L30 37.448l-.965.979-5.793-5.875.966-.979zm320-28L350 9.448l-.965.979-5.793-5.875.966-.979zm-40 0L310 9.448l-.965.979-5.793-5.875.966-.979zm-40 0L270 9.448l-.965.979-5.793-5.875.966-.979zm-40 0L230 9.448l-.965.979-5.793-5.875.966-.979zm-40 0L190 9.448l-.965.979-5.793-5.875.966-.979zm-40 0L150 9.448l-.965.979-5.793-5.875.966-.979zm-40 0L110 9.448l-.965.979-5.793-5.875.966-.979zm-40 0L70 9.448l-.965.979-5.793-5.875.966-.979zm-40 0L30 9.448l-.965.979-5.793-5.875.966-.979z" mask="url(#b)" opacity=".3" transform="matrix(-1 0 0 1 373.242 0)"/>
    </g>
</svg>
