<svg xmlns="http://www.w3.org/2000/svg" width="230" height="180" viewBox="0 0 230 180">
    <defs>
        <linearGradient id="a" x1="49.996%" x2="49.996%" y1="100.004%" y2="0%">
            <stop offset="0%" stop-color="gray" stop-opacity=".25"/>
            <stop offset="54%" stop-color="gray" stop-opacity=".12"/>
            <stop offset="100%" stop-color="gray" stop-opacity=".1"/>
        </linearGradient>
    </defs>
    <g fill="none" fill-rule="evenodd" transform="translate(24)">
        <path fill="#19BABD" d="M50.264.35C42.81.075 35.025-.118 28.286 3.082c-6.74 3.2-11.95 10.955-9.69 18.084.738 2.324 2.175 4.35 3.386 6.466 6.057 10.58 6.338 24.257.723 35.08-4.323 8.332-11.65 14.673-16.924 22.436C.506 92.91-2.492 103.67 2.697 111.49c3.553 5.355 10.147 7.96 16.534 8.592 6.388.632 12.812-.363 19.227-.618a82.691 82.691 0 0 1 36.36 6.888c15.758 6.921 29.333 18.76 45.925 23.33 1.992.547 4.074.99 6.11.618 3.614-.66 6.24-3.652 9.069-6.014 9.029-7.49 7.176-9.316 17.77-14.357 9.25-4.402 16.371-12.59 20.8-21.839 4.427-9.249 6.35-19.527 7.075-29.762.429-6.092.414-12.381-1.763-18.084-2.446-6.412-7.408-11.517-12.612-15.98-5.437-4.666-11.364-8.893-18.077-11.41-8.02-3.008-10.143-8.41-27.23-12.51-16.216-3.884-34.02-8.126-48.79-16.037C65.683.335 58.62.65 50.264.35z" opacity=".1"/>
        <g fill="#19BABD" opacity=".1">
            <path d="M153.069 135.466s.759-10.656 6.745-16.466a16.19 16.19 0 0 0 4.773-9.054c.258-1.643.365-3.306.322-4.968"/>
            <path d="M168.659 101.294c-.44 1.177-3.838 3.793-3.838 3.793s-.858-4.208-.414-5.385a2.268 2.268 0 0 1 2.92-1.334 2.275 2.275 0 0 1 1.332 2.926zM169.744 109.128c-1.008.747-5.28 1.093-5.28 1.093s1.566-3.997 2.574-4.747a2.268 2.268 0 0 1 3.127.507c.733.989.546 2.384-.421 3.145v.002zM165.436 120.205c-1.248.137-5.11-1.719-5.11-1.719s3.367-2.659 4.613-2.792a2.27 2.27 0 0 1 2.379 2.02 2.272 2.272 0 0 1-1.882 2.49zM160.292 127.852c-1.205.345-5.326-.836-5.326-.836s2.869-3.19 4.074-3.536a2.268 2.268 0 0 1 2.25.517 2.277 2.277 0 0 1-.998 3.855zM159.915 108.778c.536 1.134 4.142 3.451 4.142 3.451s.498-4.263-.04-5.4a2.269 2.269 0 0 0-2.996-1.022 2.276 2.276 0 0 0-1.106 2.97zM154.012 117.797c.858.921 4.985 2.053 4.985 2.053s-.8-4.218-1.65-5.142a2.268 2.268 0 0 0-3.204-.12 2.278 2.278 0 0 0-.131 3.209zM149.477 127.351c.682 1.053 4.567 2.868 4.567 2.868s-.077-4.296-.761-5.347a2.268 2.268 0 0 0-3.106-.613 2.277 2.277 0 0 0-.7 3.092z"/>
            <path d="M168.659 101.294c-.44 1.177-3.838 3.793-3.838 3.793s-.858-4.208-.414-5.385a2.268 2.268 0 0 1 2.92-1.334 2.275 2.275 0 0 1 1.332 2.926zM169.744 109.128c-1.008.747-5.28 1.093-5.28 1.093s1.566-3.997 2.574-4.747a2.268 2.268 0 0 1 3.127.507c.733.989.546 2.384-.421 3.145v.002zM165.436 120.205c-1.248.137-5.11-1.719-5.11-1.719s3.367-2.659 4.613-2.792a2.27 2.27 0 0 1 2.379 2.02 2.272 2.272 0 0 1-1.882 2.49zM160.292 127.852c-1.205.345-5.326-.836-5.326-.836s2.869-3.19 4.074-3.536a2.268 2.268 0 0 1 2.25.517 2.277 2.277 0 0 1-.998 3.855zM159.915 108.778c.536 1.134 4.142 3.451 4.142 3.451s.498-4.263-.04-5.4a2.269 2.269 0 0 0-2.996-1.022 2.276 2.276 0 0 0-1.106 2.97zM154.012 117.797c.858.921 4.985 2.053 4.985 2.053s-.8-4.218-1.65-5.142a2.268 2.268 0 0 0-3.204-.12 2.278 2.278 0 0 0-.131 3.209zM149.477 127.351c.682 1.053 4.567 2.868 4.567 2.868s-.077-4.296-.761-5.347a2.268 2.268 0 0 0-3.106-.613 2.277 2.277 0 0 0-.7 3.092z"/>
        </g>
        <g fill="#19BABD" opacity=".1">
            <path d="M155.17 95.132s.759-10.657 6.745-16.467a16.205 16.205 0 0 0 4.773-9.054 27.04 27.04 0 0 0 .322-4.968"/>
            <path d="M170.76 60.96c-.429 1.174-3.836 3.79-3.836 3.79s-.857-4.207-.416-5.382a2.268 2.268 0 0 1 2.92-1.334 2.275 2.275 0 0 1 1.332 2.925zM171.852 68.79c-1.006.75-5.28 1.094-5.28 1.094s1.566-3.995 2.574-4.745a2.267 2.267 0 0 1 2.285-.306 2.274 2.274 0 0 1 .42 3.958zM167.537 79.87c-1.245.138-5.107-1.718-5.107-1.718s3.366-2.657 4.612-2.793a2.269 2.269 0 0 1 2.112.9c.49.66.586 1.534.25 2.285a2.27 2.27 0 0 1-1.867 1.337v-.01zM162.394 87.517c-1.205.346-5.327-.836-5.327-.836s2.871-3.19 4.074-3.537a2.275 2.275 0 0 1 1.25 4.373h.003zM162.016 68.44c.536 1.137 4.145 3.455 4.145 3.455s.495-4.266-.04-5.4a2.27 2.27 0 1 0-4.105 1.946zM156.113 77.46c.858.924 4.988 2.054 4.988 2.054s-.802-4.219-1.654-5.14a2.268 2.268 0 0 0-3.168-.085 2.278 2.278 0 0 0-.166 3.171zM151.578 87.016c.684 1.053 4.567 2.868 4.567 2.868s-.077-4.296-.76-5.346a2.27 2.27 0 0 0-3.972.173 2.278 2.278 0 0 0 .165 2.305z"/>
            <path d="M170.76 60.96c-.429 1.174-3.836 3.79-3.836 3.79s-.857-4.207-.416-5.382a2.268 2.268 0 0 1 2.92-1.334 2.275 2.275 0 0 1 1.332 2.925zM171.852 68.79c-1.006.75-5.28 1.094-5.28 1.094s1.566-3.995 2.574-4.745a2.267 2.267 0 0 1 2.285-.306 2.274 2.274 0 0 1 .42 3.958zM167.537 79.87c-1.245.138-5.107-1.718-5.107-1.718s3.366-2.657 4.612-2.793a2.269 2.269 0 0 1 2.112.9c.49.66.586 1.534.25 2.285a2.27 2.27 0 0 1-1.867 1.337v-.01zM162.394 87.517c-1.205.346-5.327-.836-5.327-.836s2.871-3.19 4.074-3.537a2.275 2.275 0 0 1 1.25 4.373h.003zM162.016 68.44c.536 1.137 4.145 3.455 4.145 3.455s.495-4.266-.04-5.4a2.27 2.27 0 1 0-4.105 1.946zM156.113 77.46c.858.924 4.988 2.054 4.988 2.054s-.802-4.219-1.654-5.14a2.268 2.268 0 0 0-3.168-.085 2.278 2.278 0 0 0-.166 3.171zM151.578 87.016c.684 1.053 4.567 2.868 4.567 2.868s-.077-4.296-.76-5.346a2.27 2.27 0 0 0-3.972.173 2.278 2.278 0 0 0 .165 2.305z"/>
        </g>
        <g fill="#19BABD" opacity=".1">
            <path d="M41.423 109.093s-9.157-5.468-11.651-13.433a16.165 16.165 0 0 0-5.927-8.34 27.025 27.025 0 0 0-4.288-2.522"/>
            <path d="M17.96 79.78c.857.921 1.657 5.14 1.657 5.14s-4.136-1.128-4.987-2.05a2.278 2.278 0 0 1 .164-3.167 2.268 2.268 0 0 1 3.166.077zM25.432 82.342c.215 1.238-1.398 5.216-1.398 5.216s-2.86-3.199-3.075-4.436a2.277 2.277 0 0 1 .757-2.179 2.268 2.268 0 0 1 3.716 1.4zM33.374 91.166c-.429 1.177-3.836 3.796-3.836 3.796s-.857-4.208-.418-5.383a2.269 2.269 0 1 1 3.913-.699c.52.643.651 1.519.341 2.286zM37.879 99.206c-.232 1.235-3.139 4.401-3.139 4.401s-1.555-4.001-1.32-5.234a2.266 2.266 0 1 1 3.71-1.301c.614.529.9 1.347.749 2.145v-.01zM20.702 90.969c1.252.03 4.942-2.148 4.942-2.148s-3.58-2.363-4.835-2.393a2.273 2.273 0 0 0-2.279 2.22 2.273 2.273 0 0 0 2.172 2.327v-.006zM26.09 100.306c1.205-.348 4.074-3.54 4.074-3.54s-4.12-1.18-5.326-.831a2.275 2.275 0 0 0 1.254 4.371h-.002zM32.57 108.66c1.248-.138 4.612-2.793 4.612-2.793s-3.86-1.86-5.11-1.718a2.269 2.269 0 0 0-1.935 1.317 2.276 2.276 0 0 0 .257 2.33 2.267 2.267 0 0 0 2.176.863z"/>
            <path d="M17.96 79.78c.857.921 1.657 5.14 1.657 5.14s-4.136-1.128-4.987-2.05a2.278 2.278 0 0 1 .164-3.167 2.268 2.268 0 0 1 3.166.077zM25.432 82.342c.215 1.238-1.398 5.216-1.398 5.216s-2.86-3.199-3.075-4.436a2.277 2.277 0 0 1 .757-2.179 2.268 2.268 0 0 1 3.716 1.4zM33.374 91.166c-.429 1.177-3.836 3.796-3.836 3.796s-.857-4.208-.418-5.383a2.269 2.269 0 1 1 3.913-.699c.52.643.651 1.519.341 2.286zM37.879 99.206c-.232 1.235-3.139 4.401-3.139 4.401s-1.555-4.001-1.32-5.234a2.266 2.266 0 1 1 3.71-1.301c.614.529.9 1.347.749 2.145v-.01zM20.702 90.969c1.252.03 4.942-2.148 4.942-2.148s-3.58-2.363-4.835-2.393a2.273 2.273 0 0 0-2.279 2.22 2.273 2.273 0 0 0 2.172 2.327v-.006zM26.09 100.306c1.205-.348 4.074-3.54 4.074-3.54s-4.12-1.18-5.326-.831a2.275 2.275 0 0 0 1.254 4.371h-.002zM32.57 108.66c1.248-.138 4.612-2.793 4.612-2.793s-3.86-1.86-5.11-1.718a2.269 2.269 0 0 0-1.935 1.317 2.276 2.276 0 0 0 .257 2.33 2.267 2.267 0 0 0 2.176.863z"/>
        </g>
        <path fill="#19BABD" d="M37.182 165.188c10.507 3.03 23.329 1.185 35.25 1.4 1.632.03 3.36.118 4.67.644 1.31.527 1.954 1.375 2.852 2.101 3.34 2.704 10.187 3.574 16.17 3.115 5.982-.46 11.47-1.979 17.119-3.134 9.76-2 20.918-2.91 30.546-.73.883.2 1.814.43 2.761.35 2.11-.179 2.738-1.629 4.216-2.458 2.665-1.503 8.452-1.089 9.623-3.06.686-1.156-.892-2.342-2.612-3.13-6.578-3.018-15.991-3.516-24.604-3.05-8.613.466-17.079 1.748-25.73 1.755-10.786 0-21.206-1.97-31.886-2.78-7.398-.558-15.47-.49-22.407 1.16-7.52 1.78-9.177 5.782-15.968 7.817zM9.06 172.615c3.001 1.809 6.646.71 10.047.836.465.017.958.07 1.331.382s.558.82.813 1.255c.952 1.613 2.903 2.133 4.608 1.858 1.704-.275 3.27-1.18 4.88-1.871 2.787-1.192 5.963-1.736 8.705-.43.235.15.51.226.79.215.6-.107.78-.973 1.2-1.467.76-.894 2.41-.645 2.742-1.828.196-.69-.255-1.396-.744-1.867-1.874-1.802-4.558-2.098-7.013-1.821-2.455.277-4.867 1.029-7.335 1.029-3.073 0-6.043-1.175-9.087-1.659-2.11-.335-4.411-.292-6.388.692-2.142 1.074-2.614 3.463-4.55 4.676z" opacity=".1"/>
        <path fill="url(#a)" d="M149.123 7.877H49.5a9.115 9.115 0 0 0-6.456 2.667 9.148 9.148 0 0 0-2.682 6.46v138.27c.01 5.047 4.101 9.13 9.138 9.121h99.623a9.115 9.115 0 0 0 6.457-2.667 9.148 9.148 0 0 0 2.682-6.46V17.003a9.148 9.148 0 0 0-2.682-6.46 9.115 9.115 0 0 0-6.457-2.666z"/>
        <rect width="115.082" height="153.245" x="41.766" y="9.752" fill="#535461" rx="4.296"/>
        <path fill="#F6F7F9" d="M47.614 24.246h103.388V148.5H47.614z"/>
        <ellipse cx="98.84" cy="16.78" fill="#F6F7F9" rx="1.404" ry="1.407"/>
        <ellipse cx="98.84" cy="155.498" fill="#F6F7F9" rx="4.211" ry="4.219"/>
        <path fill="#19BABD" d="M47.614 24.246h103.388v6.193H47.614z" opacity=".2"/>
        <ellipse cx="50.847" cy="27.344" fill="#F6F7F9" rx="1.319" ry="1.321"/>
        <ellipse cx="54.207" cy="27.344" fill="#F6F7F9" rx="1.319" ry="1.321"/>
        <ellipse cx="57.565" cy="27.344" fill="#F6F7F9" rx="1.319" ry="1.321"/>
        <path fill="#DCE0ED" d="M50.701 60.773h96.276v1H50.701zM50.701 68.254h96.276v1H50.701zM50.701 75.737h96.276v1H50.701zM50.701 83.219h96.276v1H50.701zM50.701 90.7h96.276v1H50.701z"/>
        <path fill="#19BABD" d="M146.977 91.022H50.583V76.31l8.84 4.365 9.15 1.243 8.028-2.425 9.685-7.524 4.872-2.818 3.561-.688 3.407.183 5.603 2.773 7.618 4.86 5.978.77 4.739-1.637 10.047-8.242 5.13-1.832 5.366.831 4.37 2.528z" opacity=".2"/>
        <path fill="#19BABD" d="M67.385 81.913c-8.682 0-16.703-5.318-16.804-5.387l.24-.357c.125.084 12.47 8.266 22.962 4.167 3.826-1.503 6.549-3.819 9.184-6.068 2.75-2.347 5.347-4.564 8.89-5.526 4.06-1.102 8.5-.106 11.872 2.672 2.884 2.373 8.626 6.184 14.692 5.045 3.092-.582 5.697-2.844 8.456-5.239 5.29-4.592 10.762-9.341 20.226-2.528l-.25.348c-9.19-6.616-14.53-1.978-19.695 2.505-2.804 2.433-5.452 4.725-8.658 5.335-6.24 1.173-12.102-2.715-15.043-5.136-3.266-2.687-7.559-3.651-11.489-2.588-3.448.937-6.004 3.123-8.725 5.439-2.66 2.272-5.412 4.62-9.303 6.14a17.923 17.923 0 0 1-6.555 1.178z"/>
        <ellipse cx="97.028" cy="68.441" fill="#19BABD" rx="2.386" ry="2.391"/>
        <path fill="#19BABD" d="M128.157 36.805H98.053a.49.49 0 0 0-.489.49V57.69a.49.49 0 0 0 .845.335l5.217-5.574a.486.486 0 0 1 .356-.154h24.175a.49.49 0 0 0 .49-.49V37.29a.49.49 0 0 0-.49-.486z" opacity=".2"/>
        <path fill="#F6F7F9" d="M104.533 40.582h17.143v2.148h-17.143zM104.533 45.342h4.706v2.148h-4.706z"/>
        <path fill="#19BABD" d="M58.831 106.394h4.706v2.148h-4.706zM58.831 110.546h4.706v2.148h-4.706zM58.831 114.698h4.706v2.148h-4.706zM58.831 118.852h4.706V121h-4.706zM58.831 123.004h4.706v2.148h-4.706zM58.831 127.156h4.706v2.148h-4.706zM58.831 131.31h4.706v2.148h-4.706zM58.831 135.462h4.706v2.148h-4.706zM67.694 137.61H72.4v2.148h-4.706zM75.985 137.61h4.706v2.148h-4.706zM84.277 137.61h4.706v2.148h-4.706zM92.566 137.61h4.706v2.148h-4.706zM100.857 137.61h4.706v2.148h-4.706zM109.15 137.61h4.706v2.148h-4.706zM117.439 137.61h4.706v2.148h-4.706zM125.73 137.61h4.706v2.148h-4.706zM134.022 137.61h4.706v2.148h-4.706z" opacity=".2"/>
        <path fill="#F6F7F9" d="M114.529 45.342h7.147v2.148h-7.147z"/>
        <path fill="#19BABD" d="M67.694 122H72.4v13.461h-4.706zM75.985 115.771h4.706v19.69h-4.706zM84.277 110.545h4.706v24.916h-4.706zM92.566 113.254h4.706v22.206h-4.706zM100.858 108.541h4.706v26.921h-4.706z"/>
        <path fill="#19BABD" d="M109.15 118.852h4.706v16.61h-4.706zM117.439 118.852h4.706v16.61h-4.706zM125.73 118.852h4.706v16.61h-4.706zM134.022 118.852h4.706v16.61h-4.706z" opacity=".2"/>
        <path fill="#19BABD" d="M29.324 158.458s1.177 1.542-.545 3.866-3.141 4.296-2.573 5.748c0 0 2.597-4.326 4.717-4.386 2.12-.06.727-2.627-1.6-5.228z"/>
        <path fill="#000" d="M29.324 158.458c.103.148.184.311.24.483 2.063 2.427 3.163 4.694 1.18 4.752-1.847.051-4.075 3.361-4.594 4.197.018.064.039.127.063.189 0 0 2.596-4.326 4.717-4.386 2.12-.06.72-2.634-1.606-5.235z" opacity=".1"/>
        <path fill="#FFD037" d="M31.513 160.423c0 .544-.06.984-.135.984-.075 0-.137-.44-.137-.984 0-.543.077-.285.152-.285s.12-.254.12.285z"/>
        <path fill="#FFD037" d="M32.266 161.072c-.476.26-.892.417-.929.352-.036-.064.322-.33.798-.59.476-.26.287-.071.324 0 .036.07.283-.022-.193.238z"/>
        <path fill="#19BABD" d="M23.101 158.458s-1.177 1.542.545 3.866 3.141 4.296 2.573 5.748c0 0-2.597-4.326-4.717-4.386-2.12-.06-.725-2.627 1.6-5.228z"/>
        <path fill="#000" d="M23.101 158.458c-.102.149-.183.312-.24.483-2.062 2.427-3.162 4.694-1.18 4.752 1.85.051 4.075 3.361 4.594 4.197a1.505 1.505 0 0 1-.062.189s-2.597-4.326-4.718-4.386c-2.12-.06-.718-2.634 1.606-5.235z" opacity=".1"/>
        <path fill="#FFD037" d="M20.912 160.423c0 .544.06.984.135.984.075 0 .137-.44.137-.984 0-.543-.077-.285-.152-.285s-.12-.254-.12.285z"/>
        <path fill="#FFD037" d="M20.162 161.072c.476.26.89.417.926.352.036-.064-.322-.33-.798-.59-.476-.26-.287-.071-.323 0-.037.07-.281-.022.195.238z"/>
        <path fill="#A8A8A8" d="M21.287 167.877s3.294-.101 4.289-.81c.995-.709 5.064-1.553 5.31-.417.247 1.137 4.95 5.647 1.232 5.677-3.718.03-8.64-.58-9.63-1.185-.99-.606-1.2-3.265-1.2-3.265z"/>
        <path fill="#000" d="M32.182 171.932c-3.718.03-8.639-.58-9.63-1.185-.754-.46-1.054-2.112-1.155-2.874h-.11s.215 2.66 1.199 3.264c.984.604 5.911 1.216 9.63 1.186 1.072 0 1.445-.39 1.423-.958-.148.346-.557.56-1.357.567z" opacity=".2"/>
    </g>
</svg>
