<svg xmlns="http://www.w3.org/2000/svg" width="140" height="140" viewBox="0 0 140 140">
    <g fill="none" fill-rule="nonzero">
        <circle cx="70.519" cy="70.519" r="67.407" fill="#19BABD" opacity=".204"/>
        <ellipse cx="70" cy="70.519" fill="#FFF" rx="59.63" ry="67.407"/>
        <path fill="#FFF" d="M11.2 70.519C11.2 33.29 37.758 3.11 70.52 3.11 33.29 3.111 3.11 33.291 3.11 70.52s30.18 67.407 67.408 67.407c-32.761 0-59.319-30.18-59.319-67.407z"/>
        <g fill="#19BABD">
            <path d="M70 140c-38.66 0-70-31.34-70-70S31.34 0 70 0s70 31.34 70 70c-.043 38.642-31.358 69.957-70 70zM70 5.385C34.314 5.385 5.385 34.314 5.385 70c0 35.686 28.929 64.615 64.615 64.615 35.686 0 64.615-28.929 64.615-64.615C134.575 34.33 105.67 5.426 70 5.385z"/>
            <path d="M61.922 94.23c-.61 0-1.203-.207-1.68-.588L33.319 72.103a2.693 2.693 0 0 1 3.362-4.207L61.61 87.84l41.378-46.55a2.692 2.692 0 0 1 4.026 3.576L63.936 93.326a2.689 2.689 0 0 1-2.014.905z"/>
        </g>
    </g>
</svg>
