<svg xmlns="http://www.w3.org/2000/svg" width="808" height="443" viewBox="0 0 808 443">
    <defs>
        <linearGradient id="a" x1="84.596%" x2="20.219%" y1="-79.155%" y2="100%">
            <stop offset="0%" stop-color="#91B6F3" stop-opacity="0"/>
            <stop offset="100%" stop-color="#587FE3"/>
        </linearGradient>
        <filter id="b" width="107.9%" height="203.4%" x="-3.9%" y="-51.7%" filterUnits="objectBoundingBox">
            <feGaussianBlur in="SourceGraphic" stdDeviation="5"/>
        </filter>
        <linearGradient id="c" x1="53.161%" x2="45.365%" y1="100.42%" y2=".02%">
            <stop offset="0%" stop-color="gray" stop-opacity=".25"/>
            <stop offset="54%" stop-color="gray" stop-opacity=".12"/>
            <stop offset="100%" stop-color="gray" stop-opacity=".1"/>
        </linearGradient>
        <filter id="d" width="108.9%" height="475%" x="-4.4%" y="-187.5%" filterUnits="objectBoundingBox">
            <feGaussianBlur in="SourceGraphic" stdDeviation="5"/>
        </filter>
    </defs>
    <g fill="none" fill-rule="evenodd" transform="translate(0 -98)">
        <path fill="url(#a)" d="M469.455 89.196c-51.799-1.794-101.133-18.528-148.243-36.832-47.109-18.304-93.77-38.609-144.329-48.273-32.518-6.246-69.711-7.126-95.907 10.32C55.772 31.195 47.609 60.196 43.23 87.05c-3.298 20.225-5.235 41.515 3.794 60.451 6.274 13.148 17.4 24.197 25.099 36.784 26.788 43.821 7.851 97.852-21.17 140.632-13.606 20.065-29.413 39.234-39.922 60.572-10.508 21.338-15.367 45.84-6.17 67.634 9.108 21.618 30.821 37.824 54.344 49.234 47.774 23.18 104.047 29.81 158.96 33.573 121.519 8.31 243.678 4.716 365.517 1.104 45.092-1.329 90.377-2.682 134.733-9.656 24.635-3.875 50.062-10.024 67.95-24.87 22.699-18.84 28.325-50.738 13.11-74.367-25.515-39.626-96.043-49.466-113.899-91.99-9.812-23.412.264-49.483 14.535-71.19 30.605-46.575 81.9-87.434 84.598-140.663 1.857-36.56-22.803-73.175-60.932-90.478-39.962-18.135-95.387-15.853-124.856 14.156-30.374 30.915-83.742 42.813-129.467 41.22z" opacity=".081"/>
        <g transform="translate(175 178)">
            <ellipse cx="210" cy="296.5" fill="#8F95B0" filter="url(#b)" opacity=".25" rx="190" ry="14.5"/>
            <g opacity=".1" transform="translate(304 41)">
                <path fill="#3F3D56" d="M74.336 170.13c-1.137-3.445-5.748-5.03-10.296-3.539-.655.213-1.29.487-1.894.818a9.662 9.662 0 0 0-.895-.206c.248-.99.343-2.013.282-3.033a10.982 10.982 0 0 0 4.88-9.591 10.995 10.995 0 0 0 4.861-9.591 10.621 10.621 0 0 0 3.685-4.164c2.193-4.333 1.284-9.202-2.033-10.877-3.317-1.675-7.79.482-9.983 4.815a10.564 10.564 0 0 0-1.177 5.428 10.995 10.995 0 0 0-4.862 9.591 10.995 10.995 0 0 0-4.862 9.591 11 11 0 0 0-4.88 9.596 10.621 10.621 0 0 0-3.684 4.163 11.358 11.358 0 0 0-.931 2.564 9.47 9.47 0 0 0-1.988-2.112 11.317 11.317 0 0 0-.447-2.01c-1.496-4.544-5.507-7.314-8.954-6.179-3.447 1.135-5.04 5.732-3.545 10.275a10.305 10.305 0 0 0 3.384 4.95c.088.682.238 1.354.448 2.01.868 2.635 2.583 4.672 4.544 5.695a10.358 10.358 0 0 0-.372 1.743 11.289 11.289 0 0 0-3.375 6.66 11.28 11.28 0 0 0-3.376 6.665 11.004 11.004 0 0 0-2.238 3.042c-2.198 4.334-1.29 9.207 2.028 10.878 3.317 1.67 7.79-.478 9.987-4.816.58-1.13.958-2.353 1.12-3.614a11.289 11.289 0 0 0 3.375-6.66 11.28 11.28 0 0 0 3.375-6.665 11.253 11.253 0 0 0 3.336-6.66 11.253 11.253 0 0 0 3.384-6.675 10.776 10.776 0 0 0 1.518-1.787c1.829.375 3.725.256 5.493-.344.655-.213 1.289-.487 1.893-.817 1.98.52 4.07.446 6.008-.215 4.535-1.478 7.324-5.481 6.191-8.93z"/>
                <g fill="#000">
                    <path d="M66.31 156.549c-.47.461-.986.873-1.54 1.228a10.254 10.254 0 0 1-.497 3.766c.352-.486.666-.998.94-1.532a10.99 10.99 0 0 0 1.097-3.462zM71.171 146.958c-.47.46-.986.873-1.54 1.228a10.254 10.254 0 0 1-.497 3.766c.354-.487.668-1 .94-1.536a11.084 11.084 0 0 0 1.097-3.458zM60.145 143.389a9.767 9.767 0 0 1 .076-1.97 11.138 11.138 0 0 0-2.14 2.935c-.27.536-.498 1.093-.68 1.666a10.175 10.175 0 0 1 2.744-2.631zM29.287 201.431c.391-.544.833-1.05 1.32-1.51a10.22 10.22 0 0 1 .39-1.787c-.39.522-.732 1.077-1.025 1.658-.27.528-.5 1.076-.685 1.64zM32.662 194.775c.391-.544.834-1.05 1.321-1.51.073-.59.197-1.173.372-1.742a11.467 11.467 0 0 0-.985 1.604 11.94 11.94 0 0 0-.708 1.648zM61.443 166.14c-.467.461-.982.871-1.535 1.224a10.008 10.008 0 0 1-.282 3.033c.302.053.6.121.895.206.604-.33 1.238-.604 1.894-.818 4.557-1.492 9.164.094 10.296 3.538.281.866.33 1.79.144 2.68 1.5-1.76 2.122-3.904 1.477-5.87-1.137-3.443-5.748-5.03-10.297-3.537-.655.213-1.289.487-1.893.817a9.662 9.662 0 0 0-.896-.205c.085-.358.148-.71.197-1.068zM27.622 204.777c-.39.522-.733 1.076-1.026 1.657a11.85 11.85 0 0 0-.69 1.671c.4-.547.85-1.055 1.344-1.519a10.22 10.22 0 0 1 .372-1.809zM55.26 152.98a9.807 9.807 0 0 1 .077-1.97 11.138 11.138 0 0 0-2.14 2.935c-.27.536-.498 1.094-.68 1.666a10.175 10.175 0 0 1 2.744-2.631zM48.237 192.095c-.088.664-.238 1.32-.448 1.956.35-.488.663-1.001.936-1.536.293-.574.537-1.172.73-1.787-.367.489-.774.946-1.218 1.367zM41.486 205.416c-.088.665-.238 1.32-.448 1.956.354-.486.668-1 .94-1.536a11.81 11.81 0 0 0 .73-1.787c-.367.49-.776.948-1.222 1.367zM44.861 198.75c-.087.665-.237 1.32-.447 1.957.357-.478.677-.983.958-1.51.293-.573.537-1.171.73-1.786-.375.48-.79.929-1.24 1.34zM51.612 185.434a10.702 10.702 0 0 1-.447 1.952 11.368 11.368 0 0 0 1.67-3.35c-.365.501-.774.97-1.223 1.398zM29.51 168.588c3.457-1.13 7.468 1.635 8.954 6.178.21.657.36 1.331.448 2.015a9.47 9.47 0 0 1 1.988 2.113c.206-.89.518-1.753.93-2.569.157-.303.328-.594.502-.893a9.421 9.421 0 0 0-1.79-1.867 11.317 11.317 0 0 0-.448-2.01c-1.496-4.544-5.507-7.313-8.954-6.179-1.97.644-3.33 2.417-3.859 4.66a5.234 5.234 0 0 1 2.23-1.448zM45.537 172.162a9.74 9.74 0 0 1 .081-1.966 11.049 11.049 0 0 0-2.144 2.935c-.271.535-.499 1.09-.68 1.662a10.287 10.287 0 0 1 2.743-2.631zM50.4 162.566a9.74 9.74 0 0 1 .08-1.965 10.955 10.955 0 0 0-2.145 2.93c-.27.537-.497 1.094-.68 1.667a10.175 10.175 0 0 1 2.744-2.632zM38.11 212.076a10.813 10.813 0 0 1-.447 1.962 11.484 11.484 0 0 0 1.67-3.346c-.366.496-.775.96-1.222 1.384z"/>
                </g>
                <path fill="#3F3D56" d="M80.97 125.806a10.586 10.586 0 0 0 3.685-4.164c2.198-4.333 1.29-9.207-2.028-10.882-3.317-1.675-7.79.483-9.987 4.82a10.56 10.56 0 0 0-1.173 5.441 10.995 10.995 0 0 0-4.862 9.591 10.554 10.554 0 0 0-3.684 4.164c-.27.53-.496 1.081-.676 1.648a9.332 9.332 0 0 1 4.821-3.574 5.471 5.471 0 0 0 2.746 3.2 5.49 5.49 0 0 0 4.211.303 9.295 9.295 0 0 1 0 5.99c.35-.481.661-.989.931-1.519a10.56 10.56 0 0 0 1.173-5.427 10.969 10.969 0 0 0 4.862-9.591h-.018z"/>
                <path fill="#8F95B0" d="M134.405 64.319a32.253 32.253 0 0 0 3.904-2.158L123.836 51.61l17.011 8.742a32.203 32.203 0 0 0 12.088-22.474l-28.911.294 28.973-4.833c-.816-11.919-8.185-22.404-19.137-27.23a32.288 32.288 0 0 0-33.058 4.23 32.128 32.128 0 0 0-11.634 31.166 32.286 32.286 0 0 0-5.936 3.574L98.34 66.043 80.2 47.692a32.156 32.156 0 0 0-9.03 29.31c-15.23 7.093-22.44 24.673-16.567 40.386 5.874 15.714 22.862 24.286 39.027 19.693 16.164-4.592 26.08-20.808 22.778-37.252 13.497-6.27 20.935-20.947 17.996-35.51z"/>
                <path fill="#000" d="M74.023 56.135a32 32 0 0 0-2.843 20.866c-15.23 7.094-22.44 24.674-16.567 40.387 5.874 15.714 22.862 24.286 39.027 19.693 16.164-4.592 26.08-20.808 22.778-37.252 6.325-2.93-40.774-46.915-42.395-43.694z"/>
                <ellipse cx="110.347" cy="4.789" fill="#8F95B0" rx="4.786" ry="4.775"/>
                <ellipse cx="138.3" cy="7.853" fill="#8F95B0" rx="4.786" ry="4.775"/>
                <ellipse cx="149.08" cy="50.765" fill="#8F95B0" rx="4.786" ry="4.775"/>
                <ellipse cx="134.531" cy="72.195" fill="#8F95B0" rx="4.786" ry="4.775"/>
                <ellipse cx="114.654" cy="116.701" fill="#8F95B0" rx="4.786" ry="4.775"/>
                <ellipse cx="114.654" cy="116.701" fill="#000" rx="4.786" ry="4.775"/>
                <ellipse cx="70.459" cy="66.293" fill="#8F95B0" rx="4.786" ry="4.775"/>
                <ellipse cx="70.459" cy="66.293" fill="#000" rx="4.786" ry="4.775"/>
                <path fill="#000" d="M65.356 144.84c-3.183-1.603-4.145-6.146-2.288-10.337-.098.17-.192.344-.282.527-2.198 4.334-1.289 9.203 2.028 10.878 3.318 1.675 7.79-.482 9.983-4.816.094-.178.175-.361.256-.54-2.279 3.98-6.519 5.897-9.697 4.288zM60.629 154.168c-3.179-1.604-4.146-6.147-2.284-10.342-.098.175-.197.349-.286.528-2.198 4.333-1.29 9.206 2.028 10.877 3.317 1.67 7.79-.478 9.987-4.815.09-.18.175-.358.256-.541-2.283 3.98-6.518 5.897-9.701 4.293zM55.901 163.491c-3.178-1.604-4.145-6.147-2.283-10.337-.099.17-.197.344-.287.527-2.198 4.333-1.284 9.203 2.033 10.878 3.317 1.675 7.785-.483 9.983-4.816.09-.179.175-.362.255-.54-2.278 3.98-6.518 5.896-9.7 4.288zM51.192 172.84c-3.183-1.603-4.146-6.146-2.288-10.336-.099.17-.193.344-.287.522-2.193 4.334-1.284 9.207 2.033 10.883 3.317 1.675 7.79-.483 9.983-4.82.094-.18.175-.358.255-.541-2.292 3.958-6.531 5.874-9.696 4.293zM46.45 182.142c-3.182-1.604-4.145-6.147-2.287-10.337-.098.17-.192.344-.282.527-2.198 4.333-1.29 9.202 2.028 10.877 3.317 1.676 7.79-.482 9.988-4.815.09-.179.174-.362.255-.54-2.274 3.98-6.523 5.896-9.701 4.288zM41.723 191.47c-3.178-1.605-4.145-6.148-2.283-10.338-.098.17-.197.344-.286.523-2.198 4.333-1.29 9.207 2.032 10.882 3.322 1.675 7.767-.487 10.006-4.82.09-.179.174-.358.255-.54-2.306 3.98-6.523 5.896-9.724 4.292zM36.996 200.792c-3.179-1.603-4.146-6.147-2.283-10.337-.099.174-.193.344-.287.527-2.193 4.333-1.285 9.203 2.033 10.878 3.317 1.675 7.79-.483 9.983-4.816.094-.178.174-.362.255-.54-2.279 3.98-6.518 5.896-9.701 4.288zM32.273 210.12c-3.183-1.604-4.146-6.147-2.288-10.337a9.7 9.7 0 0 0-.282.522c-2.198 4.334-1.29 9.207 2.028 10.882 3.317 1.676 7.79-.482 9.988-4.82.09-.178.17-.357.25-.54-2.278 3.98-6.518 5.879-9.696 4.293z"/>
                <path fill="#000" d="M29.166 216.249c-3.178-1.608-4.145-6.147-2.283-10.342a12 12 0 0 0-.287.527c-2.198 4.334-1.289 9.207 2.028 10.878 3.318 1.67 7.79-.478 9.988-4.816.09-.178.175-.357.255-.54-2.283 3.98-6.523 5.897-9.701 4.293z"/>
                <path fill="#8F95B0" d="M114.578 174.744c.493-1.411.794-2.882.895-4.373a2.391 2.391 0 0 0 2.124-1.301 2.381 2.381 0 0 0-.19-2.48 2.393 2.393 0 0 0-2.296-.964 16.673 16.673 0 0 0-8.793-11.306 2.385 2.385 0 0 0-1.056-3.208 2.395 2.395 0 0 0-3.215 1.055 2.23 2.23 0 0 0-.215.638c-5.329-.99-10.81.649-14.715 4.4a16.886 16.886 0 0 0-4.396-.129l-1.938 8.805-.117-8.488a16.737 16.737 0 0 0-12.553 11.853 16.693 16.693 0 0 0 4.625 16.617 16.778 16.778 0 0 0 16.882 3.694 2.394 2.394 0 0 0 3.727.576 2.382 2.382 0 0 0 .557-2.684 16.714 16.714 0 0 0 2.149-1.751c7.17 1.163 14.275-2.414 17.598-8.859l-9.02-1.514 9.947-.581z"/>
                <path fill="#000" d="M100.642 179.02c-3.331-4.388-5.372-9.583-7.723-14.568a60.88 60.88 0 0 0-3.165-5.969l-1.764-2.05c-.295.25-.59.51-.895.782a16.886 16.886 0 0 0-4.396-.13l-1.939 8.805-.116-8.488a16.737 16.737 0 0 0-12.554 11.853 16.693 16.693 0 0 0 4.626 16.617 16.778 16.778 0 0 0 16.882 3.694 2.394 2.394 0 0 0 3.727.576 2.382 2.382 0 0 0 .557-2.684 16.714 16.714 0 0 0 2.149-1.751c3.421.552 6.93.034 10.045-1.484a23.575 23.575 0 0 1-5.434-5.204z"/>
                <path fill="#8F95B0" d="M41.66 160.167a2.381 2.381 0 0 0-.098-2.328 2.392 2.392 0 0 0-2.041-1.134 16.685 16.685 0 0 0-5.238-9.305c.438-1.705.604-3.47.492-5.226l-8.796-1.497 8.541-.536c-.153-.8-.364-1.589-.631-2.359a2.44 2.44 0 0 0 .788-.893 2.386 2.386 0 0 0-.346-2.66 2.398 2.398 0 0 0-2.604-.664c-4.668-6.582-13.38-8.9-20.712-5.513-7.333 3.387-11.198 11.516-9.188 19.326-.519.218-.941.614-1.191 1.117a2.382 2.382 0 0 0 .37 2.689 2.394 2.394 0 0 0 2.652.603 16.773 16.773 0 0 0 3.174 3.864 16.674 16.674 0 0 0 .778 10.614l11.797-3.055-10.52 5.521a16.768 16.768 0 0 0 18.025 7.366c6.968-1.64 12.121-7.52 12.824-14.63a2.386 2.386 0 0 0 1.925-1.3z"/>
                <path fill="#000" d="M41.66 160.167a2.381 2.381 0 0 0-.098-2.328 2.392 2.392 0 0 0-2.041-1.134 16.685 16.685 0 0 0-5.238-9.305c.072-.281.134-.558.188-.84a5.896 5.896 0 0 0-.864.764c-1.59 1.738-2.404 4.074-3.975 5.83-1.854 2.073-4.63 3.154-7.4 3.444-2.772.29-5.56-.134-8.296-.665-2.265-.447-4.562-.965-6.858-.746-.224 0-.448.049-.654.084.134.13.269.26.408.385a16.674 16.674 0 0 0 .778 10.614l11.797-3.06-10.52 5.521a16.768 16.768 0 0 0 18.025 7.366c6.968-1.64 12.121-7.52 12.824-14.63a2.386 2.386 0 0 0 1.925-1.3z"/>
            </g>
            <g opacity=".1" transform="translate(0 143)">
                <path fill="#3F3D56" d="M40.348 85.613c.577-1.732 2.917-2.53 5.226-1.781a5.8 5.8 0 0 1 .96.41c.149-.04.302-.076.45-.103a4.955 4.955 0 0 1-.143-1.523 5.528 5.528 0 0 1-2.467-4.819 5.33 5.33 0 0 1-1.866-2.088 5.29 5.29 0 0 1-.6-2.726 5.365 5.365 0 0 1-1.866-2.093c-1.11-2.173-.659-4.618 1.032-5.464 1.69-.847 3.954.244 5.068 2.418a5.29 5.29 0 0 1 .595 2.73 5.488 5.488 0 0 1 2.466 4.814 5.501 5.501 0 0 1 2.466 4.818 5.488 5.488 0 0 1 2.467 4.815 5.366 5.366 0 0 1 1.87 2.093c.203.41.355.844.452 1.291a4.771 4.771 0 0 1 1.005-1.064c.046-.344.125-.682.234-1.011.762-2.28 2.796-3.67 4.55-3.117 1.754.552 2.556 2.88 1.803 5.161a5.196 5.196 0 0 1-1.718 2.49 5.584 5.584 0 0 1-.234 1.006 4.955 4.955 0 0 1-2.304 2.86c.087.29.15.588.19.89.465.441.85.958 1.14 1.527.295.569.487 1.184.568 1.817.467.441.855.958 1.145 1.528.295.569.487 1.183.568 1.817.469.442.856.96 1.146 1.532 1.113 2.173.653 4.623-1.028 5.46-1.682.837-3.954-.24-5.068-2.418a5.509 5.509 0 0 1-.568-1.817 5.632 5.632 0 0 1-1.713-3.345 5.632 5.632 0 0 1-1.714-3.344 5.617 5.617 0 0 1-1.713-3.345 5.603 5.603 0 0 1-1.14-1.528 5.438 5.438 0 0 1-.569-1.817 5.197 5.197 0 0 1-.77-.89 5.429 5.429 0 0 1-2.787-.17 6.031 6.031 0 0 1-.965-.414 5.296 5.296 0 0 1-3.043-.107c-2.286-.752-3.698-2.76-3.125-4.493z"/>
                <g fill="#000">
                    <path d="M44.42 78.786c.238.233.501.44.784.619a4.98 4.98 0 0 0 .252 1.888 5.302 5.302 0 0 1-.478-.77 5.5 5.5 0 0 1-.559-1.737zM41.953 73.976c.24.23.503.436.785.615a5.015 5.015 0 0 0 .252 1.892 5.618 5.618 0 0 1-1.037-2.507zM47.557 72.181c.022-.33.01-.66-.036-.988.441.43.808.927 1.087 1.474.136.27.25.55.343.837a5.122 5.122 0 0 0-1.394-1.323zM63.203 101.334a5.208 5.208 0 0 0-.668-.757 5.464 5.464 0 0 0-.198-.891 5.88 5.88 0 0 1 .866 1.648zM61.476 97.99a5.208 5.208 0 0 0-.668-.758c-.036-.302-.1-.6-.189-.89.372.496.658 1.05.848 1.638l.009.01zM46.89 83.613c.237.231.498.436.78.61a4.797 4.797 0 0 0 .144 1.524c-.152.026-.302.06-.45.102a6.018 6.018 0 0 0-.965-.41c-2.309-.748-4.649.05-5.221 1.782-.144.43-.17.891-.077 1.336a3.06 3.06 0 0 1-.748-2.944c.577-1.732 2.917-2.53 5.225-1.781a5.8 5.8 0 0 1 .96.41c.15-.04.303-.076.451-.103a4.545 4.545 0 0 1-.099-.526zM64.05 103.013a5.684 5.684 0 0 1 .866 1.67 5.247 5.247 0 0 0-.667-.762 5.464 5.464 0 0 0-.199-.908zM50.024 77.004c.021-.33.01-.66-.036-.988a5.566 5.566 0 0 1 1.429 2.307 5.104 5.104 0 0 0-1.393-1.319zM53.59 96.644c.042.333.116.66.221.98a5.598 5.598 0 0 1-.848-1.68c.188.252.397.486.627.7zM57.012 103.333c.046.333.121.66.226.98a5.302 5.302 0 0 1-.478-.77 5.696 5.696 0 0 1-.37-.891c.189.243.397.47.622.681zM55.303 99.989c.043.332.117.66.221.98a5.724 5.724 0 0 1-.847-1.662c.188.245.398.473.626.682zM51.877 93.295c.041.334.115.664.22.984a5.524 5.524 0 0 1-.45-.77 5.41 5.41 0 0 1-.374-.89c.18.243.382.47.604.676zM63.09 84.838c-1.754-.57-3.787.82-4.545 3.117-.11.33-.188.668-.234 1.011-.39.3-.731.658-1.01 1.06a5.669 5.669 0 0 0-.726-1.737 4.76 4.76 0 0 1 .902-.935c.046-.343.124-.682.234-1.01.762-2.28 2.795-3.67 4.55-3.118a3.096 3.096 0 0 1 1.956 2.342 2.677 2.677 0 0 0-1.127-.73zM54.956 86.633c.022-.33.01-.661-.036-.989a5.566 5.566 0 0 1 1.43 2.311 5.059 5.059 0 0 0-1.394-1.322zM52.49 81.814c.021-.33.01-.661-.036-.988.44.43.806.928 1.086 1.474.137.27.251.55.343.837a5.122 5.122 0 0 0-1.393-1.323zM58.725 106.678c.044.334.12.664.226.984a5.603 5.603 0 0 1-.478-.775 5.696 5.696 0 0 1-.37-.89c.19.242.397.47.622.68z"/>
                </g>
                <path fill="#3F3D56" d="M36.98 63.35a5.33 5.33 0 0 1-1.866-2.088c-1.114-2.178-.654-4.623 1.028-5.465 1.681-.842 3.954.24 5.067 2.418.44.84.646 1.781.595 2.726a5.501 5.501 0 0 1 2.467 4.819c.8.52 1.445 1.24 1.87 2.088.136.267.25.544.343.829a4.762 4.762 0 0 0-2.448-1.782 2.752 2.752 0 0 1-1.387 1.623 2.809 2.809 0 0 1-2.143.159 4.63 4.63 0 0 0 0 3.006 5.858 5.858 0 0 1-.451-.762 5.29 5.29 0 0 1-.6-2.725 5.515 5.515 0 0 1-2.466-4.82l-.009-.026z"/>
                <path fill="#8F95B0" d="M9.874 32.47a16.658 16.658 0 0 1-1.98-1.082l7.34-5.3-8.629 4.387A16.128 16.128 0 0 1 .478 19.19l14.671.151L.446 16.91C.791 10.87 4.521 5.528 10.113 3.063 15.704.597 22.22 1.422 27.003 5.2s7.027 9.877 5.82 15.807a16.604 16.604 0 0 1 3.012 1.781L28.17 33.316l9.202-9.21c3.945 3.828 5.668 9.364 4.581 14.72 7.737 3.559 11.404 12.394 8.423 20.294-2.98 7.9-11.608 12.209-19.816 9.898-8.208-2.31-13.24-10.465-11.556-18.73-6.838-3.148-10.61-10.506-9.13-17.814v-.004z"/>
                <path fill="#000" d="M40.51 28.364a15.91 15.91 0 0 1 1.443 10.479c7.737 3.56 11.404 12.395 8.423 20.295-2.98 7.899-11.608 12.208-19.816 9.898-8.208-2.31-13.24-10.465-11.556-18.73-3.215-1.474 20.681-23.559 21.506-21.942z"/>
                <ellipse cx="22.079" cy="2.574" fill="#8F95B0" rx="2.43" ry="2.4"/>
                <ellipse cx="7.895" cy="4.115" fill="#8F95B0" rx="2.43" ry="2.4"/>
                <ellipse cx="2.43" cy="25.665" fill="#8F95B0" rx="2.43" ry="2.4"/>
                <ellipse cx="9.811" cy="36.429" fill="#8F95B0" rx="2.43" ry="2.4"/>
                <ellipse cx="19.892" cy="58.781" fill="#8F95B0" rx="2.43" ry="2.4"/>
                <ellipse cx="19.892" cy="58.781" fill="#000" rx="2.43" ry="2.4"/>
                <ellipse cx="42.314" cy="33.463" fill="#8F95B0" rx="2.43" ry="2.4"/>
                <ellipse cx="42.314" cy="33.463" fill="#000" rx="2.43" ry="2.4"/>
                <path fill="#000" d="M44.906 72.912c1.614-.806 2.101-3.086 1.16-5.193.049.09.098.174.143.263 1.114 2.178.654 4.622-1.032 5.464-1.686.842-3.95-.24-5.063-2.418-.045-.09-.09-.178-.131-.272 1.159 2 3.31 2.962 4.923 2.156zM47.3 77.597c1.615-.806 2.106-3.09 1.164-5.193.05.085.099.174.144.263 1.114 2.178.654 4.622-1.033 5.464-1.686.842-3.95-.24-5.063-2.418-.05-.09-.09-.183-.13-.272 1.158 2.009 3.313 2.962 4.918 2.156zM49.7 82.277c1.613-.806 2.105-3.086 1.158-5.192.054.089.099.173.149.267 1.113 2.173.649 4.622-1.033 5.46-1.682.837-3.95-.24-5.063-2.418-.05-.09-.09-.179-.13-.272 1.153 2 3.304 2.961 4.918 2.155zM52.098 86.962c1.614-.806 2.105-3.086 1.158-5.192.05.084.1.173.145.262 1.118 2.178.653 4.623-1.028 5.465-1.682.841-3.954-.24-5.068-2.418-.045-.09-.086-.183-.126-.272 1.154 1.995 3.305 2.961 4.919 2.155zM54.496 91.643c1.614-.806 2.101-3.086 1.159-5.188.05.084.1.173.144.262 1.114 2.178.654 4.623-1.028 5.465-1.681.841-3.954-.245-5.067-2.418-.046-.094-.086-.183-.131-.272 1.159 1.995 3.31 2.957 4.923 2.15zM56.895 96.328c1.614-.806 2.101-3.086 1.159-5.193.05.09.099.174.144.263 1.114 2.178.654 4.623-1.028 5.464-1.682.842-3.954-.24-5.068-2.418-.045-.089-.09-.178-.13-.272 1.158 1.982 3.309 2.962 4.923 2.156zM59.294 101.013c1.61-.806 2.1-3.09 1.158-5.193.05.085.1.174.145.263 1.113 2.178.653 4.623-1.033 5.464-1.686.842-3.95-.245-5.063-2.418-.045-.093-.09-.182-.13-.272 1.158 1.996 3.308 2.962 4.923 2.156zM61.688 105.694c1.614-.807 2.105-3.087 1.158-5.193.054.089.1.173.15.267 1.113 2.173.648 4.623-1.033 5.46-1.682.837-3.95-.24-5.064-2.418-.05-.09-.09-.178-.13-.272 1.158 2 3.305 2.962 4.919 2.156z"/>
                <path fill="#000" d="M63.28 108.77c1.613-.805 2.1-3.085 1.158-5.192.05.09.1.174.144.267 1.114 2.174.654 4.623-1.028 5.46-1.682.838-3.954-.24-5.068-2.418a5.056 5.056 0 0 1-.13-.272c1.145 2.009 3.296 2.962 4.923 2.156z"/>
                <path fill="#8F95B0" d="M19.933 87.929a8.182 8.182 0 0 1-.451-2.196 1.215 1.215 0 0 1-1.076-.654c-.207-.4-.17-.88.096-1.244a1.22 1.22 0 0 1 1.165-.484 8.398 8.398 0 0 1 4.459-5.679 1.193 1.193 0 0 1 .536-1.612 1.222 1.222 0 0 1 1.633.53c.052.1.089.21.108.32a8.6 8.6 0 0 1 7.466 2.228 8.525 8.525 0 0 1 2.254-.063l.983 4.418.023-4.262c3.045.695 5.458 2.985 6.283 5.962a8.327 8.327 0 0 1-2.332 8.292 8.575 8.575 0 0 1-8.496 1.908 1.238 1.238 0 0 1-.51.485 1.229 1.229 0 0 1-1.38-.196 1.192 1.192 0 0 1-.288-1.35 8.472 8.472 0 0 1-1.086-.89c-3.638.582-7.242-1.216-8.927-4.453l4.576-.762-5.036-.298z"/>
                <path fill="#000" d="M27.002 90.075c1.691-2.226 2.728-4.81 3.918-7.312a29.58 29.58 0 0 1 1.606-3.002l.901-1.029c.154.13.302.259.451.392a8.525 8.525 0 0 1 2.254-.062l.983 4.418.014-4.249c3.045.695 5.458 2.985 6.283 5.962a8.327 8.327 0 0 1-2.332 8.292 8.575 8.575 0 0 1-8.496 1.908 1.238 1.238 0 0 1-.51.485 1.229 1.229 0 0 1-1.38-.196 1.192 1.192 0 0 1-.288-1.35 8.472 8.472 0 0 1-1.086-.89 8.661 8.661 0 0 1-5.1-.744 11.926 11.926 0 0 0 2.782-2.623z"/>
                <path fill="#8F95B0" d="M56.926 80.607a1.18 1.18 0 0 1-.07-.914c.101-.302.32-.551.607-.693.17-.086.359-.13.55-.13a8.37 8.37 0 0 1 2.656-4.676 8.234 8.234 0 0 1-.248-2.623l4.459-.739-4.333-.272c.078-.402.187-.798.325-1.184a1.18 1.18 0 0 1-.402-.446 1.19 1.19 0 0 1 .178-1.334c.33-.367.851-.5 1.32-.336a8.371 8.371 0 0 1 3.097-2.64 8.58 8.58 0 0 1 9.163.94 8.332 8.332 0 0 1 2.906 8.634c.433.184.72.597.735 1.062.015.465-.243.896-.663 1.107a1.231 1.231 0 0 1-1 .045 8.369 8.369 0 0 1-1.61 1.932 8.32 8.32 0 0 1-.392 5.345l-5.965-1.55 5.333 2.774c-1.63 2.57-4.536 4.072-7.603 3.93-3.067-.142-5.819-1.906-7.198-4.616a8.432 8.432 0 0 1-.875-2.961 1.204 1.204 0 0 1-.97-.655z"/>
                <path fill="#000" d="M56.926 80.607a1.18 1.18 0 0 1-.07-.914c.101-.302.32-.551.607-.693.17-.086.359-.13.55-.13a8.37 8.37 0 0 1 2.656-4.676 6.983 6.983 0 0 1-.095-.418c.162.114.313.242.45.383.808.89 1.223 2.044 2.016 2.926a5.851 5.851 0 0 0 3.756 1.732 14.391 14.391 0 0 0 4.207-.334 12.477 12.477 0 0 1 3.48-.379l.334.045-.208.191a8.32 8.32 0 0 1-.392 5.345l-5.978-1.55 5.333 2.774c-1.63 2.57-4.536 4.072-7.603 3.93-3.067-.142-5.819-1.906-7.198-4.616a8.432 8.432 0 0 1-.875-2.961 1.204 1.204 0 0 1-.97-.655z"/>
            </g>
            <path fill="#8F95B0" d="M154 22.776a9.159 9.159 0 0 0-5.226.56 7.84 7.84 0 0 1-6.275 0 8.944 8.944 0 0 0-7.38.144 4.644 4.644 0 0 1-2.123.52c-2.992 0-5.48-2.958-5.996-6.86a5.754 5.754 0 0 0 1.496-1.582c1.753-2.775 4.45-4.558 7.517-4.558s5.738 1.748 7.491 4.505a5.812 5.812 0 0 0 4.968 2.683h.08c2.359-.013 4.42 1.862 5.448 4.588z" opacity=".1"/>
            <path fill="#8F95B0" d="M164.731 10.92l-4.783 3.146 2.902-5.48a4.628 4.628 0 0 0-2.894-1.069h-.074a5.48 5.48 0 0 1-.991-.077l-1.626 1.068.696-1.31a5.836 5.836 0 0 1-2.837-2.215l-2.911 1.886 1.832-3.457C152.35 1.297 150.06 0 147.544 0c-3.017 0-5.726 1.863-7.444 4.763-1.046 1.764-2.924 2.81-4.92 2.74h-.146c-3.33 0-6.034 3.915-6.034 8.751 0 4.837 2.705 8.746 6.034 8.746a4.4 4.4 0 0 0 2.102-.543 8.407 8.407 0 0 1 7.303-.147c1.977.91 4.233.91 6.21 0a8.42 8.42 0 0 1 7.237.147 4.43 4.43 0 0 0 2.08.53c3.334 0 6.034-3.915 6.034-8.747a11.455 11.455 0 0 0-1.269-5.32zM54 85.239a13.131 13.131 0 0 0-7.547.813 11.188 11.188 0 0 1-9.064-.022 12.777 12.777 0 0 0-10.657.21c-.946.495-2 .756-3.069.76-4.32 0-7.916-4.323-8.663-10.028a8.252 8.252 0 0 0 2.16-2.31C19.694 70.605 23.618 68 28.024 68c4.406 0 8.28 2.575 10.8 6.585a8.348 8.348 0 0 0 7.201 3.92h.113c3.411-.004 6.39 2.737 7.862 6.734z" opacity=".1"/>
            <path fill="#8F95B0" d="M67.18 66.713l-6.983 4.528 4.239-7.882a6.81 6.81 0 0 0-4.226-1.542h-.112c-.485.008-.97-.03-1.45-.11l-2.357 1.56 1.017-1.887a8.439 8.439 0 0 1-4.14-3.22l-4.239 2.76 2.669-5.015C49.118 52.863 45.779 51 42.108 51c-4.406 0-8.33 2.678-10.863 6.851-1.528 2.55-4.278 4.063-7.2 3.962h-.239c-4.864 0-8.806 5.636-8.806 12.593S18.942 87 23.806 87a6.46 6.46 0 0 0 3.07-.787 12.445 12.445 0 0 1 10.655-.212 10.896 10.896 0 0 0 9.063.024 12.458 12.458 0 0 1 10.565.207 6.476 6.476 0 0 0 3.033.768C65.057 87 69 81.359 69 74.406a16.285 16.285 0 0 0-1.818-7.693zM335 40.779a9.178 9.178 0 0 1 5.226.558 7.839 7.839 0 0 0 6.271 0 8.957 8.957 0 0 1 7.38.144A4.664 4.664 0 0 0 356 42c2.991 0 5.484-2.953 6-6.849a5.687 5.687 0 0 1-1.496-1.58c-1.744-2.778-4.473-4.571-7.53-4.571-3.059 0-5.734 1.745-7.487 4.498-1.064 1.689-2.952 2.71-4.977 2.691h-.075c-2.368-.004-4.434 1.867-5.435 4.59z" opacity=".1"/>
            <path fill="#8F95B0" d="M326.243 27.897l4.783 3.138-2.907-5.48a4.636 4.636 0 0 1 2.894-1.07h.08c.331.004.663-.022.99-.077l1.622 1.068-.696-1.31a5.84 5.84 0 0 0 2.863-2.206l2.902 1.909-1.836-3.457c1.7-2.115 3.964-3.412 6.505-3.412 3.017 0 5.726 1.863 7.444 4.763 1.046 1.764 2.924 2.81 4.92 2.74h.159c3.334 0 6.034 3.915 6.034 8.751 0 4.837-2.7 8.746-6.034 8.746a4.426 4.426 0 0 1-2.101-.543 8.407 8.407 0 0 0-7.303-.147c-1.976.91-4.23.91-6.206 0a8.427 8.427 0 0 0-7.242.147 4.416 4.416 0 0 1-2.079.53c-3.33 0-6.034-3.915-6.034-8.747a11.458 11.458 0 0 1 1.242-5.343z" opacity=".1"/>
            <path fill="#DADCE5" d="M249 295l-80-1.002.238-2L173.103 259h70.258l5.168 32.997.395 2.504z"/>
            <path fill="#6A7296" d="M249 296h-39.96l-40.04-.603.238-2.397h79.367z" opacity=".2"/>
            <path fill="#DADCE5" d="M155 294h106v3H155z"/>
            <path fill="#6A7296" d="M363 56.684A6.66 6.66 0 0 0 356.371 50H60.63A6.66 6.66 0 0 0 54 56.693V236h309V56.684z"/>
            <path fill="#DADCE5" d="M54 234v21.281c0 3.711 2.968 6.719 6.629 6.719H356.37c3.661 0 6.629-3.008 6.629-6.719V234H54z"/>
            <path fill="#FFF" d="M67 62h285v161H67z"/>
            <path fill="#8F95B0" d="M208.995 254a6.999 6.999 0 0 0 6.056-3.471l-3.848-.649 4.157.027a6.989 6.989 0 0 0 .131-5.54l-5.574 2.886 5.143-3.775a7.007 7.007 0 0 0-12.426.61 6.99 6.99 0 0 0 .855 7.221 6.999 6.999 0 0 0 5.506 2.691z"/>
            <path fill="#6A7296" d="M216 262l32 32-4.911-32z" opacity=".2"/>
            <path fill="#444053" d="M67 61h285v10H67z" opacity=".1"/>
            <rect width="86" height="6" x="165" y="63" fill="#8F95B0" opacity=".3" rx=".58"/>
            <path fill="#3F3D56" fill-rule="nonzero" d="M248.849 66.506h-.184l-.066-.059a1.53 1.53 0 0 0 .351-.976A1.479 1.479 0 0 0 247.466 64 1.479 1.479 0 0 0 246 65.489a1.479 1.479 0 0 0 1.479 1.476c.355-.002.7-.128.972-.357l.066.059v.184L249.66 68l.34-.345-1.151-1.15zm-1.37 0a1.03 1.03 0 0 1-.955-.636 1.039 1.039 0 0 1 .221-1.13 1.027 1.027 0 0 1 1.123-.226c.386.16.637.537.637.957a1.03 1.03 0 0 1-.298.733 1.02 1.02 0 0 1-.728.302z"/>
            <circle cx="71.5" cy="65.5" r="1.5" fill="#FA5959" opacity=".8"/>
            <circle cx="76.5" cy="65.5" r="1.5" fill="#FED253" opacity=".8"/>
            <circle cx="80.5" cy="65.5" r="1.5" fill="#8CCF4D" opacity=".8"/>
            <g fill="#8F95B0">
                <path d="M305.95 160.44c-4.77-2.006-10.071-2.002-14.586.5-4.515 2.503-7.326 6.996-8.154 12.106a13.434 13.434 0 0 0 4.844 2.386c4.45 1.169 9.289.06 12.887-2.955 3.599-3.015 5.48-7.534 5.01-12.036z"/>
                <path fill-rule="nonzero" d="M282.88 175.63a3.285 3.285 0 0 1-.727-.01 2.536 2.536 0 0 1-1.045-.451 2.583 2.583 0 0 0-2.393-2.437 2.57 2.57 0 0 0-2.705 2.073 2.584 2.584 0 0 0 1.727 2.947c.25.08.51.126.772.135.337.007.666.11.947.297a5.187 5.187 0 0 0 1.8.793c.653.135 1.317.207 1.984.215a23.875 23.875 0 0 0 2.234 6.796 9.674 9.674 0 0 0-2.174 1.711 4.4 4.4 0 0 0-.8 1.167c-.097.039-.191.083-.283.132a2.58 2.58 0 0 0-1.136 3.23 2.576 2.576 0 1 0 4.938-1.345c-.1-.608.148-1.22.641-1.588.18-.13.366-.25.559-.359a23.177 23.177 0 0 0 7.326 6.895c-.756 1.77-.95 3.352-.6 4.794-.045.072-.081.148-.108.228a2.584 2.584 0 0 0 1.398 3.368 2.57 2.57 0 0 0 3.175-1.028 2.583 2.583 0 0 0-.514-3.304 1.695 1.695 0 0 1-.518-1.8 7.23 7.23 0 0 1 .279-.754c4.192 1.566 8.274 1.797 12.177-.07l-11.191-20.19c-5.146 2.494-11.303 1.648-15.764-1.446zm36.82-7.38c-.09.051-.178.108-.263.17a4.856 4.856 0 0 0-1.413.06 9.606 9.606 0 0 0-2.603.937 24.397 24.397 0 0 0-4.578-5.493c.347-.57.638-1.17.87-1.796a5.596 5.596 0 0 0 .282-2.034 1.514 1.514 0 0 1 .25-.857 2.583 2.583 0 0 0-.795-3.518 2.57 2.57 0 0 0-3.529.71 2.583 2.583 0 0 0 .637 3.55 2.45 2.45 0 0 1-.171 1.125c-.095.243-.205.48-.327.711.258 5.42-2.334 10.997-7.17 14.035l11.201 20.208c3.637-2.311 5.618-5.915 6.513-10.29.285.048.53.098.743.152.682.168 1.197.73 1.306 1.424a2.583 2.583 0 0 0 2.527 2.183 2.57 2.57 0 0 0 2.556-2.14 2.584 2.584 0 0 0-1.701-2.874 2.443 2.443 0 0 0-.4-.1c-.148-.024-.25-.03-.25-.03-1.041-1.065-2.478-1.735-4.4-2.022a23.177 23.177 0 0 0-1.964-9.866c.186-.1.378-.19.575-.27a1.721 1.721 0 0 1 1.73.274 2.573 2.573 0 0 0 3.962-3.092 2.623 2.623 0 0 0-1.55-1.343 2.61 2.61 0 0 0-2.038.185z"/>
            </g>
            <g fill="#8F95B0">
                <path d="M322.428 104.222c-1.922 2.382-2.769 5.351-2.048 8.24.72 2.89 2.862 5.114 5.677 6.315a8.074 8.074 0 0 0 2.152-2.368 8.124 8.124 0 0 0 .36-7.643 8.086 8.086 0 0 0-6.141-4.544z"/>
                <path fill-rule="nonzero" d="M327.447 120.035a1.97 1.97 0 0 1-.124.424c-.104.21-.255.396-.443.543a1.633 1.633 0 0 0-1.852 1.03c-.269.744.072 1.56.795 1.9a1.641 1.641 0 0 0 2.256-.993 1.09 1.09 0 0 1 .334-.51c.315-.26.576-.577.77-.932.189-.362.341-.74.456-1.13a15.22 15.22 0 0 0 4.434-.27c.145.54.37 1.057.666 1.534.151.245.343.463.566.647.008.062.019.125.033.186.19.764.94 1.262 1.746 1.158.805-.104 1.413-.776 1.415-1.565.002-.79-.602-1.447-1.407-1.532a1.001 1.001 0 0 1-.845-.618 3.518 3.518 0 0 1-.123-.382 14.701 14.701 0 0 0 5.332-3.237c.935.713 1.85 1.067 2.77 1.083a.65.65 0 0 0 .119.098c.066.05.138.095.213.134.689.357 1.55.171 2.032-.439a1.523 1.523 0 0 0-.093-2.016 1.627 1.627 0 0 0-2.061-.204c-.35.237-.808.248-1.163.029a4.406 4.406 0 0 1-.405-.278c1.627-2.216 2.437-4.572 1.962-7.142l-13.923 3.471c.646 3.394-.874 6.87-3.46 9.01zm1.644-22.69c.016.061.036.121.059.18-.107.268-.173.55-.197.836-.038.56.006 1.122.133 1.668a15.554 15.554 0 0 0-4.04 1.842 6.283 6.283 0 0 0-.932-.783 3.472 3.472 0 0 0-1.171-.476.928.928 0 0 1-.472-.277c-.593-.612-1.586-.643-2.236-.072-.65.572-.72 1.538-.156 2.175.564.637 1.553.712 2.229.17.235.039.456.132.646.271.13.093.254.193.371.3 3.285.677 6.196 3.046 7.218 6.342l13.937-3.475c-.785-2.482-2.616-4.193-5.086-5.385.076-.159.145-.295.213-.412a1.109 1.109 0 0 1 1.067-.547c.78.076 1.509-.41 1.723-1.147a1.523 1.523 0 0 0-.86-1.823 1.642 1.642 0 0 0-2 .558c-.048.069-.09.142-.125.218-.04.084-.06.142-.06.142-.809.447-1.446 1.186-1.934 2.268a14.701 14.701 0 0 0-6.227-.356 3.34 3.34 0 0 1-.067-.378c-.042-.377.13-.749.449-.971.614-.428.847-1.21.56-1.88-.288-.671-1.02-1.05-1.758-.912-.435.085-.817.339-1.059.702a1.557 1.557 0 0 0-.225 1.222z"/>
            </g>
            <g fill="#8F95B0">
                <path d="M209.99 183.919c-.882-1.512-2.334-2.609-4.099-2.888-1.765-.28-3.484.314-4.79 1.48a4.48 4.48 0 0 0 .821 1.627c.971 1.227 2.53 1.938 4.153 1.894 1.622-.044 3.092-.837 3.915-2.113z"/>
                <path fill-rule="nonzero" d="M199.424 182.962a1.256 1.256 0 0 1-.214-.161.9.9 0 0 1-.208-.354c.275-.373.208-.886-.156-1.196a1.009 1.009 0 0 0-1.276-.024.866.866 0 0 0-.158 1.19c.056.077.123.147.199.207a.643.643 0 0 1 .214.29c.076.223.196.43.355.613.163.18.344.346.54.494a7.923 7.923 0 0 0-.882 2.36 3.852 3.852 0 0 0-1.036-.006 1.696 1.696 0 0 0-.504.145 1.212 1.212 0 0 0-.114-.026c-.483-.076-.944.198-1.073.64-.129.44.114.91.566 1.092.453.182.971.02 1.209-.378a.61.61 0 0 1 .551-.296c.083.003.166.011.248.023a7.788 7.788 0 0 0 .609 3.505c-.628.321-1.046.714-1.27 1.187a.896.896 0 0 0-.21.119.865.865 0 0 0-.225 1.154c.237.39.736.565 1.178.414.442-.15.696-.584.6-1.022a.57.57 0 0 1 .255-.608 2.67 2.67 0 0 1 .255-.147c.89 1.352 2.05 2.311 3.636 2.654l1.269-8.01c-2.098-.444-3.736-2.028-4.358-3.859zm12.627 6.054a1.134 1.134 0 0 0-.117-.01 1.872 1.872 0 0 0-.434-.294 3.824 3.824 0 0 0-.987-.314 8.096 8.096 0 0 0-.11-2.516 3.91 3.91 0 0 0 .667-.303c.214-.132.4-.301.547-.498a.552.552 0 0 1 .27-.18c.488-.168.74-.675.563-1.143-.175-.468-.713-.725-1.21-.58-.497.146-.772.642-.619 1.117a.87.87 0 0 1-.307.272c-.084.046-.17.087-.26.124-1.156 1.547-3.196 2.512-5.326 2.286l-1.27 8.018c1.608.163 3.017-.394 4.279-1.4.074.075.135.143.187.204.164.196.19.464.064.679-.226.386-.119.875.254 1.155.372.28.9.269 1.247-.027a.865.865 0 0 0 .052-1.28c-.038-.039-.067-.063-.067-.063-.067-.521-.342-1.021-.848-1.522a7.788 7.788 0 0 0 1.662-3.145c.078.013.156.03.232.052a.64.64 0 0 1 .452.455c.102.417.496.717.947.721.452.005.841-.287.935-.702a.888.888 0 0 0-.155-.71 1.01 1.01 0 0 0-.648-.396z"/>
            </g>
            <g fill="#8F95B0">
                <path d="M130.196 129.918c3.542-1.124 6.367-3.547 7.53-6.926 1.164-3.379.43-7.027-1.67-10.093a9.883 9.883 0 0 0-3.77.956 9.634 9.634 0 0 0-5.403 7.442c-.42 3.23.823 6.466 3.313 8.62z"/>
                <path fill-rule="nonzero" d="M134.827 111.178c.116-.127.244-.241.385-.34.23-.143.49-.232.76-.26.646.65 1.674.71 2.397.143a1.83 1.83 0 0 0 .444-2.372 1.805 1.805 0 0 0-2.288-.727 2.029 2.029 0 0 0-.468.296c-.18.156-.4.258-.635.294-.462.06-.909.21-1.316.438-.405.24-.787.517-1.14.83a16.659 16.659 0 0 0-4.36-2.506 6.903 6.903 0 0 0 .337-1.93c.01-.336-.033-.67-.129-.992a1.822 1.822 0 0 0-.835-2.438 1.816 1.816 0 0 0-2.321.659 1.828 1.828 0 0 0 .366 2.391c.337.272.495.71.41 1.138a4.276 4.276 0 0 1-.125.454 16.196 16.196 0 0 0-7.073-.14c-.435-1.288-1.076-2.21-1.935-2.801a.762.762 0 0 0-.051-.17 1.805 1.805 0 0 0-2.313-1.103 1.83 1.83 0 0 0-1.18 2.046c.158.88.929 1.51 1.819 1.49.479-.015.919.26 1.116.698.068.153.14.317.208.528-2.931 1.169-5.178 2.986-6.345 5.82l15.337 5.28c1.524-3.752 5.147-6.231 8.935-6.726zm-15.823 21.357c.023-.07.042-.141.057-.213.27-.199.51-.435.712-.703.39-.529.7-1.11.924-1.728 1.614.481 3.29.72 4.976.709.085.463.215.917.388 1.355.192.447.466.855.806 1.202.146.157.24.355.272.568a1.807 1.807 0 0 0 2.067 1.469 1.828 1.828 0 0 0 1.515-2.048 1.808 1.808 0 0 0-2-1.56 1.723 1.723 0 0 1-.438-.673 4.784 4.784 0 0 1-.162-.528c-2.679-2.721-3.939-6.88-2.831-10.77l-15.352-5.286c-.82 2.94-.166 5.772 1.418 8.492-.172.11-.323.2-.46.274-.437.235-.97.185-1.353-.127a1.808 1.808 0 0 0-2.348.054 1.83 1.83 0 0 0-.335 2.336 1.805 1.805 0 0 0 2.496.563c.09-.057.145-.103.145-.103 1.046.065 2.113-.266 3.254-1.027a16.196 16.196 0 0 0 5.66 4.244c-.05.142-.11.28-.175.415a1.218 1.218 0 0 1-1.035.678 1.824 1.824 0 0 0-1.711 1.505 1.817 1.817 0 0 0 1.087 1.999c.464.187.985.175 1.442-.032.457-.206.811-.59.98-1.065z"/>
            </g>
            <g fill="#8F95B0">
                <path d="M98.67 198.814c1.837-2.074 2.752-4.771 2.27-7.509-.483-2.737-2.265-4.958-4.701-6.279a7.164 7.164 0 0 0-2.042 2.044c-1.359 2.058-1.635 4.715-.736 7.076.9 2.361 2.855 4.114 5.21 4.668z"/>
                <path fill-rule="nonzero" d="M95.852 184.069a1.78 1.78 0 0 1 .132-.37c.101-.182.243-.337.414-.456a1.395 1.395 0 1 0-.728-2.182 1.553 1.553 0 0 0-.204.371.96.96 0 0 1-.319.433 2.804 2.804 0 0 0-.722.782 5.63 5.63 0 0 0-.458.978 12.881 12.881 0 0 0-3.867-.056 5.25 5.25 0 0 0-.492-1.415 2.386 2.386 0 0 0-.456-.616 1.396 1.396 0 1 0-1.65 1.446c.328.056.598.291.699.608.035.115.063.232.085.35a12.51 12.51 0 0 0-4.812 2.534c-.773-.7-1.547-1.077-2.345-1.154a.582.582 0 0 0-.098-.095 1.395 1.395 0 1 0-.22 2.249.915.915 0 0 1 1.01.053c.103.076.212.16.337.275-1.538 1.87-2.374 3.92-2.105 6.248l12.288-2.167c-.37-3.075 1.145-6.078 3.51-7.816zm-2.702 20.157a1.54 1.54 0 0 0-.04-.165c.108-.232.18-.48.217-.734a5.213 5.213 0 0 0-.021-1.498 13.163 13.163 0 0 0 3.613-1.375c.23.278.486.533.765.762.296.228.632.399.99.504a.82.82 0 0 1 .394.28 1.395 1.395 0 1 0 .27-2.02 1.324 1.324 0 0 1-.546-.286 3.66 3.66 0 0 1-.306-.293c-2.815-.824-5.21-3.136-5.914-6.149l-12.3 2.17c.543 2.27 2.037 3.92 4.115 5.15a5.17 5.17 0 0 1-.207.354.944.944 0 0 1-.958.418 1.395 1.395 0 1 0 .853 2.23 1.322 1.322 0 0 0 .18-.309c.728-.345 1.323-.963 1.807-1.896 1.72.638 3.56.889 5.39.735.018.114.03.228.036.343a.932.932 0 0 1-.444.837 1.394 1.394 0 0 0 .884 2.575 1.416 1.416 0 0 0 1.222-1.633z"/>
            </g>
            <path fill="url(#c)" d="M304.82 335.115a4.293 4.293 0 0 0-.972-1.084c-1.956-1.857-2.865-4.583-3.348-7.255-.484-2.672-.623-5.397-1.397-8.01a26.494 26.494 0 0 0-1.576-3.9c-.447-.963-1.011-2.848-1.83-3.522a1.206 1.206 0 0 0-.565-.275 6.677 6.677 0 0 0-1.62-2.168c-1.28-1.165-2.843-2.091-3.698-3.598a8.105 8.105 0 0 0-.864-1.48c-.577-.639-1.49-.9-2.023-1.574-.694-.873-.537-2.123-.448-3.234.09-1.111 0-2.443-.958-3.027-.573-.356-1.311-.32-1.907-.635-.895-.45-1.249-1.583-1.23-2.595.017-1.012.33-1.997.411-3.01.25-3.22-1.862-6.422-1.047-9.544.309-1.183 1.016-2.208 1.54-3.31.182-.367.332-.75.447-1.143 1.397.557 2.865.912 4.36 1.057-2.466-5.56-1.84-12.018-2.99-17.992l.148-.202a9.402 9.402 0 0 0 1.889-5.335c0-2.222-1.034-4.3-1.5-6.477-.398-1.848-.38-3.783-.895-5.6a16.977 16.977 0 0 0-1.415-3.247 63.699 63.699 0 0 0-1.759-3.072c-.573-1.908-1.147-3.815-1.723-5.722-.806-2.676-1.634-5.397-3.201-7.71-.573-.845-.748-2.563-1.63-3.076a3.927 3.927 0 0 0-2.327-.41c-1.245-.701-2.337-1.713-2.494-3.098a3.019 3.019 0 0 1 .09-.9h.152c1.97-.18 2.968-1.925 3.993-3.454 1.656-2.474 1.025-5.82 0-8.637a5.855 5.855 0 0 0-1.343-2.379c-1.437-1.35-3.71-1.052-5.564-1.705-.622-.216-1.204-.544-1.84-.697-1.23-.288-2.52.117-3.648.688-1.128.572-2.18 1.31-3.362 1.759-1.182.45-2.641.805-2.932 2.024a2.26 2.26 0 0 0 .098 1.228 4.58 4.58 0 0 0 1.384 2.006 8.046 8.046 0 0 0-.13 6.71 7.985 7.985 0 0 0 4.996 4.454c.34.549.658 1.107.949 1.678.519 1.007.958 2.195.778 3.274-.323.346-.623.714-.895 1.102-1.285 1.8-2.014 3.91-2.686 6.014a63.96 63.96 0 0 0-2.162 8.218c-1.092 2.334-2.426 4.565-3.218 7.017a15.691 15.691 0 0 1-4.2-.567l-3.777-.86c-1.317-.3-2.686-.624-3.716-1.497-.546-.45-.971-1.048-1.526-1.493-.556-.446-1.67-.967-2.279-.598a1.792 1.792 0 0 0-.309.238c-.555-1.129-1.083-2.249-1.728-3.342-.926-1.53-2.305-2.928-4.051-3.22a4.107 4.107 0 0 0-3.04.71c-1.02.729-1.66 2.25-.895 3.275.191.228.4.441.622.638.519.6.982 1.246 1.384 1.93a9.804 9.804 0 0 0 6.038 3.94l-.156.45c-.318.936-.994 2.065-.824 3.036l16.805 5.78c1.078.44 2.222.694 3.384.751a5.441 5.441 0 0 0 1.343-.18v.9c.045 5.933-.895 11.825-1.07 17.753-.031 1.084 0 2.25.68 3.095.761.927 2.113 1.11 3.29.9.284-.048.562-.111.833-.19.398 1.493.686 3.013.86 4.548l1.11 8.033c.143.823.201 1.658.175 2.492-.13 1.885-1.12 3.572-1.836 5.312-.716 1.741-1.141 3.824-.201 5.452.295.504.703.931.967 1.453.335.808.488 1.68.447 2.555.069 2.423.135 4.848.197 7.277a.816.816 0 0 0-.564.113c-.93.728-.828 4.196-.895 5.271-.072 1.8 0 3.635-.099 5.452a32.627 32.627 0 0 1-1.168 7.237 4.637 4.637 0 0 1-1.025 2.074 4.353 4.353 0 0 1-1.822.949 20.718 20.718 0 0 1-6.898.944c-.945-.031-1.93-.121-2.807.239s-1.585 1.35-1.267 2.249c.273.755 1.101 1.115 1.849 1.399a29.268 29.268 0 0 1 4.924 2.276c.604.413 1.24.775 1.903 1.084a9.77 9.77 0 0 0 1.96.485l7.937 1.377c1.625.279 3.581.45 4.615-.9.56-.728.64-1.718.614-2.645-.045-1.799-.403-3.63-.17-5.429a16.77 16.77 0 0 1 .832-3.117c.791-2.36 1.585-4.718 2.382-7.075.796-2.366 1.602-4.754 1.911-7.237.112-.9.103-1.925-.582-2.488a1.582 1.582 0 0 0-.59-.306c-.028-2.168-.31-4.34-.189-6.508.032-.54.085-1.08.13-1.624.415.396.786.837 1.106 1.314.765 1.205 1.047 2.797 2.216 3.598.993.684 2.466.648 3.164 1.637.225.38.394.79.502 1.22a8.696 8.696 0 0 0 1.79 2.855c.267.988.638 1.944 1.106 2.852.66 1.4 1.316 2.796 1.97 4.188a48.932 48.932 0 0 0 2.238 4.394c.625.898 1.13 1.875 1.5 2.906.63 2.222-.399 4.66-2.028 6.297-1.63 1.637-3.778 2.577-5.896 3.455a1.66 1.66 0 0 0-.6.36c-.183.218-.28.496-.273.782 0 1.039.85 1.93 1.827 2.249a6.8 6.8 0 0 0 3.057.112c5.721-.697 11.424-2.1 16.482-4.893a5.823 5.823 0 0 0 1.966-1.525c.53-.661.655-1.562.326-2.344z"/>
            <path fill="#2F2E41" d="M280.757 233.422a65.321 65.321 0 0 1 2.581 4.441 16.55 16.55 0 0 1 1.364 3.165c.5 1.766.486 3.65.86 5.452.431 2.118 1.438 4.14 1.438 6.312a9.223 9.223 0 0 1-1.816 5.191A24.368 24.368 0 0 1 281.39 262a84.682 84.682 0 0 1-5.37-27.02c-.043-1.28-.052-2.6.405-3.796.28-.75 1.622-2.807 2.487-2 .314.297.395 1.63.59 2.075.362.754.782 1.478 1.256 2.163z"/>
            <path fill="#000" d="M280.757 233.422a65.321 65.321 0 0 1 2.581 4.441 16.55 16.55 0 0 1 1.364 3.165c.5 1.766.486 3.65.86 5.452.431 2.118 1.438 4.14 1.438 6.312a9.223 9.223 0 0 1-1.816 5.191A24.368 24.368 0 0 1 281.39 262a84.682 84.682 0 0 1-5.37-27.02c-.043-1.28-.052-2.6.405-3.796.28-.75 1.622-2.807 2.487-2 .314.297.395 1.63.59 2.075.362.754.782 1.478 1.256 2.163z" opacity=".1"/>
            <path fill="#D0D2D5" d="M162.698 172.433c-3.505 3.497-3.926 5.037-6.03 5.732-2.105.695-9.677 4.612-7.298 8.954l6.398 4.223.186.124.98 2.939-9.678 17.209s-15.95-7.286-17.515 3.492c-1.564 10.778-.571 13.722-.992 19.476-.421 5.754.137 7.418-1.267 7.418-1.405 0-1.959-3.78-1.959-3.78s-.089-.173-.244-.496c-2.087-4.333-16.252-36.144 6.438-58.01 0 0 10.51-.69 13.04-12.73 1.746-8.321 7.852-7.604 11.91-5.909a13.464 13.464 0 0 1 3.643 2.138c.984.93 1.86 1.97 2.61 3.098 1.156 1.824 1.785 4.112-.222 6.122z"/>
            <path fill="#000" d="M156.01 192.103l.99 2.96-9.785 17.333s-16.128-7.338-17.71 3.517c-1.582 10.855-.578 13.82-1.004 19.615-.425 5.796.14 7.472-1.28 7.472-1.421 0-1.981-3.807-1.981-3.807s-.09-.174-.247-.5c-.712-5.42-4.323-37.13 8.768-35.445 0 0 10.623 4.94 12.32 2.969 1.345-1.56 7.312-10.535 9.74-14.217l.189.103zM163 165.465l-6.632 7.586s-7.701 10.375-9.3 9.935a7.406 7.406 0 0 0-1.455-.17 2.831 2.831 0 0 1-2.424-1.816 2.862 2.862 0 0 1 .587-2.983c2.627-2.774 7.467-8.04 7.784-9.21.317-1.17 3.399-6.297 4.942-8.807a13.931 13.931 0 0 1 3.775 2.233c1.026.97 1.94 2.054 2.723 3.232z" opacity=".1"/>
            <path fill="#8F95B0" d="M345.615 272.072c-1.1 2.205-6.736 10.475-9.2 14.088l-1.155 1.701s-.449 2.988-7.809-.715-180.279-76.817-180.279-76.817L146 206.801 154.532 194l189.525 73.375s2.981 1.849 1.558 4.697z"/>
            <path fill="#000" d="M337 286.167l-1.152 1.697s-.448 2.98-7.791-.714c-7.344-3.694-179.888-76.63-179.888-76.63L147 207l190 79.167z" opacity=".1"/>
            <path fill="#FBBEBE" d="M232.21 238.13c-1.668-.292-3.52-.15-4.816 1.01a4.341 4.341 0 0 0-1.382 2.812c-.111 1.265.576 2.768 1.762 2.863.285.004.57-.016.853-.059.749-.003 1.497.064 2.235.201 2.948.297 5.848-.956 7.777-3.36 1.02-1.37-.324-1.964-1.527-2.238-1.647-.374-3.255-.945-4.902-1.228z"/>
            <path fill="#3F3D56" d="M262.663 278.426l1.078 7.952c.137.82.193 1.654.165 2.486-.126 1.873-1.087 3.552-1.778 5.285-.691 1.733-1.113 3.809-.196 5.415.283.501.679.93.935 1.449.326.802.475 1.67.435 2.54l.295 11.282c3.356.238 6.724.218 10.077-.058a.547.547 0 0 0 .366-.118.63.63 0 0 0 .126-.41c.147-2.64-.296-5.285-.153-7.925.053-.965.183-1.927.2-2.897.053-3.93-1.817-7.78-1.252-11.665.178-.98.41-1.95.696-2.902 1.787-6.77 1.408-13.881 1.013-20.871a.506.506 0 0 0-.087-.316.456.456 0 0 0-.235-.131c-3.86-1.202-8.041-.377-11.207 2.211-.474.397-1.67.78-1.982 1.255-.435.658.134 1.317.387 2.017a26.519 26.519 0 0 1 1.117 5.401z"/>
            <path fill="#000" d="M262.663 278.426l1.078 7.952c.137.82.193 1.654.165 2.486-.126 1.873-1.087 3.552-1.778 5.285-.691 1.733-1.113 3.809-.196 5.415.283.501.679.93.935 1.449.326.802.475 1.67.435 2.54l.295 11.282c3.356.238 6.724.218 10.077-.058a.547.547 0 0 0 .366-.118.63.63 0 0 0 .126-.41c.147-2.64-.296-5.285-.153-7.925.053-.965.183-1.927.2-2.897.053-3.93-1.817-7.78-1.252-11.665.178-.98.41-1.95.696-2.902 1.787-6.77 1.408-13.881 1.013-20.871a.506.506 0 0 0-.087-.316.456.456 0 0 0-.235-.131c-3.86-1.202-8.041-.377-11.207 2.211-.474.397-1.67.78-1.982 1.255-.435.658.134 1.317.387 2.017a26.519 26.519 0 0 1 1.117 5.401z" opacity=".1"/>
            <path fill="#3F3D56" d="M282.76 275.758c-.528 1.094-1.235 2.111-1.55 3.286-.821 3.102 1.302 6.303 1.05 9.481-.082 1.004-.393 1.981-.415 2.985-.023 1.004.347 2.12 1.239 2.584.6.306 1.352.275 1.915.626.951.58 1.06 1.9.965 3.007-.095 1.107-.253 2.346.45 3.21.537.67 1.456.932 2.033 1.567.343.455.635.947.87 1.467.86 1.504 2.433 2.422 3.722 3.602 1.289 1.18 2.38 2.908 1.803 4.542-.424 1.198-1.614 1.936-2.758 2.499a29.282 29.282 0 0 1-6.566 2.318 1.588 1.588 0 0 1-.753.04 1.609 1.609 0 0 1-.658-.45c-1.33-1.3-2.704-2.665-3.317-4.416a4.53 4.53 0 0 0-.505-1.206c-.703-.986-2.185-.95-3.186-1.63-1.172-.797-1.455-2.377-2.222-3.57-.766-1.193-1.888-1.904-2.704-2.953-1.379-1.747-1.717-4.08-2.703-6.073-.42-.847-.956-1.64-1.29-2.522a13.754 13.754 0 0 1-.617-3.259c-.635-5.258-2.253-10.552-1.235-15.757.226-1.143.573-2.25.717-3.43.248-2.04-.144-4.128.158-6.163.015-.518.265-1 .68-1.31.244-.11.508-.163.775-.158a52.908 52.908 0 0 1 8.013.18c1.352.13 2.866.406 3.677 1.508.69.946.654 2.21.875 3.359.275 1.413.991 2.183 1.744 3.29.752 1.108.347 2.202-.208 3.346z"/>
            <path fill="#2F2E41" d="M273.32 312.86c.71 0 1.496-.045 2.045.403.683.56.692 1.584.584 2.457-.315 2.453-1.12 4.813-1.924 7.163l-2.392 6.988a16.351 16.351 0 0 0-.836 3.08c-.234 1.79.126 3.58.17 5.371 0 .896-.058 1.89-.62 2.61-1.016 1.303-2.998 1.15-4.63.895l-7.962-1.342a9.506 9.506 0 0 1-1.97-.48 13.778 13.778 0 0 1-1.91-1.07 29.472 29.472 0 0 0-4.945-2.238c-.746-.277-1.582-.63-1.852-1.378-.32-.896.39-1.88 1.272-2.239.881-.358 1.866-.268 2.819-.241 2.344.074 4.683-.24 6.923-.932a4.385 4.385 0 0 0 1.825-.94 4.47 4.47 0 0 0 1.052-2.108 31.29 31.29 0 0 0 1.205-7.163c.095-1.79.032-3.58.104-5.371.045-1.061-.059-4.477.876-5.207.715-.546 3.655.963 4.622 1.182a22.57 22.57 0 0 0 5.543.56zM299.063 317.716c.78 2.598.902 5.346 1.406 8.017.505 2.671 1.397 5.397 3.367 7.256.383.306.714.674.978 1.088a2.306 2.306 0 0 1-.338 2.372 5.922 5.922 0 0 1-1.979 1.529c-5.088 2.793-10.816 4.203-16.589 4.902a6.948 6.948 0 0 1-3.073-.114c-.983-.335-1.852-1.224-1.834-2.267a1.16 1.16 0 0 1 .27-.785c.175-.161.383-.283.608-.358 2.128-.88 4.286-1.837 5.931-3.46 1.645-1.624 2.677-4.081 2.042-6.285a12.462 12.462 0 0 0-1.519-2.907 49.25 49.25 0 0 1-2.253-4.395l-1.983-4.185c-.582-1.225-1.168-2.485-1.267-3.837a18.194 18.194 0 0 0 7.31-1.179 11.482 11.482 0 0 0 3.006-1.814c.766-.644 1.465-1.846 2.497-1.007.829.672 1.352 2.563 1.838 3.52a25.942 25.942 0 0 1 1.582 3.909z"/>
            <path fill="#FBBEBE" d="M270.42 215.213c.204 1.73 1.931 2.87 3.58 3.556L263.564 222c.673-1.253.13-2.785-.539-4.056a22.856 22.856 0 0 0-1.857-2.889c-.103-.14-.219-.315-.144-.477a.518.518 0 0 1 .292-.221c2.146-.929 4.357-1.889 6.702-2.227.678-.094 1.96-.356 2.466.311.506.667-.162 1.974-.065 2.772z"/>
            <path fill="#000" d="M270.42 215.213c.204 1.73 1.931 2.87 3.58 3.556L263.564 222c.673-1.253.13-2.785-.539-4.056a22.856 22.856 0 0 0-1.857-2.889c-.103-.14-.219-.315-.144-.477a.518.518 0 0 1 .292-.221c2.146-.929 4.357-1.889 6.702-2.227.678-.094 1.96-.356 2.466.311.506.667-.162 1.974-.065 2.772z" opacity=".1"/>
            <circle cx="265" cy="209" r="8" fill="#FBBEBE"/>
            <path fill="#2F2E41" d="M258.67 274.274c.76.916 2.098 1.095 3.267.894 2.734-.447 4.97-2.47 7.646-3.2 3.28-.893 6.753.256 9.85 1.663 3.1 1.408 6.18 3.128 9.567 3.369-3.063-6.863-1.311-15.12-4.24-22.041-.716-1.693-1.717-3.324-1.877-5.156-.2-2.275.93-4.468 1.103-6.73.16-2.014-.445-4.02-1.023-5.942l-2.142-7.077c-.8-2.64-1.623-5.326-3.174-7.596-.574-.835-.747-2.529-1.618-3.034-1.903-1.103-4.788.286-6.85.362-2.063.076-3.943 1.55-5.148 3.217-1.276 1.76-2 3.856-2.667 5.93a56.603 56.603 0 0 0-2.37 9.485c-.066.483-.124.965-.168 1.452-.445 4.589.204 9.204.24 13.816v.03c.044 5.85-.89 11.663-1.063 17.507-.017 1.068.01 2.234.667 3.051z"/>
            <path fill="#000" d="M258.4 253c1.563-.388 2.976-1.382 4.19-2.47a17.33 17.33 0 0 0 2.78-3.122 22.089 22.089 0 0 0 2.396-4.937 56.935 56.935 0 0 0 3.17-14.392c.118-1.338.155-2.774-.656-3.835a3.312 3.312 0 0 0-3.963-.945c-1.069.512-1.762 1.552-2.405 2.546-1.272 1.971-2.554 3.97-3.374 6.163-.362.973-.63 1.972-.982 2.948-.36.963-.774 1.906-1.241 2.823-.068.482-.127.963-.173 1.45-.42 4.58.222 9.169.259 13.771z" opacity=".1"/>
            <path fill="#2F2E41" d="M270.286 223.244c.802 1.054.766 2.494.654 3.805a56.643 56.643 0 0 1-3.136 14.291 21.78 21.78 0 0 1-2.37 4.943 17.366 17.366 0 0 1-2.751 3.1c-1.524 1.373-3.379 2.6-5.444 2.617a10.48 10.48 0 0 1-3.387-.73l-16.825-5.66c-.17-.948.506-2.056.824-2.968l.897-2.626c.255-.726.55-1.51 1.218-1.904.668-.395 1.725.146 2.28.584.556.439.978 1.014 1.524 1.462 1.035.85 2.402 1.169 3.72 1.461l3.776.837c1.37.37 2.783.557 4.203.554 1.053-3.18 3.056-5.98 4.19-9.132.349-.966.613-1.962.976-2.928.807-2.179 2.079-4.158 3.338-6.12.632-.983 1.317-2.015 2.38-2.529a3.264 3.264 0 0 1 3.933.943zM267.305 210.107a4.034 4.034 0 0 0-.48-1.497 1.257 1.257 0 0 0-1.363-.6c-.798.25-1.066 1.485-1.901 1.526-.563.027-.967-.545-1.144-1.08-.177-.536-.273-1.149-.695-1.525a2.588 2.588 0 0 0-.99-.454c-1.937-.613-3.94-1.743-4.584-3.671a2.196 2.196 0 0 1-.104-1.23c.295-1.221 1.815-1.589 2.973-2.029 1.157-.44 2.27-1.193 3.404-1.765 1.135-.572 2.451-.976 3.7-.685.633.199 1.256.43 1.865.694 1.88.653 4.18.35 5.638 1.706a5.822 5.822 0 0 1 1.361 2.378c1.017 2.823 1.662 6.172-.022 8.65-1.04 1.53-2.047 3.276-4.045 3.462-2.324.196-3.245-1.91-3.613-3.88z"/>
            <g fill="#000" opacity=".1">
                <path d="M263.593 207.354c-.17-.516-.261-1.107-.662-1.47a2.48 2.48 0 0 0-.95-.437c-1.866-.59-3.784-1.68-4.407-3.54a2.164 2.164 0 0 1-.096-1.185c.042-.187.12-.364.23-.52-.71.31-1.329.721-1.503 1.447-.08.397-.046.809.1 1.186.62 1.86 2.541 2.949 4.403 3.54.344.076.668.225.95.437.405.363.493.95.667 1.47.174.52.558 1.067 1.098 1.041.54-.026.802-.52 1.147-.936-.475-.061-.82-.551-.977-1.033zM271.753 212.674c-2.24.206-3.125-1.842-3.487-3.727a3.816 3.816 0 0 0-.436-1.444 1.21 1.21 0 0 0-1.307-.577 2.322 2.322 0 0 0-.964.875c.406.039.77.265.985.612a3.9 3.9 0 0 1 .462 1.444c.353 1.886 1.238 3.937 3.488 3.727a3.592 3.592 0 0 0 2.301-1.198c-.329.154-.68.251-1.042.288z"/>
            </g>
            <ellipse cx="364.5" cy="293" fill="#8F95B0" rx="14.5" ry="3"/>
            <ellipse cx="363.5" cy="293" fill="#3F3D56" rx="1.5" ry="2"/>
            <ellipse cx="363.5" cy="290" fill="#3F3D56" rx="1.5" ry="2"/>
            <ellipse cx="363.5" cy="287" fill="#3F3D56" rx="1.5" ry="2"/>
            <ellipse cx="363.5" cy="284" fill="#3F3D56" rx="1.5" ry="2"/>
            <ellipse cx="363.5" cy="282" fill="#3F3D56" rx="1.5" ry="2"/>
            <ellipse cx="363.5" cy="280" fill="#3F3D56" rx="1.5" ry="2"/>
            <ellipse cx="363.5" cy="276" fill="#3F3D56" rx="1.5" ry="2"/>
            <path fill="#8F95B0" d="M370.278 258.026c.228-.293.435-.6.622-.922l-4.389-.725 4.748.032a8.154 8.154 0 0 0 .151-6.384l-6.37 3.328 5.873-4.348a7.982 7.982 0 0 0-7.307-3.997 7.996 7.996 0 0 0-6.881 4.7 8.098 8.098 0 0 0 .987 8.316 8.025 8.025 0 0 0-.915 1.467l5.699 2.983-6.077-2.053a8.098 8.098 0 0 0 1.293 7.551c-2.576 3.302-2.2 8.042.863 10.89a7.954 7.954 0 0 0 10.848 0c3.063-2.848 3.439-7.588.864-10.89a8.097 8.097 0 0 0 0-9.962l-.01.014z"/>
            <path fill="#000" d="M356 263.118c0 1.796.606 3.54 1.723 4.948a7.997 7.997 0 0 0 .863 10.813 7.99 7.99 0 0 0 10.843 0 7.997 7.997 0 0 0 .864-10.813c1.06-1.364-14.293-5.845-14.293-4.948z" opacity=".1"/>
            <ellipse cx="67" cy="348" fill="#8F95B0" rx="21" ry="4"/>
            <ellipse cx="65.5" cy="346" fill="#3F3D56" rx="2.5" ry="3"/>
            <ellipse cx="65.5" cy="342" fill="#3F3D56" rx="2.5" ry="3"/>
            <ellipse cx="65.5" cy="339" fill="#3F3D56" rx="2.5" ry="3"/>
            <ellipse cx="65.5" cy="335" fill="#3F3D56" rx="2.5" ry="3"/>
            <ellipse cx="65.5" cy="331" fill="#3F3D56" rx="2.5" ry="3"/>
            <ellipse cx="65.5" cy="327" fill="#3F3D56" rx="2.5" ry="3"/>
            <ellipse cx="65.5" cy="323" fill="#3F3D56" rx="2.5" ry="3"/>
            <path fill="#8F95B0" d="M75.541 295.826c.325-.428.62-.877.886-1.344l-6.298-1.049 6.812.054c1.32-2.91 1.398-6.24.217-9.209l-9.133 4.813 8.415-6.274c-2.148-3.77-6.198-6.01-10.495-5.804-4.297.207-8.12 2.825-9.905 6.785a11.73 11.73 0 0 0 1.43 12.014 11.594 11.594 0 0 0-1.329 2.115l8.18 4.302-8.72-2.962a11.728 11.728 0 0 0 1.887 10.93c-3.704 4.763-3.167 11.606 1.233 15.719a11.388 11.388 0 0 0 15.587 0c4.4-4.113 4.937-10.956 1.233-15.72a11.722 11.722 0 0 0 0-14.366v-.004z"/>
            <path fill="#000" d="M55 303.175c0 2.586.868 5.097 2.462 7.129-3.709 4.736-3.171 11.54 1.235 15.63a11.46 11.46 0 0 0 15.606 0c4.406-4.09 4.944-10.894 1.235-15.63 1.53-1.97-20.538-8.444-20.538-7.13z" opacity=".1"/>
            <text fill="#19BABD" font-family="Phosphate-Inline, Phosphate" font-size="100">
                <tspan x="132" y="151">500</tspan>
            </text>
        </g>
        <ellipse cx="408" cy="517" fill="#454E7B" fill-rule="nonzero" filter="url(#d)" opacity=".402" rx="169" ry="4"/>
    </g>
</svg>
