<svg xmlns="http://www.w3.org/2000/svg" width="159" height="204" viewBox="0 0 159 204">
    <path fill="#454E7B" fill-rule="nonzero" d="M126.875 0h-101.5C11.361 0 0 11.372 0 25.4v203.2C0 242.628 11.36 254 25.375 254h152.25C191.639 254 203 242.628 203 228.6V76.2L126.875 0zm-50.75 215.9H38.062v-25.4h38.063v25.4zm0-38.1H38.062v-25.4h38.063v25.4zm0-38.1H38.062v-25.4h38.063v25.4zm50.75 76.2H88.812v-25.4h38.063v25.4zm0-38.1H88.812v-25.4h38.063v25.4zm0-38.1H88.812v-25.4h38.063v25.4zm-12.688-50.8V19.05L183.97 88.9h-69.781z" opacity=".08"/>
</svg>
