<svg xmlns="http://www.w3.org/2000/svg" width="331" height="344" viewBox="0 0 331 344">
    <path fill="#454E7B" fill-rule="nonzero" d="M371.337 236.952l45.661 35.856c4.112 3.24 5.194 9.072 2.597 13.824l-43.28 74.736c-2.598 4.752-8.44 6.48-13.202 4.752l-53.884-21.816c-11.253 8.64-22.94 15.768-36.573 21.384l-8.007 57.24c-.866 5.184-5.41 9.072-10.82 9.072h-86.562c-5.41 0-9.955-3.888-10.82-9.072l-8.007-57.24c-13.634-5.4-25.32-12.744-36.573-21.384L57.982 366.12c-4.76 1.728-10.604 0-13.2-4.752L1.5 286.632c-2.813-4.752-1.514-10.584 2.597-13.824l45.662-35.856L48.244 216l1.515-21.6-45.662-35.208c-4.111-3.24-5.41-9.072-2.597-13.824l43.281-74.736c2.597-4.752 8.44-6.696 13.201-4.752l53.885 21.6c11.253-8.424 22.939-15.768 36.573-21.168l8.006-57.24c.866-5.184 5.41-9.072 10.82-9.072h86.563c5.41 0 9.954 3.888 10.82 9.072l8.007 57.24c13.634 5.4 25.32 12.744 36.573 21.168l53.884-21.6c4.761-1.944 10.604 0 13.201 4.752l43.281 74.736c2.597 4.752 1.515 10.584-2.597 13.824L371.337 194.4l1.515 21.6-1.515 20.952zM91.203 216c0 12.508 1.943 24.368 5.396 35.798l-44.676 36.66 16.187 28.035 54.388-20.271a118.32 118.32 0 0 0 61.51 35.582l9.496 56.715h32.373l9.496-56.715c24.173-5.176 45.755-17.9 61.942-35.367l54.172 20.271 16.186-28.034-44.675-36.66c3.669-11.43 5.611-23.506 5.611-36.014 0-12.292-1.942-24.368-5.395-35.582l44.46-36.445-16.187-28.034-53.956 20.055c-16.187-17.683-37.77-30.406-61.942-35.798l-9.496-56.715h-32.374l-9.496 56.715c-24.172 5.392-45.754 18.115-61.941 35.798l-53.956-20.27-16.187 28.033 44.46 36.66c-3.453 11.215-5.396 23.291-5.396 35.583zM210.5 140.26c41.852 0 75.78 33.91 75.78 75.74s-33.928 75.74-75.78 75.74c-41.852 0-75.78-33.91-75.78-75.74s33.928-75.74 75.78-75.74zm0 43.48c-17.826 0-32.277 14.443-32.277 32.26s14.451 32.26 32.277 32.26 32.277-14.443 32.277-32.26-14.451-32.26-32.277-32.26z" opacity=".048"/>
</svg>
