<svg xmlns="http://www.w3.org/2000/svg" width="93" height="102" viewBox="0 0 93 102">
    <path fill="#454E7B" fill-rule="nonzero" d="M111.57 71.305l13.652 10.79c1.23.975 1.553 2.73.776 4.16l-12.94 22.49c-.776 1.43-2.522 1.95-3.946 1.43l-16.11-6.565c-3.364 2.6-6.858 4.745-10.934 6.435l-2.393 17.225A3.275 3.275 0 0 1 76.44 130H50.56a3.275 3.275 0 0 1-3.235-2.73l-2.393-17.225c-4.076-1.625-7.57-3.835-10.934-6.435l-16.11 6.565c-1.424.52-3.17 0-3.947-1.43l-12.94-22.49a3.214 3.214 0 0 1 .777-4.16l13.651-10.79L14.976 65l.453-6.5L1.778 47.905a3.214 3.214 0 0 1-.776-4.16l12.94-22.49c.776-1.43 2.522-2.015 3.946-1.43l16.11 6.5c3.364-2.535 6.858-4.745 10.934-6.37L47.325 2.73A3.275 3.275 0 0 1 50.56 0h25.88a3.275 3.275 0 0 1 3.235 2.73l2.393 17.225c4.076 1.625 7.57 3.835 10.934 6.37l16.11-6.5c1.424-.585 3.17 0 3.947 1.43l12.94 22.49c.776 1.43.452 3.185-.777 4.16L111.571 58.5l.453 6.5-.453 6.305zM27.917 65c0 3.77.582 7.345 1.617 10.79L16.141 86.84l4.852 8.45 16.304-6.11a35.427 35.427 0 0 0 18.44 10.725L58.582 117h9.705l2.846-17.095c7.247-1.56 13.716-5.395 18.569-10.66l16.239 6.11 4.852-8.45-13.392-11.05A35.594 35.594 0 0 0 99.084 65c0-3.705-.582-7.345-1.617-10.725l13.327-10.985-4.852-8.45-16.175 6.045A35.716 35.716 0 0 0 71.2 30.095L68.352 13h-9.704L55.8 30.095a35.716 35.716 0 0 0-18.568 10.79l-16.175-6.11-4.852 8.45 13.327 11.05A36.774 36.774 0 0 0 27.916 65zM63.5 42.25c12.506 0 22.644 10.186 22.644 22.75S76.006 87.75 63.5 87.75c-12.506 0-22.644-10.186-22.644-22.75S50.994 42.25 63.5 42.25zm0 13c-5.36 0-9.705 4.365-9.705 9.75s4.345 9.75 9.705 9.75 9.705-4.365 9.705-9.75-4.345-9.75-9.705-9.75z" opacity=".1"/>
</svg>
