<svg xmlns="http://www.w3.org/2000/svg" width="255" height="173" viewBox="0 0 255 173">
    <g fill="none" fill-rule="evenodd">
        <ellipse cx="92.523" cy="163.682" fill="#454E7B" opacity=".1" rx="47.403" ry="8.987"/>
        <path fill="#454E7B" d="M27.42 24.439c-17.169 8.62-8.366 15.268-6.121 18.694 7.811 11.92 2.29 26.62-6.173 38.259-3.967 5.459-8.577 10.674-11.641 16.48-3.064 5.805-4.48 12.48-1.8 18.417 2.657 5.882 8.988 10.291 15.847 13.395 13.93 6.307 30.34 8.11 46.352 9.134 35.434 2.261 71.875 4.87 106.583.3 95.517-12.573 101.018-98.813 59.242-124.767C205-1 98-11 27.42 24.44z" opacity=".04"/>
        <path fill="#9BA1B6" d="M53.677 121.354l34.429-5.625v32.731l-32.712-1.72z"/>
        <path fill="#C1C4D2" d="M88.106 115.729l41.286 3.102-2.284 28.484-39.002 1.145z"/>
        <path fill="#B4B8CA" d="M100.8 105.738l-12.694 9.99 41.286 3.103 6.747-10.223zM41.212 110.444l30.994-3.79 15.9 9.075-34.429 5.625z"/>
        <path fill="#C1C4D2" d="M95.653 124.228v44.751l-16.128-1.661-7.015-.719-2.137-.224-7.011-.723-9.685-.997v-43.3l34.424 2.352z"/>
        <path fill="#A9AEC0" d="M129.392 118.831v43.642l-12.926 2.492-6.286 1.212-14.527 2.802v-44.751z"/>
        <path fill="#B4B8CA" d="M41.212 130.774l12.465-9.42 41.976 2.874-6.18 10.453z"/>
        <path fill="#B4B8CA" d="M129.392 118.831l-33.74 5.397 10.982 9.878 36.14-6.089z"/>
        <path fill="#FFF" d="M116.466 164.965l-6.286 1.212v-9.325l5.888-1.49zM79.525 161.149v6.169l-7.015-.719v-5.45zM70.373 163.093v3.282l-7.011-.723v-2.56z" opacity=".2"/>
        <path fill="#B4B8CA" d="M136.816 25.719s-10.23-.617-9.034 6.565c0 0-.24 1.269.91 1.845 0 0 .018-.538 1.05-.353.367.062.74.08 1.111.054a2.306 2.306 0 0 0 1.362-.563s2.878-1.188 3.998-5.897c0 0 .829-1.029.807-1.293l-1.728.74s.59 1.248.124 2.285c0 0-.054-2.238-.388-2.187-.067 0-.896.434-.896.434s1.015 2.17.247 3.752c0 0 .291-2.678-.565-3.596l-1.216.711s1.187 2.244.382 4.076c0 0 .207-2.81-.638-3.904l-1.104.86s1.117 2.214.436 3.734c0 0-.089-3.27-.675-3.519 0 0-.964.852-1.11 1.202 0 0 .762 1.616.289 2.454 0 0-.291-2.18-.539-2.19 0 0-.96 1.444-1.06 2.424.046-.914.331-1.8.826-2.57a2.882 2.882 0 0 0-1.47.763s.148-1.021 1.707-1.11c0 0 .807-1.097 1.007-1.164 0 0-1.55-.13-2.49.288 0 0 .826-.961 2.775-.538l1.077-.89s-2.04-.269-2.907.03c0 0 .995-.851 3.2-.231l1.184-.709s-1.738-.377-2.775-.24c0 0 1.093-.59 3.123.049l.848-.38s-1.276-.25-1.648-.291c-.371-.04-.393-.143-.393-.143a4.4 4.4 0 0 1 2.393.27s1.817-.655 1.78-.768z" opacity=".5"/>
        <path fill="#B4B8CA" d="M172.369 83.391s-10.229-.617-9.034 6.565c0 0-.24 1.27.91 1.846 0 0 .019-.54 1.053-.353.367.062.74.08 1.111.054.498-.036.97-.233 1.346-.56 0 0 2.88-1.191 4-5.9 0 0 .827-1.027.794-1.29l-1.728.737s.59 1.248.127 2.285c0 0-.057-2.239-.388-2.188-.067 0-.899.434-.899.434s1.017 2.174.25 3.753c0 0 .291-2.678-.568-3.597l-1.203.703s1.187 2.244.382 4.076c0 0 .208-2.81-.638-3.903l-1.1.862s1.114 2.212.435 3.731c0 0-.088-3.27-.675-3.518 0 0-.964.851-1.112 1.201 0 0 .765 1.617.29 2.454 0 0-.29-2.179-.538-2.19 0 0-.96 1.444-1.06 2.425.048-.915.334-1.8.829-2.57a2.896 2.896 0 0 0-1.472.762s.15-1.02 1.709-1.11c0 0 .794-1.096 1.007-1.164 0 0-1.55-.129-2.49.289 0 0 .826-.962 2.772-.526l1.077-.889s-2.043-.269-2.907.03c0 0 .996-.851 3.2-.232l1.185-.708s-1.742-.375-2.778-.24c0 0 1.095-.59 3.125.049l.848-.38s-1.276-.25-1.65-.291c-.374-.04-.393-.143-.393-.143a4.409 4.409 0 0 1 2.396.27s1.82-.66 1.787-.774zM110.228 77.015s2.355-9.992-4.923-10.027c0 0-1.209-.453-1.97.582 0 0 .519.11.166 1.096-.122.349-.203.71-.242 1.078-.052.5.06 1.004.32 1.435 0 0 .681 3.045 5.115 4.952 0 0 .872.991 1.136 1.002l-.431-1.83s-1.33.37-2.272-.268c0 0 2.215.326 2.218 0 0-.068-.27-.96-.27-.96s-2.311.63-3.738-.396c0 0 2.587.744 3.64.057l-.485-1.325s-2.423.789-4.081-.318c0 0 2.732.684 3.954.037l-.66-1.233s-2.368.722-3.749-.208c0 0 3.23.469 3.58-.064 0 0-.673-1.097-.993-1.302 0 0-1.712.48-2.466-.132 0 0 2.194.084 2.245-.148 0 0-1.257-1.193-2.215-1.463a5.275 5.275 0 0 1 2.393 1.256 2.908 2.908 0 0 0-.5-1.582s.979.324.807 1.886c0 0 .942.97.971 1.19 0 0 .39-1.505.14-2.504 0 0 .808.98.046 2.825l.69 1.226s.624-1.966.465-2.872c0 0 .67 1.127-.318 3.196l.498 1.29s.665-1.654.708-2.694c0 0 .396 1.18-.581 3.074l.231.9s.463-1.215.566-1.576c.102-.361.207-.364.207-.364a4.415 4.415 0 0 1-.67 2.317s.352 1.88.468 1.867zM87.827 80.42s-8.216-6.15-11.153.512c0 0-.896.929-.253 2.042 0 0 .307-.434 1.077.285.273.254.575.475.9.658.439.245.946.34 1.445.269 0 0 3.058.59 6.578-2.726 0 0 1.258-.404 1.376-.642l-1.855-.326s-.193 1.366-1.15 1.978c0 0 1.183-1.902.876-2.04-.062-.03-.988-.134-.988-.134s-.345 2.376-1.852 3.273c0 0 1.715-2.077 1.502-3.316l-1.408-.076s-.24 2.53-1.92 3.618c0 0 1.716-2.233 1.616-3.612l-1.394.113s-.283 2.46-1.686 3.354c0 0 1.72-2.78 1.368-3.308 0 0-1.273.18-1.588.39 0 0-.245 1.762-1.107 2.21 0 0 .956-1.98.762-2.118 0 0-1.596.676-2.223 1.447a5.258 5.258 0 0 1 2.105-1.692 2.897 2.897 0 0 0-1.648-.173s.684-.77 2.035.014c0 0 1.266-.477 1.48-.418 0 0-1.224-.962-2.239-1.129 0 0 1.222-.35 2.609 1.078l1.397-.143s-1.553-1.347-2.444-1.573c0 0 1.3-.164 2.799 1.565l1.378.062s-1.246-1.271-2.186-1.73c0 0 1.236.108 2.582 1.76l.918.148s-.929-.91-1.22-1.148c-.29-.237-.25-.336-.25-.336.749.331 1.391.865 1.855 1.54 0 0 1.87.434 1.906.324zM115.178 23.278s-8.215-6.153-11.152.512c0 0-.896.93-.253 2.042 0 0 .307-.434 1.077.286.274.252.577.472.902.654.44.245.947.34 1.445.27 0 0 3.058.59 6.579-2.73 0 0 1.257-.4 1.373-.64l-1.855-.321s-.191 1.366-1.15 1.977c0 0 1.185-1.902.878-2.039-.062-.03-.988-.135-.988-.135s-.355 2.382-1.862 3.273c0 0 1.712-2.077 1.502-3.316l-1.408-.075s-.243 2.53-1.92 3.615c0 0 1.715-2.233 1.616-3.613l-1.392.114s-.285 2.462-1.688 3.356c0 0 1.723-2.78 1.37-3.308 0 0-1.273.18-1.588.39 0 0-.245 1.763-1.106 2.21 0 0 .955-1.98.761-2.12 0 0-1.596.679-2.223 1.449a5.234 5.234 0 0 1 2.105-1.692 2.878 2.878 0 0 0-1.65-.172s.686-.77 2.038.013c0 0 1.265-.48 1.48-.417 0 0-1.225-.962-2.24-1.132 0 0 1.22-.347 2.606 1.078l1.397-.143s-1.55-1.347-2.444-1.576c0 0 1.3-.162 2.802 1.568l1.379.06s-1.247-1.272-2.189-1.728c0 0 1.238.108 2.584 1.76l.915.148s-.93-.9-1.222-1.132c-.29-.231-.25-.334-.25-.334.75.332 1.391.865 1.855 1.541 0 0 1.87.41 1.916.307zM146.57 31.072s-3.284-9.728-9.477-5.905c0 0-1.266.27-1.365 1.538 0 0 .498-.183.718.84.082.365.206.718.37 1.054.222.452.584.82 1.033 1.048 0 0 2.186 2.222 6.966 1.487 0 0 1.263.382 1.494.25l-1.346-1.322s-.93 1.015-2.067.975c0 0 2.054-.895 1.884-1.183-.035-.056-.737-.668-.737-.668s-1.631 1.76-3.381 1.643c0 0 2.587-.738 3.114-1.885l-1.114-.86s-1.631 1.945-3.631 1.886c0 0 2.691-.865 3.372-2.06l-1.21-.699s-1.616 1.867-3.29 1.808c0 0 2.993-1.312 3.001-1.948 0 0-1.15-.573-1.529-.579 0 0-1.2 1.312-2.153 1.194 0 0 1.906-1.091 1.825-1.315 0 0-1.696-.348-2.652-.067a5.242 5.242 0 0 1 2.692-.202 2.905 2.905 0 0 0-1.262-1.078s1.001-.245 1.671 1.166c0 0 1.314.326 1.454.496 0 0-.463-1.484-1.203-2.2 0 0 1.203.406 1.531 2.375l1.233.674s-.509-1.997-1.122-2.694c0 0 1.165.603 1.418 2.88l1.104.832s-.307-1.756-.824-2.667c0 0 .959.792 1.13 2.918l.671.64s-.248-1.276-.35-1.637c-.102-.361-.019-.385-.019-.385.428.698.655 1.502.654 2.322 0 0 1.303 1.398 1.397 1.328zM125.138 31.551s-10.202-1.136-9.36 6.108c0 0-.304 1.255.808 1.885 0 0 .046-.538 1.077-.296a4.95 4.95 0 0 0 1.109.11c.503-.009.99-.182 1.386-.493 0 0 2.937-1.042 4.307-5.69 0 0 .878-.982.859-1.25l-1.763.653s.538 1.274 0 2.287c0 0 .056-2.239-.27-2.204-.067 0-.917.388-.917.388s.904 2.223.059 3.772c0 0 .425-2.662-.385-3.62l-1.252.646s1.077 2.303.175 4.092c0 0 .35-2.797-.439-3.93l-1.144.807s1.002 2.266.245 3.75c0 0 .078-3.27-.495-3.547 0 0-1.007.808-1.171 1.142 0 0 .681 1.643.167 2.465 0 0-.18-2.19-.417-2.212 0 0-1.034 1.393-1.185 2.376a5.248 5.248 0 0 1 .959-2.527 2.895 2.895 0 0 0-1.508.687s.2-1.01 1.76-1.02c0 0 .849-1.054 1.077-1.11 0 0-1.542-.208-2.503.16 0 0 .875-.92 2.797-.384l1.133-.833s-2.048-.415-2.915-.145c0 0 1.039-.809 3.208-.068l1.22-.649s-1.72-.463-2.762-.38c0 0 1.123-.539 3.117.208l.867-.337s-1.263-.315-1.634-.375c-.371-.059-.385-.161-.385-.161a4.425 4.425 0 0 1 2.38.388s1.814-.58 1.795-.693zM195.379 40.048s-8.216-6.15-11.153.512c0 0-.896.93-.253 2.042 0 0 .307-.434 1.077.286.273.253.575.474.9.657.439.245.946.34 1.445.27 0 0 3.058.59 6.581-2.727 0 0 1.255-.404 1.373-.641l-1.85-.334s-.193 1.366-1.149 1.977c0 0 1.182-1.902.875-2.04-.062-.029-.985-.134-.985-.134s-.347 2.376-1.855 3.273c0 0 1.715-2.077 1.502-3.316l-1.407-.075s-.24 2.53-1.92 3.618c0 0 1.718-2.234 1.615-3.613l-1.394.113s-.27 2.46-1.685 3.354c0 0 1.723-2.78 1.367-3.308 0 0-1.273.18-1.588.39 0 0-.242 1.762-1.103 2.21 0 0 .952-1.98.759-2.118 0 0-1.597.676-2.224 1.447a5.258 5.258 0 0 1 2.105-1.692 2.897 2.897 0 0 0-1.647-.172s.686-.77 2.038.013c0 0 1.262-.477 1.477-.418 0 0-1.224-.961-2.24-1.128 0 0 1.223-.35 2.61 1.077l1.396-.142s-1.55-1.347-2.444-1.574c0 0 1.3-.164 2.8 1.565l1.38.062s-1.249-1.271-2.188-1.73c0 0 1.238.109 2.581 1.76l.918.148s-.928-.91-1.219-1.147c-.29-.237-.248-.316-.248-.316a4.426 4.426 0 0 1 1.852 1.541s1.866.42 1.9.31zM201.726 84.45s-2.832-9.868-9.2-6.325c0 0-1.277.196-1.435 1.473 0 0 .506-.159.68.873.066.37.174.732.324 1.078.2.464.545.85.985 1.099 0 0 2.083 2.316 6.891 1.8 0 0 1.244.436 1.48.317l-1.273-1.385s-.977.976-2.107.884c0 0 2.088-.808 1.927-1.096-.032-.06-.705-.704-.705-.704s-1.707 1.687-3.451 1.49c0 0 2.619-.62 3.195-1.735l-1.077-.91s-1.717 1.87-3.712 1.724c0 0 2.714-.746 3.462-1.907l-1.18-.752s-1.708 1.791-3.367 1.657c0 0 3.05-1.178 3.088-1.81 0 0-1.125-.626-1.505-.647 0 0-1.257 1.255-2.213 1.094 0 0 1.955-1.005 1.885-1.232 0 0-1.68-.422-2.646-.188a5.248 5.248 0 0 1 2.692-.078 2.89 2.89 0 0 0-1.212-1.132s1.012-.202 1.615 1.24c0 0 1.295.382 1.43.56 0 0-.396-1.506-1.104-2.252 0 0 1.184.458 1.424 2.44l1.2.73s-.42-2.02-1-2.731c0 0 1.135.654 1.289 2.939l1.076.88s-.229-1.766-.702-2.693c0 0 .923.835.998 2.963l.641.674s-.188-1.288-.27-1.654c-.08-.367 0-.418 0-.418.4.717.59 1.53.553 2.35 0 0 1.227 1.449 1.324 1.384zM138.624 106.686s-5.5-8.67-10.606-3.48c0 0-1.168.538-.963 1.818 0 0 .444-.297.901.646.165.334.37.647.609.932.32.39.76.662 1.251.776 0 0 2.652 1.638 7.12-.215 0 0 1.317.07 1.51-.11l-1.615-.97s-.664 1.212-1.776 1.44c0 0 1.782-1.346 1.542-1.594-.046-.049-.875-.474-.875-.474s-1.165 2.096-2.893 2.4c0 0 2.339-1.333 2.581-2.567l-1.29-.569s-1.122 2.277-3.076 2.694c0 0 2.396-1.479 2.786-2.804l-1.346-.388s-1.136 2.2-2.764 2.538c0 0 2.595-1.989 2.452-2.608 0 0-1.255-.283-1.615-.197 0 0-.854 1.56-1.817 1.673 0 0 1.593-1.514 1.461-1.713 0 0-1.73.067-2.592.565a5.235 5.235 0 0 1 2.568-.835 2.887 2.887 0 0 0-1.478-.746s.913-.477 1.885.736c0 0 1.346 0 1.531.134 0 0-.807-1.347-1.693-1.85 0 0 1.265.107 2.051 1.942l1.36.36s-.972-1.818-1.728-2.337c0 0 1.273.307 2.061 2.46l1.271.538s-.716-1.63-1.435-2.392c0 0 1.12.538 1.79 2.562l.808.466s-.538-1.183-.73-1.509c-.19-.326-.115-.401-.115-.401a4.419 4.419 0 0 1 1.187 2.098s1.61 1.072 1.682.98z" opacity=".1"/>
        <path fill="#B4B8CA" d="M133.438 62.206s-6.504 7.941.017 11.177c0 0 .886.94 2.027.345 0 0-.421-.325.33-1.057.266-.261.5-.553.696-.87a2.29 2.29 0 0 0 .34-1.432s.724-3.03-2.437-6.7c0 0-.345-1.273-.578-1.4l-.415 1.834s1.354.252 1.922 1.238c0 0-1.845-1.269-1.997-.97-.031.064-.178.983-.178.983s2.355.452 3.182 1.995c0 0-1.997-1.807-3.24-1.65l-.127 1.4s2.515.354 3.524 2.082c0 0-2.153-1.816-3.532-1.773l.05 1.399s2.436.397 3.274 1.835c0 0-2.698-1.844-3.24-1.515 0 0 .122 1.28.32 1.604 0 0 1.747.324 2.156 1.204 0 0-1.931-1.042-2.081-.856 0 0 .605 1.626 1.347 2.288a5.26 5.26 0 0 1-1.594-2.18 2.9 2.9 0 0 0-.246 1.64s-.74-.72.1-2.043c0 0-.418-1.282-.35-1.498 0 0-1.005 1.177-1.228 2.187 0 0-.294-1.235 1.202-2.557l-.081-1.404s-1.423 1.49-1.68 2.376c0 0-.106-1.31 1.688-2.731l.12-1.378s-1.322 1.19-1.815 2.095c0 0 .162-1.231 1.87-2.505l.19-.91s-.952.887-1.202 1.167-.345.235-.345.235a4.424 4.424 0 0 1 1.62-1.786s.501-1.826.391-1.869zM183.068 98.388s-9.775 3.114-6.067 9.382c0 0 .232 1.27 1.513 1.395 0 0-.177-.502.85-.707.366-.074.722-.192 1.06-.35.455-.212.83-.57 1.062-1.016 0 0 2.257-2.147 1.602-6.947 0 0 .403-1.256.278-1.49l-1.347 1.312s.999.95.938 2.087c0 0-.856-2.07-1.146-1.902-.061.035-.684.726-.684.726s1.729 1.664 1.583 3.408c0 0-.691-2.604-1.82-3.15l-.868 1.105s1.917 1.668 1.823 3.668c0 0-.817-2.697-1.998-3.413l-.718 1.2s1.826 1.661 1.747 3.324c0 0-1.26-3.017-1.894-3.037 0 0-.594 1.14-.604 1.52 0 0 1.29 1.224 1.153 2.186 0 0-1.052-1.928-1.28-1.853 0 0-.376 1.694-.114 2.653a5.265 5.265 0 0 1-.151-2.698c-.48.298-.862.73-1.099 1.242 0 0-.23-1.007 1.195-1.66 0 0 .347-1.302.521-1.447 0 0-1.482.44-2.218 1.166 0 0 .425-1.196 2.398-1.49l.696-1.221s-2.004.474-2.7 1.076c0 0 .622-1.155 2.9-1.37l.851-1.09s-1.757.278-2.663.768c0 0 .806-.945 2.932-1.081l.654-.66s-1.28.225-1.643.323c-.362.1-.416.01-.416.01a4.418 4.418 0 0 1 2.33-.616s1.413-1.257 1.344-1.353zM161.265 48.785s6.267 8.13 10.883 2.498c0 0 1.114-.653.793-1.9 0 0-.412.339-.956-.558a4.654 4.654 0 0 0-.69-.876 2.285 2.285 0 0 0-1.317-.652s-2.788-1.39-7.07.868c0 0-1.317.051-1.493.25l1.692.817s.55-1.264 1.638-1.596c0 0-1.65 1.514-1.394 1.729.055.045.916.395.916.395s.97-2.196 2.658-2.656c0 0-2.208 1.542-2.335 2.79l1.334.438s.91-2.372 2.82-2.968c0 0-2.252 1.69-2.52 3.046l1.372.265s.935-2.286 2.523-2.78c0 0-2.402 2.217-2.203 2.82 0 0 1.273.169 1.633.049 0 0 .708-1.632 1.657-1.833 0 0-1.449 1.65-1.301 1.838 0 0 1.719-.225 2.53-.8a5.253 5.253 0 0 1-2.481 1.065c.443.35.98.56 1.542.609 0 0-.867.56-1.967-.557 0 0-1.342.12-1.537.005 0 0 .92 1.244 1.853 1.688 0 0-1.268.01-2.218-1.746l-1.386-.237s1.131 1.723 1.935 2.172c0 0-1.298-.19-2.279-2.26l-1.313-.428s.86 1.558 1.63 2.242c0 0-1.162-.435-2.017-2.387l-.843-.39s.649 1.128.865 1.435c.217.307.151.388.151.388a4.426 4.426 0 0 1-1.374-1.98s-1.664-.9-1.731-.803zM156.743 86.235s-9.543-3.764-10.622 3.433c0 0-.621 1.133.292 2.039 0 0 .184-.506 1.106-.01.33.173.68.306 1.042.397.49.126 1.006.088 1.472-.11 0 0 3.104-.236 5.63-4.365 0 0 1.107-.718 1.157-.98l-1.875.176s.173 1.368-.589 2.212c0 0 .64-2.147.31-2.201-.063-.023-.99.132-.99.132s.293 2.384-.927 3.645c0 0 1.11-2.463.58-3.594l-1.378.298s.43 2.503-.903 3.995c0 0 1.068-2.607.606-3.91l-1.318.474s.375 2.45-.744 3.683c0 0 .932-3.136.454-3.562 0 0-1.18.51-1.435.796 0 0 .219 1.76-.486 2.42 0 0 .398-2.148.178-2.243 0 0-1.361 1.073-1.764 1.984a5.247 5.247 0 0 1 1.586-2.189 2.89 2.89 0 0 0-1.634.265s.46-.925 1.967-.525c0 0 1.097-.796 1.319-.793 0 0-1.433-.605-2.457-.499 0 0 1.085-.66 2.8.36l1.312-.505s-1.856-.9-2.772-.875c0 0 1.21-.5 3.112.773l1.345-.305s-1.537-.898-2.564-1.092c0 0 1.225-.219 2.955 1.02l.924-.1s-1.136-.634-1.478-.788c-.342-.153-.33-.258-.33-.258.81.123 1.57.468 2.195.998 0 0 1.916-.073 1.924-.196zM124.853 87.59s.617-10.239-6.558-9.042c0 0-1.268-.24-1.844.91 0 0 .538.02.353 1.051-.062.368-.08.741-.054 1.113.034.504.231.983.562 1.364 0 0 1.187 2.88 5.892 4 0 0 1.028.83 1.291.81l-.74-1.73s-1.246.59-2.282.123c0 0 2.237-.054 2.186-.388 0-.067-.434-.897-.434-.897s-2.169 1.016-3.749.248c0 0 2.675.29 3.593-.566l-.71-1.218s-2.242 1.188-4.072.383c0 0 2.807.207 3.9-.639l-.86-1.105s-2.211 1.119-3.73.437c0 0 3.268-.089 3.516-.676 0 0-.85-.965-1.2-1.11 0 0-1.616.762-2.453.288 0 0 2.178-.291 2.188-.54 0 0-1.442-.961-2.422-1.06a5.233 5.233 0 0 1 2.568.826 2.887 2.887 0 0 0-.762-1.47s1.02.147 1.109 1.708c0 0 1.095.808 1.163 1.007 0 0 .129-1.552-.288-2.492 0 0 .96.827.538 2.778l.888 1.078s.27-2.043-.03-2.91c0 0 .85.997.232 3.203l.708 1.186s.376-1.74.24-2.778c0 0 .589 1.094-.05 3.126l.38.848s.25-1.277.29-1.649c.041-.371.144-.393.144-.393a4.413 4.413 0 0 1-.27 2.395s.654 1.82.767 1.781zM111.577 68.303s-5.23-8.834-10.498-3.807c0 0-1.185.512-1.018 1.79 0 0 .45-.286.88.67.154.34.349.66.58.954.308.397.74.681 1.227.808 0 0 2.597 1.719 7.122 0 0 0 1.314.11 1.513-.065l-1.58-1.018s-.7 1.188-1.82 1.385c0 0 1.823-1.302 1.594-1.547-.049-.051-.862-.504-.862-.504s-1.23 2.061-2.96 2.312c0 0 2.379-1.26 2.656-2.484l-1.27-.598s-1.193 2.244-3.16 2.602c0 0 2.441-1.403 2.872-2.715l-1.33-.431s-1.206 2.155-2.843 2.451c0 0 2.654-1.907 2.53-2.53 0 0-1.243-.323-1.614-.247 0 0-.902 1.533-1.869 1.616 0 0 1.64-1.46 1.516-1.665 0 0-1.734.014-2.608.485a5.251 5.251 0 0 1 2.592-.754 2.893 2.893 0 0 0-1.457-.792s.93-.45 1.885.792c0 0 1.346.046 1.526.183 0 0-.762-1.347-1.634-1.902 0 0 1.26.146 1.99 2.005l1.345.404s-.912-1.848-1.655-2.393c0 0 1.265.348 1.986 2.522l1.252.584s-.665-1.65-1.346-2.424c0 0 1.101.574 1.712 2.616l.789.49s-.506-1.199-.684-1.53c-.178-.331-.102-.404-.102-.404a4.427 4.427 0 0 1 1.122 2.133s1.543 1.097 1.62 1.008zM92.77 103.83s.269-10.264-6.857-8.817c0 0-1.276-.197-1.814.972 0 0 .538 0 .388 1.037-.05.37-.055.744-.016 1.116.048.503.261.976.605 1.347 0 0 1.284 2.839 6.025 3.803 0 0 1.052.795 1.316.752l-.808-1.703s-1.224.63-2.277.202c0 0 2.234-.132 2.172-.46 0-.068-.463-.887-.463-.887s-2.137 1.092-3.739.375c0 0 2.692.202 3.572-.684l-.75-1.194s-2.203 1.261-4.06.518c0 0 2.813.113 3.88-.768l-.897-1.078s-2.173 1.19-3.712.56c0 0 3.262-.196 3.499-.792 0 0-.883-.934-1.238-1.077 0 0-1.578.808-2.439.372 0 0 2.153-.361 2.167-.601 0 0-1.473-.913-2.466-.98a5.238 5.238 0 0 1 2.598.743 2.897 2.897 0 0 0-.808-1.447s1.026.116 1.166 1.67c0 0 1.122.76 1.195.97 0 0 .078-1.554-.371-2.48 0 0 .99.794.619 2.755l.923 1.061s.21-2.052-.127-2.906c0 0 .883.967.34 3.192l.745 1.161s.318-1.754.148-2.785c0 0 .625 1.077.054 3.127l.41.835s.207-1.285.233-1.66c.027-.374.13-.398.13-.398a4.427 4.427 0 0 1-.186 2.406s.724 1.778.842 1.743z" opacity=".5"/>
        <ellipse cx="22.269" cy="166.031" fill="#454E7B" opacity=".1" rx="7.249" ry="1.226"/>
        <path fill="#B4B8CA" d="M17.402 160.333s4.132-.126 5.384-1.015c1.251-.89 6.36-1.948 6.67-.523.31 1.425 6.213 7.082 1.545 7.12-4.668.038-10.845-.727-12.089-1.487-1.244-.76-1.51-4.095-1.51-4.095z"/>
        <path fill="#000" d="M31.08 165.42c-4.668.037-10.846-.728-12.09-1.488-.947-.576-1.324-2.648-1.45-3.604h-.138s.27 3.338 1.505 4.095c1.235.757 7.421 1.524 12.089 1.487 1.346 0 1.811-.49 1.787-1.202-.188.434-.702.703-1.704.711z" opacity=".2"/>
    </g>
</svg>
