<svg xmlns="http://www.w3.org/2000/svg" width="320" height="225" viewBox="0 0 320 225">
    <defs>
        <linearGradient id="a" x1="84.596%" x2="20.219%" y1="-79.155%" y2="100%">
            <stop offset="0%" stop-color="#91B6F3" stop-opacity="0"/>
            <stop offset="100%" stop-color="#587FE3"/>
        </linearGradient>
    </defs>
    <g fill="none" fill-rule="evenodd">
        <path fill="url(#a)" d="M185.906 42.508c-20.513-.653-40.05-6.753-58.693-13.427-18.643-6.674-37.15-14.056-57.172-17.592-12.877-2.273-27.603-2.595-37.98 3.761-9.985 6.117-13.21 16.679-14.945 26.482-1.307 7.371-2.074 15.133 1.503 22.033 2.473 4.787 6.892 8.818 9.94 13.406 10.605 15.971 3.11 35.662-8.385 51.253-5.392 7.314-11.646 14.292-15.808 22.078-4.161 7.785-6.078 16.713-2.445 24.645 3.608 7.864 12.206 13.783 21.521 17.944 18.918 8.445 41.213 10.863 62.95 12.234 48.12 3.029 96.5 1.71 144.75.403 17.854-.485 35.79-.978 53.356-3.522 9.755-1.412 19.825-3.651 26.898-9.06 8.991-6.866 11.217-18.495 5.195-27.104-10.104-14.443-38.029-18.03-45.106-33.528-3.889-8.531.105-18.036 5.754-25.948 12.12-16.973 32.435-31.863 33.505-51.264.733-13.334-9.03-26.669-24.13-32.974-15.827-6.61-37.776-5.778-49.468 5.163-12 11.263-33.128 15.608-51.24 15.017z" opacity=".101"/>
        <path fill="#DCDFED" d="M166.298 2.392L68.65 65.91l63.724 115.233a4.449 4.449 0 0 0 2.837 2.171l57.739 14.122a4.447 4.447 0 0 0 5.055-2.4l28.64-59.657 31.387-42.069-74.485-88.352a13.175 13.175 0 0 0-17.25-2.565z"/>
        <path fill="#000" d="M259.027 93.807l-.277.375-18.386 24.645-.332.445-12.393 16.612-24.495 51.03-.687 1.427-3.457 7.2a4.447 4.447 0 0 1-5.064 2.4l-57.738-14.13a4.441 4.441 0 0 1-2.838-2.171l-5.552-10.022-.997-1.805-40.077-72.501-.343-.618-16.75-30.287 2.023-1.318 15.343-9.977.355-.232 32.31-21.018 2.038-1.325L167.283 2.89a13.172 13.172 0 0 1 17.259 2.56l33.979 40.321 1.493 1.797 24.663 29.254.134.16 12.4 14.706 1.562 1.854.254.265z" opacity=".1"/>
        <path fill="#000" d="M243.856 76.485l-3.01 20.965-.907 6.327-.52 13.478-.04 1.052-2.7 70.42a4.47 4.47 0 0 1-1.734 3.36 4.446 4.446 0 0 1-3.684.821l-29.103-6.514-.313-.07-74.638-16.702-1.37-.307-41.033-9.187.94-63.314.03-2.116.285-19.164.313-21.152 32.31-21.018 2.039-1.325c29.969 3.081 69.825 9.008 96.825 13.234l1.494 1.797 24.644 29.254.172.161z" opacity=".1"/>
        <path fill="#19BABD" d="M247.265 51.626l-3.544 24.71-3.248 22.627-.908 6.312-.519 13.477-2.74 71.472a4.47 4.47 0 0 1-1.734 3.361 4.446 4.446 0 0 1-3.684.821l-29.417-6.585-74.638-16.701-42.402-9.494.97-65.43.284-19.164.333-22.418.34-23.058c7.012-.333 18.55.42 32.324 1.808 30.843 3.104 72.887 9.382 100.376 13.706a3056.653 3056.653 0 0 1 28.207 4.556z"/>
        <path fill="#000" d="M256.256 91.19l-15.783 7.761-80.553 39.61-74.235-61.514L70.678 64.59l-2.023 1.318 16.75 30.287-.97 65.43 42.402 9.494 5.541 10.022a4.441 4.441 0 0 0 2.838 2.171l57.738 14.122a4.447 4.447 0 0 0 5.052-2.4l3.458-7.2 29.416 6.586a4.446 4.446 0 0 0 3.684-.82 4.47 4.47 0 0 0 1.734-3.362l2.74-71.472 18.72-25.083.051-.633-1.553-1.86z" opacity=".1"/>
        <path fill="#DCDFED" d="M68.65 65.909l-6.657 114.308a4.46 4.46 0 0 0 3.477 4.616L242.28 224.2a4.442 4.442 0 0 0 3.598-.771 4.465 4.465 0 0 0 1.79-3.224L258.03 93.31l-98.11 48.246L68.65 65.91z"/>
        <path fill="#000" d="M63.21 182.834l91.856-56.819a6.731 6.731 0 0 1 8.588 1.348l82.214 96.136c.299.344.444.097 0 0L63.211 182.834c-.523-.116-.456.273 0 0z" opacity=".1"/>
        <path fill="#E3E5F1" d="M63.868 182.74l90.907-55.06a7.115 7.115 0 0 1 9.066 1.431l81.47 93.942c.277.32.318.783.102 1.147a.981.981 0 0 1-1.053.46L64.163 184.54a.98.98 0 0 1-.295-1.8z"/>
    </g>
</svg>
