<svg xmlns="http://www.w3.org/2000/svg" width="262" height="153" viewBox="0 0 262 153">
    <defs>
        <linearGradient id="a" x1="49.999%" x2="49.999%" y1="100%" y2="0%">
            <stop offset="0%" stop-color="#DADCE5"/>
            <stop offset="54%" stop-color="#DADCE5"/>
            <stop offset="100%" stop-color="gray" stop-opacity=".1"/>
        </linearGradient>
        <linearGradient id="b" x1="49.996%" x2="49.996%" y1="100%" y2="0%">
            <stop offset="0%" stop-color="gray" stop-opacity=".25"/>
            <stop offset="54%" stop-color="gray" stop-opacity=".12"/>
            <stop offset="100%" stop-color="gray" stop-opacity=".1"/>
        </linearGradient>
        <linearGradient id="c" x1="50%" x2="50%" y1="100%" y2="0%">
            <stop offset="0%" stop-color="gray" stop-opacity=".25"/>
            <stop offset="54%" stop-color="gray" stop-opacity=".12"/>
            <stop offset="100%" stop-color="gray" stop-opacity=".1"/>
        </linearGradient>
        <linearGradient id="d" x1="50%" x2="50%" y1="100%" y2="-.013%">
            <stop offset="0%" stop-color="gray" stop-opacity=".25"/>
            <stop offset="54%" stop-color="gray" stop-opacity=".12"/>
            <stop offset="100%" stop-color="gray" stop-opacity=".1"/>
        </linearGradient>
    </defs>
    <g fill="none" fill-rule="evenodd">
        <path fill="url(#a)" d="M0 0v152.868h220.275V0z" opacity=".5"/>
        <path fill="#FFF" d="M3.268 9.513H217.94V150.15H3.268z"/>
        <path fill="#DADCE5" d="M3.268 2.823H217.94V13.17H3.268z"/>
        <ellipse cx="11.436" cy="7.839" fill="#EB6262" rx="2.506" ry="2.508"/>
        <ellipse cx="18.331" cy="7.839" fill="#FFC043" rx="2.506" ry="2.508"/>
        <ellipse cx="25.223" cy="7.839" fill="#6EC284" rx="2.506" ry="2.508"/>
        <path fill="#B4B8CA" d="M90.474 47.115h39.48v4.233h-39.48z" opacity=".5"/>
        <path fill="#D9DBE4" d="M61.963 65.301h43.239v4.233H61.963z"/>
        <path fill="#6EC284" d="M158.468 69.537H115.23v-4.233h43.24z"/>
        <path fill="#D9DBE4" d="M61.804 74.394h96.505v4.233H61.804zM61.804 83.49h96.505v4.233H61.804z"/>
        <path fill="url(#b)" d="M90.006 102.93h40.106v7.839H90.006z"/>
        <path fill="#B4B8CA" d="M90.318 103.644h39.48v6.414h-39.48z"/>
        <ellipse cx="37.693" cy="37.506" fill="url(#c)" opacity=".5" rx="37.471" ry="37.5" transform="translate(179.863 45)"/>
        <ellipse cx="217.556" cy="82.506" fill="#F5F5F5" rx="35.073" ry="35.1"/>
        <path fill="#8F95B0" fill-rule="nonzero" d="M213.8 67a3.189 3.189 0 0 0-3.2 3.2V75c0 1.776 1.424 3.2 3.2 3.2h1.6v3.2H201v3.2h6.4v3.2h-1.6a3.189 3.189 0 0 0-3.2 3.2v4.8c0 1.776 1.424 3.2 3.2 3.2h6.4c1.776 0 3.2-1.424 3.2-3.2V91c0-1.776-1.424-3.2-3.2-3.2h-1.6v-3.2h12.8v3.2h-1.6a3.189 3.189 0 0 0-3.2 3.2v4.8c0 1.776 1.424 3.2 3.2 3.2h6.4c1.776 0 3.2-1.424 3.2-3.2V91c0-1.776-1.424-3.2-3.2-3.2h-1.6v-3.2h6.4v-3.2h-14.4v-3.2h1.6c1.776 0 3.2-1.424 3.2-3.2v-4.8c0-1.776-1.424-3.2-3.2-3.2h-6.4zm0 3.2h6.4V75h-6.4v-4.8zm-8 20.8h6.4v4.8h-6.4V91zm16 0h6.4v4.8h-6.4V91z"/>
        <path fill="url(#d)" d="M24.204 9.327H14.89V.009H9.536v9.318H.222v5.361h9.314v9.318h5.354v-9.318h9.314z" opacity=".5" transform="translate(237.719 53.1)"/>
        <path fill="#6EC284" d="M247.656 54.906h4.551v20.4h-4.551z"/>
        <path fill="#6EC284" d="M260.123 62.832v4.554H239.74v-4.554z"/>
    </g>
</svg>
