<svg xmlns="http://www.w3.org/2000/svg" width="230" height="180" viewBox="0 0 230 180">
    <g fill="none" fill-rule="evenodd" transform="translate(1)">
        <g opacity=".5">
            <path fill="#19BABD" d="M163.502.024c-.898-.015-2.031.235-2.724 1.475-1.357 2.437.827 4.835-.299 7.433a4.326 4.326 0 0 1-1.46 1.76c-1.09.783-2.199 1.016-3.299 1.484a6.043 6.043 0 0 0-3.089 2.753 7.196 7.196 0 0 0-.65 4.37c.217 1.299.728 2.33 1.15 3.44.512 1.375.882 2.799 1.105 4.25a7.84 7.84 0 0 1 .108 2.051 12.906 12.906 0 0 1-.634 2.562l-2.422 7.574a17.671 17.671 0 0 0-.777 3.036 12.74 12.74 0 0 0 .094 3.235c.264 2.217.559 4.522 1.61 5.908 1.05 1.386 3.112 1.476 4.62-.49 1.434-1.881 1.804-4.729 3.119-6.776 2.07-3.228 5.383-2.948 7.602-5.971 2.12-2.9 2.088-7.083 3.419-10.65.942-2.555 2.591-4.706 3.703-7.188 1.605-3.579 1.972-7.598 1.414-10.77a15.975 15.975 0 0 0-3.57-7.55c-.687-.833-1.436-1.607-2.39-1.882-1.016-.302-2.029.47-3.075.54-1.209.062-2.337-.576-3.555-.594z"/>
            <path stroke="#535461" stroke-width=".9" d="M169.194.047s-5.843 33.8-15.55 52.254M160.712 1.654s7.13 7.294 4.401 17.374M152.309 15.675s12.545 4.993 10.886 10.669M176.13 9.435s-5.593 2.276-11.389 11.085M167.474 38.153s-3.786 1.313-5.72-6.824M151.724 38.927s7.285.97 8.369-2.353"/>
        </g>
        <g opacity=".5">
            <path fill="#19BABD" d="M23.847 41.859c-.504.743-.919 1.823-.26 3.082 1.297 2.47 4.5 1.963 6.058 4.327a4.32 4.32 0 0 1 .672 2.186c.058 1.339-.356 2.393-.57 3.572a6.03 6.03 0 0 0 .61 4.082 7.21 7.21 0 0 0 3.298 2.94c1.206.53 2.356.667 3.51.926 1.432.328 2.827.801 4.163 1.412a7.862 7.862 0 0 1 1.777 1.035c.664.582 1.266 1.23 1.797 1.934l5.012 6.18a17.698 17.698 0 0 0 2.12 2.314c.844.68 1.772 1.25 2.761 1.697 2 .995 4.092 2.014 5.829 1.899 1.736-.116 2.942-1.789 2.12-4.127-.777-2.226-2.968-4.102-3.963-6.323-1.566-3.5.486-6.117-.827-9.623-1.258-3.37-4.785-5.628-7.037-8.706-1.616-2.198-2.516-4.744-3.984-7.038-2.12-3.294-5.277-5.814-8.246-7.09a16.023 16.023 0 0 0-8.28-1.162c-1.075.118-2.133.318-2.896.96-.81.683-.707 1.958-1.235 2.864-.589 1.059-1.743 1.652-2.429 2.659z"/>
            <path stroke="#535461" stroke-width=".9" d="M26.992 37.12S52.08 60.544 62.195 78.781M23.685 45.082s10.024-1.946 16.962 5.86M30.809 59.788s11.073-7.734 14.904-3.235M38.66 36.494s-1.167 5.92 3.029 15.59M57.947 59.461s-.98 3.883-8.858 1.028M49.951 73.04s4.809-5.55 2.622-8.275"/>
        </g>
        <path fill="#19BABD" d="M19.133 14.69c-1.178 1.39-2.28 3.315-1.414 5.214 1.682 3.72 7.853 1.905 10.055 5.374.66 1.037.75 2.306.597 3.437-.297 2.214-1.395 4.094-2.154 6.118-.758 2.023-1.152 4.47-.082 6.607 1.03 2.068 3.2 3.374 5.3 3.894 2.102.52 4.208.402 6.308.47 2.493.098 4.97.463 7.386 1.088 1.063.229 2.082.626 3.02 1.176 1.072.685 1.939 1.69 2.787 2.678l7.54 8.774c1 1.176 2.023 2.353 3.264 3.216 1.433.996 3.063 1.502 4.668 1.989 3.451 1.054 7.068 2.117 10.366 1.395s6.067-3.87 5.242-7.515c-.785-3.47-4.323-5.932-5.515-9.332-1.885-5.358 2.768-10.327 1.37-15.779-1.337-5.228-7.27-7.925-10.568-12.35-2.356-3.172-3.284-7.14-5.343-10.513-2.967-4.862-8.14-8.087-13.312-9.311-5.171-1.224-10.37-.633-15.21.586-2.05.52-4.1 1.176-5.725 2.475-1.727 1.381-1.927 3.475-3.185 5.144-1.458 1.943-3.807 3.28-5.395 5.164z"/>
        <path stroke="#535461" stroke-width=".9" d="M26.472 5.842s39.973 31.412 53.424 58.72M17.846 20.108s19.407-6.277 30.05 4.621M26.752 42.447s23.114-16.235 28.957-9.903M48.566 1.25s-3.984 10.209.942 25.049M77.792 33.67s-3.018 6.76-16.94 4.396M58.659 58.713s10.712-10.701 7.438-14.588"/>
        <ellipse cx="114" cy="170.148" fill="#19BABD" opacity=".1" rx="114" ry="9.666"/>
        <path fill="#F0F4F7" d="M53.323 25.374h121.745v145.412H53.323z"/>
        <path fill="#7983A6" d="M53.323 25.374h121.745v4.929H53.323z"/>
        <path stroke="#7983A6" stroke-width=".9" d="M69.774 84.628h88.841"/>
        <g stroke="#7983A6" stroke-width=".9" opacity=".5">
            <path d="M69.774 75.125h1.414"/>
            <path stroke-dasharray="2.772" d="M73.963 75.125h81.851"/>
            <path d="M157.202 75.125h1.413"/>
        </g>
        <g stroke="#7983A6" stroke-width=".9" opacity=".5">
            <path d="M69.774 65.468h1.414"/>
            <path stroke-dasharray="2.772" d="M73.963 65.468h81.851"/>
            <path d="M157.202 65.468h1.413"/>
        </g>
        <g stroke="#7983A6" stroke-width=".9" opacity=".5">
            <path d="M69.774 55.807h1.414"/>
            <path stroke-dasharray="2.772" d="M73.963 55.807h81.851"/>
            <path d="M157.202 55.807h1.413"/>
        </g>
        <g stroke="#7983A6" stroke-width=".9" opacity=".5">
            <path d="M69.774 46.15h1.414"/>
            <path stroke-dasharray="2.772" d="M73.963 46.15h81.851"/>
            <path d="M157.202 46.15h1.413"/>
        </g>
        <path fill="#19BABD" d="M74.196 65.322h6.375v19.306h-6.375z" opacity=".3"/>
        <path fill="#19BABD" d="M91.984 55.565h6.375V84.73h-6.375z"/>
        <path fill="#19BABD" d="M109.773 74.87h6.375v9.96h-6.375z" opacity=".3"/>
        <path fill="#19BABD" d="M127.561 45.708h6.375v39.024h-6.375z"/>
        <path fill="#19BABD" d="M145.128 55.059h6.375v29.473h-6.375z" opacity=".3"/>
        <ellipse cx="77.384" cy="89.042" fill="#19BABD" rx="1.644" ry="1.642"/>
        <ellipse cx="95.275" cy="89.042" fill="#19BABD" rx="1.644" ry="1.642"/>
        <ellipse cx="113.167" cy="89.042" fill="#19BABD" rx="1.644" ry="1.642"/>
        <ellipse cx="131.058" cy="89.042" fill="#19BABD" rx="1.644" ry="1.642"/>
        <ellipse cx="148.949" cy="89.042" fill="#19BABD" rx="1.644" ry="1.642"/>
        <path stroke="#7983A6" stroke-width=".9" d="M69.774 146.654h88.841"/>
        <g stroke="#7983A6" stroke-width=".9" opacity=".5">
            <path d="M69.774 137.294h1.414"/>
            <path stroke-dasharray="2.772" d="M73.963 137.294h81.851"/>
            <path d="M157.202 137.294h1.413"/>
        </g>
        <g stroke="#7983A6" stroke-width=".9" opacity=".5">
            <path d="M69.774 127.638h1.414"/>
            <path stroke-dasharray="2.772" d="M73.963 127.638h81.851"/>
            <path d="M157.202 127.638h1.413"/>
        </g>
        <g stroke="#7983A6" stroke-width=".9" opacity=".5">
            <path d="M69.774 117.976h1.414"/>
            <path stroke-dasharray="2.772" d="M73.963 117.976h81.851"/>
            <path d="M157.202 117.976h1.413"/>
        </g>
        <g stroke="#7983A6" stroke-width=".9" opacity=".5">
            <path d="M69.774 108.32h1.414"/>
            <path stroke-dasharray="2.772" d="M73.963 108.32h81.851"/>
            <path d="M157.202 108.32h1.413"/>
        </g>
        <path fill="#19BABD" d="M74.196 127.348h6.375v19.306h-6.375zM91.984 127.245h6.375v19.511h-6.375zM109.774 136.899h6.375v9.96h-6.375zM128 108h6.375v39.024H128zM145 117h6.375v29.473H145z"/>
        <ellipse cx="1.758" cy="1.656" fill="#19BABD" opacity=".7" rx="1.644" ry="1.642" transform="translate(75.627 149.412)"/>
        <ellipse cx="1.743" cy="1.656" fill="#19BABD" opacity=".7" rx="1.644" ry="1.642" transform="translate(93.532 149.412)"/>
        <ellipse cx="1.729" cy="1.656" fill="#19BABD" opacity=".7" rx="1.644" ry="1.642" transform="translate(111.437 149.412)"/>
        <ellipse cx="1.715" cy="1.656" fill="#19BABD" opacity=".7" rx="1.644" ry="1.642" transform="translate(129.343 149.412)"/>
        <ellipse cx="1.701" cy="1.656" fill="#19BABD" opacity=".7" rx="1.644" ry="1.642" transform="translate(147.248 149.412)"/>
        <path fill="#19BABD" d="M44.304 170.254c.432-.351.746-.826.902-1.36.118-.541-.113-1.188-.631-1.386-.58-.22-1.2.18-1.668.586-.469.407-1.008.868-1.623.781a2.464 2.464 0 0 0 .763-2.308.964.964 0 0 0-.212-.47c-.323-.344-.905-.196-1.291.075-1.225.86-1.567 2.522-1.574 4.019-.122-.54-.019-1.102-.024-1.647-.004-.546-.155-1.177-.621-1.464a1.887 1.887 0 0 0-.943-.224c-.551-.02-1.164.036-1.54.438-.472.499-.347 1.339.06 1.882.408.544 1.025.895 1.596 1.276.457.271.846.642 1.14 1.084.034.062.063.126.085.193h3.451a9.62 9.62 0 0 0 2.13-1.475zM212.049 167.43c.432-.351.746-.825.902-1.36.118-.54-.113-1.188-.631-1.385-.58-.221-1.2.179-1.668.586-.47.407-1.009.868-1.624.78a2.464 2.464 0 0 0 .764-2.307.964.964 0 0 0-.212-.471c-.323-.344-.905-.195-1.291.075-1.225.861-1.567 2.523-1.574 4.02-.123-.54-.019-1.102-.024-1.648-.004-.546-.155-1.176-.622-1.464a1.887 1.887 0 0 0-.942-.223c-.551-.021-1.164.035-1.54.438-.472.498-.347 1.338.06 1.882.408.543 1.025.894 1.595 1.275.457.272.847.642 1.14 1.085.035.061.064.126.086.193h3.451a9.62 9.62 0 0 0 2.13-1.475z"/>
    </g>
</svg>
