<svg xmlns="http://www.w3.org/2000/svg" width="84" height="107" viewBox="0 0 84 107">
    <path fill="#454E7B" fill-rule="nonzero" d="M66.85 116.9v16.7h8.35a8.35 8.35 0 0 1 8.35 8.35H142v16.7H83.55A8.35 8.35 0 0 1 75.2 167H41.8a8.35 8.35 0 0 1-8.35-8.35H-25v-16.7h58.45a8.35 8.35 0 0 1 8.35-8.35h8.35v-16.7H.05v-12.525C.05 88.26 26.185 75.15 58.5 75.15c32.314 0 58.45 13.11 58.45 29.225V116.9h-50.1zM58.5 0c16.14 0 29.225 13.084 29.225 29.225 0 16.14-13.084 29.225-29.225 29.225-16.14 0-29.225-13.084-29.225-29.225C29.275 13.085 42.359 0 58.5 0z" opacity=".1"/>
</svg>
