<svg xmlns="http://www.w3.org/2000/svg" width="230" height="180" viewBox="0 0 230 180">
    <g fill="none" fill-rule="evenodd" transform="translate(0 9)">
        <path fill="#19BABD" d="M222.968 144.29c-5.071 4.194-12.288 5.93-19.267 7.026l-1.175.178c-7.29 1.084-14.66 1.662-22.056 2.013-3.958.19-7.915.326-11.872.446l-3.101.091c-4.027.12-8.061.236-12.103.351-3.957.112-7.914.218-11.872.316-5.068.123-10.136.226-15.204.307-3.957.062-7.914.105-11.871.129-5.07.029-10.138.02-15.204-.03-3.96-.04-7.918-.108-11.872-.207-5.07-.13-10.139-.32-15.204-.57a522.92 522.92 0 0 1-10.307-.605l-1.565-.11c-14.74-1.06-29.743-2.959-42.642-8.964l-.347-.164a29.334 29.334 0 0 1-.52-.247 46.71 46.71 0 0 1-6.78-3.964c-3.814-2.712-6.963-6.022-8.627-9.948-2.608-6.159-1.229-13.082 1.75-19.103 2.978-6.022 7.45-11.458 11.317-17.129a72.614 72.614 0 0 0 3.207-5.152c6.249-11.082 9.348-23.906 2.797-34.585a47.463 47.463 0 0 0-2.797-3.945c-1.597-2.076-3.222-4.153-4.32-6.451-2.559-5.35-2.01-11.365-1.076-17.079 1.25-7.598 3.54-15.78 10.701-20.528 7.43-4.93 17.974-4.68 27.194-2.907C64.488 6.2 77.72 11.931 91.076 17.102c13.357 5.17 27.349 9.898 42.034 10.407a67.286 67.286 0 0 0 9.452-.343 60.101 60.101 0 0 0 12.313-2.585c5.78-1.898 11.038-4.753 14.937-8.721 8.362-8.482 24.077-9.124 35.407-4.001 10.811 4.887 17.803 15.232 17.287 25.565-.588 11.5-9.227 20.957-17.143 30.656a184.907 184.907 0 0 0-2.83 3.542c-.516.663-1.021 1.328-1.517 1.994a83.9 83.9 0 0 0-2.5 3.553c-4.044 6.131-6.904 13.496-4.119 20.116 1.562 3.706 4.542 6.535 8.135 9.003 8.05 5.53 19.161 9.251 24.16 16.992 4.307 6.671 2.712 15.677-3.724 21.01z" opacity=".1"/>
        <g opacity=".1" transform="translate(95.181)">
            <path fill="#3F3D56" d="M20.515 114.069c.008.195.023.386.044.573a80.131 80.131 0 0 0 4.771-2.076 3.872 3.872 0 0 0 2.206-1.076c.456-.228.91-.467 1.36-.706a5.564 5.564 0 0 0-.346-.623c-.877-1.38-2.21-2.245-3.678-2.197-1.468.048-2.739.997-3.524 2.427a7.138 7.138 0 0 0-.833 3.678z"/>
            <path fill="#3F3D56" d="M20.276 106.808a7.162 7.162 0 0 0 1.072 3.596c.879 1.377 2.212 2.24 3.68 2.193.102 0 .209-.015.302-.023a3.872 3.872 0 0 0 2.206-1.076 5.29 5.29 0 0 0 1.014-1.325 7.418 7.418 0 0 0-.237-7.267c-.88-1.38-2.212-2.245-3.68-2.197-1.469.048-2.737.997-3.522 2.427a7.14 7.14 0 0 0-.835 3.672z"/>
            <ellipse cx="24.592" cy="99.394" fill="#3F3D56" rx="4.555" ry="5.945" transform="rotate(-1.88 24.592 99.394)"/>
            <ellipse cx="24.354" cy="92.134" fill="#3F3D56" rx="4.555" ry="5.945" transform="rotate(-1.88 24.354 92.134)"/>
            <ellipse cx="24.115" cy="84.872" fill="#3F3D56" rx="4.555" ry="5.945" transform="rotate(-1.88 24.115 84.872)"/>
            <path fill="#19BABD" d="M39.528 34.629c.596-.81 1.135-1.66 1.612-2.544l-12.025-1.566 12.938-.328a21.72 21.72 0 0 0-.15-17.234l-17.06 9.541 15.62-12.25A21.838 21.838 0 0 0 20.2.144C12.082.813 5.014 5.932 1.869 13.422a21.698 21.698 0 0 0 3.373 22.336 21.82 21.82 0 0 0-2.355 4.045l15.789 7.533-16.737-4.995a21.71 21.71 0 0 0 4.188 20.297C-.607 71.78.838 84.548 9.447 91.966c8.61 7.417 21.49 6.991 29.588-.977 8.098-7.969 8.692-20.804 1.366-29.483a21.703 21.703 0 0 0-.873-26.877z"/>
            <path fill="#000" d="M1.018 49.342a21.611 21.611 0 0 0 5.11 13.29C-.61 71.772.833 84.541 9.441 91.96c8.607 7.419 21.488 6.996 29.588-.971 8.099-7.967 8.696-20.803 1.371-29.483C43.202 57.714.939 46.902 1.018 49.342z"/>
        </g>
        <g opacity=".1" transform="translate(49.986 71.014)">
            <path fill="#3F3D56" d="M17.95 81.305c0 .137-.016.274-.032.415a60.318 60.318 0 0 1-3.397-1.468 2.755 2.755 0 0 1-1.57-.762 58.071 58.071 0 0 1-.969-.502c.072-.152.154-.3.246-.44.625-.985 1.57-1.6 2.616-1.566 1.045.033 1.95.706 2.499 1.723.43.797.64 1.695.606 2.6z"/>
            <path fill="#3F3D56" d="M18.112 76.137a5.095 5.095 0 0 1-.759 2.56c-.624.98-1.572 1.597-2.616 1.563l-.208-.016a2.755 2.755 0 0 1-1.57-.762 3.739 3.739 0 0 1-.723-.943 5.287 5.287 0 0 1 .163-5.168c.624-.984 1.572-1.6 2.615-1.566 1.044.033 1.95.706 2.51 1.724.426.801.628 1.702.588 2.608z"/>
            <ellipse cx="15.041" cy="70.876" fill="#3F3D56" rx="4.23" ry="3.241" transform="rotate(-88.19 15.04 70.876)"/>
            <ellipse cx="15.202" cy="65.708" fill="#3F3D56" rx="4.23" ry="3.241" transform="rotate(-88.19 15.202 65.708)"/>
            <ellipse cx="15.366" cy="60.539" fill="#3F3D56" rx="4.23" ry="3.241" transform="rotate(-88.19 15.366 60.539)"/>
            <path fill="#19BABD" d="M4.355 24.788c-.425-.576-.81-1.18-1.152-1.808l8.556-1.134-9.208-.207A15.455 15.455 0 0 1 2.643 9.37l12.149 6.775-11.126-8.71A15.54 15.54 0 0 1 18.086.187a15.521 15.521 0 0 1 13.078 9.448 15.44 15.44 0 0 1-2.418 15.92 15.444 15.444 0 0 1 1.68 2.878l-11.23 5.373 11.908-3.571a15.464 15.464 0 0 1-2.962 14.452c4.802 6.5 3.788 15.587-2.331 20.875S10.525 70.561 4.754 64.9c-5.772-5.662-6.21-14.796-1.005-20.98-4.25-5.752-4-13.656.606-19.128v-.003z"/>
            <path fill="#000" d="M31.764 35.225a15.395 15.395 0 0 1-3.622 9.462c4.802 6.5 3.788 15.587-2.331 20.875S10.525 70.561 4.754 64.9c-5.772-5.662-6.21-14.796-1.005-20.98-1.997-2.7 28.073-10.432 28.015-8.694z"/>
        </g>
        <g opacity=".1" transform="translate(158.497 44.02)">
            <path fill="#3F3D56" d="M17.901 81.294c0 .14-.014.275-.029.416a59.453 59.453 0 0 1-3.397-1.468 2.765 2.765 0 0 1-1.572-.762 61.158 61.158 0 0 1-.969-.503 4.28 4.28 0 0 1 .246-.44c.625-.984 1.57-1.599 2.616-1.566 1.045.034 1.95.706 2.5 1.724.43.797.639 1.695.605 2.6z"/>
            <path fill="#3F3D56" d="M18.076 76.126a5.095 5.095 0 0 1-.76 2.56c-.625.98-1.57 1.597-2.616 1.564l-.208-.017a2.765 2.765 0 0 1-1.573-.762 3.805 3.805 0 0 1-.722-.942 5.287 5.287 0 0 1 .162-5.169c.625-.982 1.572-1.598 2.616-1.565 1.043.033 1.951.706 2.51 1.723.427.801.63 1.702.591 2.608z"/>
            <ellipse cx="15" cy="70.864" fill="#3F3D56" rx="4.23" ry="3.241" transform="rotate(-88.19 15 70.864)"/>
            <ellipse cx="15.164" cy="65.696" fill="#3F3D56" rx="4.23" ry="3.241" transform="rotate(-88.19 15.164 65.696)"/>
            <ellipse cx="15.328" cy="60.529" fill="#3F3D56" rx="4.23" ry="3.241" transform="rotate(-88.19 15.328 60.53)"/>
            <path fill="#19BABD" d="M4.307 24.778a15.27 15.27 0 0 1-1.15-1.808l8.556-1.124-9.207-.222a15.468 15.468 0 0 1 .09-12.268l12.148 6.776L3.618 7.425A15.541 15.541 0 0 1 18.046.15c5.797.46 10.85 4.11 13.093 9.459a15.443 15.443 0 0 1-2.44 15.935 15.435 15.435 0 0 1 1.678 2.878l-11.23 5.374 11.907-3.571a15.448 15.448 0 0 1-2.962 14.45c4.803 6.498 3.79 15.586-2.329 20.873-6.118 5.288-15.285 4.999-21.056-.663-5.77-5.662-6.207-14.796-1.002-20.979-4.25-5.751-4-13.655.606-19.128h-.004z"/>
            <path fill="#000" d="M31.718 35.214a15.38 15.38 0 0 1-3.624 9.46c4.802 6.5 3.788 15.586-2.33 20.873-6.118 5.287-15.284 4.999-21.055-.663-5.77-5.662-6.208-14.794-1.004-20.978-2-2.697 28.067-10.432 28.013-8.692z"/>
        </g>
        <ellipse cx="40.301" cy="155.917" fill="#19BABD" rx="11.874" ry="2.276"/>
        <ellipse cx="40.103" cy="154.95" fill="#3F3D56" rx="1.383" ry="1.804"/>
        <ellipse cx="40.103" cy="152.744" fill="#3F3D56" rx="1.383" ry="1.804"/>
        <ellipse cx="40.103" cy="150.539" fill="#3F3D56" rx="1.383" ry="1.804"/>
        <ellipse cx="40.103" cy="148.334" fill="#3F3D56" rx="1.383" ry="1.804"/>
        <ellipse cx="40.103" cy="146.129" fill="#3F3D56" rx="1.383" ry="1.804"/>
        <ellipse cx="40.103" cy="143.924" fill="#3F3D56" rx="1.383" ry="1.804"/>
        <ellipse cx="40.103" cy="141.719" fill="#3F3D56" rx="1.383" ry="1.804"/>
        <path fill="#19BABD" d="M45.279 126.627c.188-.24.36-.492.514-.756l-3.632-.596 3.928.032a6.603 6.603 0 0 0 .127-5.233l-5.271 2.726 4.86-3.57a6.628 6.628 0 0 0-6.05-3.283 6.623 6.623 0 0 0-5.705 3.853 6.587 6.587 0 0 0 .817 6.82 6.641 6.641 0 0 0-.754 1.205l4.716 2.442-5.028-1.682a6.591 6.591 0 0 0 1.066 6.2 6.589 6.589 0 0 0 .713 8.932 6.638 6.638 0 0 0 8.988 0 6.589 6.589 0 0 0 .713-8.932 6.591 6.591 0 0 0 0-8.164l-.002.006z"/>
        <path fill="#000" d="M33.45 130.71a6.563 6.563 0 0 0 1.417 4.082 6.589 6.589 0 0 0 .713 8.931 6.638 6.638 0 0 0 8.988 0 6.589 6.589 0 0 0 .713-8.931c.885-1.124-11.83-4.824-11.83-4.083z" opacity=".1"/>
        <path fill="#3F3D56" d="M72.167 107.395v46.928a522.935 522.935 0 0 1-10.307-.605l-1.565-.11v-46.213c0-.486.194-.951.538-1.295a1.84 1.84 0 0 1 1.3-.536h8.197c.487 0 .954.193 1.299.536.344.344.538.81.538 1.295zM87.371 154.906V76.041c0-1.011.823-1.831 1.837-1.831h8.198c.487 0 .954.193 1.299.536.344.344.538.81.538 1.295v79.07l-11.872-.205zM114.447 155.153V92.445c0-1.012.822-1.832 1.837-1.832h8.197c1.015 0 1.837.82 1.837 1.832v62.573l-11.871.135zM153.394 45.933v108.462c-3.957.112-7.914.218-11.872.316V45.933c0-1.012.823-1.832 1.837-1.832h8.198c1.015 0 1.837.82 1.837 1.832zM180.47 67.735v85.757c-3.958.191-7.915.326-11.872.446V67.735c0-1.011.822-1.831 1.837-1.831h8.198c1.014 0 1.837.82 1.837 1.831z"/>
        <path stroke="#3F3D56" stroke-linecap="round" stroke-width="1.458" d="M66.335 80.028L93.411 49.92l27.076 15.157 27.075-46.512 27.076 22.218"/>
        <ellipse cx="66.231" cy="80.028" fill="#19BABD" rx="5.832" ry="5.814"/>
        <ellipse cx="93.307" cy="49.92" fill="#19BABD" rx="5.832" ry="5.814"/>
        <ellipse cx="120.383" cy="65.077" fill="#19BABD" rx="5.832" ry="5.814"/>
        <ellipse cx="147.458" cy="18.565" fill="#19BABD" rx="5.832" ry="5.814"/>
        <ellipse cx="174.534" cy="40.814" fill="#19BABD" rx="5.832" ry="5.814"/>
    </g>
</svg>
