<svg xmlns="http://www.w3.org/2000/svg" width="230" height="180" viewBox="0 0 230 180">
    <defs>
        <linearGradient id="a" x1="49.999%" x2="49.999%" y1="100%" y2="0%">
            <stop offset="0%" stop-color="gray" stop-opacity=".25"/>
            <stop offset="54%" stop-color="gray" stop-opacity=".12"/>
            <stop offset="100%" stop-color="gray" stop-opacity=".1"/>
        </linearGradient>
    </defs>
    <g fill="none" fill-rule="evenodd" transform="translate(0 3)">
        <path fill="#19BABD" d="M45.394 1.782s-.8 3.128 4.786 11.97c5.586 8.84 5.198 10.093 4.876 12.621-.322 2.529-.303 3.913-3.549 7.017 0 0-9.723 3.203-11.023 5.2-1.3 1.996 2.148 9.255 2.148 9.255s3.31 8.818-8.58 12.201c0 0-9.303.013-11.883 2.07 0 0 .998-3.58-2.105-8.842-3.103-5.263 1.172-10.394 1.172-10.394s3.443-1.9 5.628-2.047c2.186-.147 2.88-1.15 1.474-3.67 0 0-2.033-1.064-4.848 1.214-2.815 2.277-4.918 3.9-7.37 3.708-2.454-.191-5.951-1.229-8.247-5.782-2.296-4.552-3.504-10.989-5.223-13.927C.93 19.437 0 18.793 0 18.793s2.173 1.654 9.675-3.962c7.502-5.615 11.417-3.213 11.417-3.213s6.029 1.625 6.996 12.289c0 0 1.753 10.162 5.316 4.006 0 0-1.206-3.466-3.616-8.57-2.41-5.103 4.04-9.906 8.763-11.514 4.723-1.607 6.843-6.047 6.843-6.047z"/>
        <path fill="#444053" d="M6.57 21.045l-.022-.054c1.484-.62 8.329 3.099 13.802 6.329l-.03.048c-7.72-4.554-12.604-6.8-13.75-6.323z"/>
        <path fill="#444053" d="M20.208 27.298l.06-.032c4.37 2.584 9.615 5.863 13.543 8.525.373.253.761.504 1.157.74l-.061.1c-.396-.238-.786-.49-1.162-.744-3.923-2.66-9.168-6.007-13.537-8.589z"/>
        <path fill="#444053" d="M34.793 36.567l.097-.076c7.88 4.744 18.964 3.614 19.061 3.614l-1.223 1.393c-.097.007-10.001-.155-17.935-4.93z"/>
        <path stroke="#444053" stroke-width=".5" d="M42.434 8.929s-2.58 7.206-.619 12.284c1.961 5.077-2.12 17.66-2.12 17.66s-1.354 5.292-3.533 6.614c0 0-3.16 3.936-5.013 4.387-1.853.45-6.114 4.444-6.002 6.653M45.924 9.437s-1.82 3.7-4.526 3.668M49.57 14.247s-1.1 5.088-7.916 6.51M52.408 21.83s-3.207 5.154-10.118 4.526M51.808 31.485s-6.035 3.966-10.599 1.788M38.17 9.437s1.577 3.347 3.321 2.339M32.395 14.521s2.12 4.49 8.753 3.702M31.755 21.274s5.834 3.556 10.565 2.592M34.826 28.472s4.617 3.694 6.784 2.845M33.745 31.226s1.249 3.88.022 4.614M29.656 37.046s2.38-2.371 1.717-2.807M25.283 17.351s2.084 9.928-.623 12.607M16.57 40.973s9.432-6.075 10.254-9.664M11.108 36.69s8.871-4.148 11.277-8.122M17.065 14.17s4.292 7.183 1.61 12.21M8.214 30.167s6.572-2.669 7.9-5.24M9.6 16.36s2.199 4.066 1.175 5.833M32.376 40.414s5.935-.798 6.571.757M41.866 52.615s-.32-6.511-4.027-9.029M25.59 43.033s6.23.738 8.433 4.815M36.039 57.337s.962-4.769-3.589-8.141M21.103 48.796s5.168-.266 7.936 2.199M28.225 58.224s-.483-3.785-1.831-4.501"/>
        <path fill="#19BABD" d="M108.384 41.97c-11.631 5.871-24.352 8.431-36.755 10.405-12.403 1.973-24.923 3.493-37.146 7.618-7.86 2.654-16.168 6.951-20.043 13.628-3.735 6.411-2.355 13.247-.38 19.206 1.485 4.48 3.392 9.013 7.454 11.752 2.824 1.901 6.489 2.792 9.567 4.41 10.707 5.624 12.443 18.816 10.718 30.951-.81 5.693-2.2 11.46-2.182 17.039.02 5.58 1.624 11.108 6.037 14.404 4.376 3.266 10.945 3.93 17.383 3.402 13.081-1.063 26.235-6.504 38.763-12.352 27.74-12.943 54.312-28.374 80.822-43.767 9.806-5.696 19.657-11.42 28.685-18.168 5.014-3.746 9.964-8.05 12.278-13.2 2.95-6.536.7-13.658-5.244-16.598-9.963-4.934-26.62 1.571-35.212-4.872-4.747-3.547-5.365-10.036-4.592-16.128 1.658-13.09 8.51-27.518 3.28-38.594-3.591-7.608-13.042-12.035-23.36-10.94-10.812 1.148-22.793 8.278-26.015 17.889-3.311 9.898-13.787 18.72-24.058 23.915z" opacity=".1"/>
        <rect width="201.452" height="114.469" x="28.545" y="28.857" fill="url(#a)" rx="2.651"/>
        <rect width="200.836" height="112.478" x="28.866" y="30.467" fill="#FFF" rx="2.651"/>
        <rect width="200.836" height="112.478" x="28.866" y="30.467" fill="#FFF" rx="2.651"/>
        <rect width="200.836" height="112.478" x="28.866" y="30.467" fill="#5A5773" opacity=".04" rx="2.651"/>
        <path fill="#5A5773" d="M228.684 29.176H29.887c-.563 0-1.02.458-1.02 1.023v4.329h200.836v-4.33c0-.564-.456-1.022-1.02-1.022z"/>
        <g fill="#FFF" transform="translate(31.373 30.407)">
            <ellipse cx="1.503" cy="1.442" rx="1.378" ry="1.382"/>
            <ellipse cx="5.213" cy="1.442" rx="1.378" ry="1.382"/>
            <ellipse cx="8.922" cy="1.442" rx="1.378" ry="1.382"/>
        </g>
        <rect width="167.465" height="64.642" x="42.309" y="59.426" fill="#19BABD" opacity=".1" rx="2.163"/>
        <path fill="#FFF" d="M48.554 53.162l163.087 4.17a2.163 2.163 0 0 1 2.107 2.217l-1.531 60.296a2.163 2.163 0 0 1-2.217 2.108l-163.088-4.17a2.163 2.163 0 0 1-2.107-2.218l1.532-60.296a2.163 2.163 0 0 1 2.217-2.108z"/>
        <path fill="#F4F4F7" stroke="#5A5773" stroke-width=".5" d="M71.442 66.823L188.1 69.798M71.211 75.964l116.658 2.975M70.98 85.104l116.658 2.974M70.747 94.245l116.66 2.975" opacity=".2"/>
        <path stroke="#5A5773" stroke-dasharray="2.547" stroke-width=".5" d="M81.35 92.033l-.295 11.621" opacity=".2"/>
        <path fill="#F4F4F7" stroke="#5A5773" stroke-width=".5" d="M70.516 103.386l116.657 2.973" opacity=".2"/>
        <path stroke="#5A5773" stroke-dasharray="2.547" stroke-width=".5" d="M94.25 103.99l.438-17.324" opacity=".2"/>
        <path fill="#19BABD" d="M171.421 85.297c-2.08.18-4.11-.989-5.355-2.218-1.288-1.276-2.223-2.845-3.126-4.372-.287-.482-.583-.98-.882-1.46-1.575-2.505-3.148-4.19-4.948-5.301a9.407 9.407 0 0 0-2.105-.966 1.489 1.489 0 0 1-1.337.912h-.07a1.486 1.486 0 0 1-1.431-1.29 6.438 6.438 0 0 0-1.953.402c-1.85.7-3.256 2.203-4.534 3.685a84.354 84.354 0 0 0-4.43 5.583c-.283.387-.566.777-.848 1.168-1.51 2.113-3.07 4.297-5.088 6.005-2.709 2.305-5.967 3.298-8.716 2.658-3.299-.768-5.658-3.692-7.344-6.154-.212-.319-.423-.638-.652-.963-1.573-2.34-3.2-4.757-5.599-6.167-3.16-1.86-7.525-1.54-10.387.76-1.395 1.12-2.442 2.642-3.457 4.114-.348.506-.708 1.03-1.08 1.53-1.907 2.572-3.83 3.967-5.903 4.268-.822.092-1.652.092-2.474 0-.547-.038-1.113-.08-1.666-.065a8.008 8.008 0 0 0-6.692 4.182l-.293 12.24 91.642 2.339.513-20.25a1.268 1.268 0 0 1-1.785-.638v-.002z" opacity=".2"/>
        <path stroke="#5A5773" stroke-dasharray="2.547" stroke-width=".5" d="M108.524 75.61l-.727 28.727M121.304 86.6l-.458 18.068M134.015 88.72l-.411 16.274M146.35 74.157l-.789 31.14M158.904 73.07l-.825 32.549M172.807 85.308l-.525 20.672" opacity=".2"/>
        <path fill="#19BABD" fill-rule="nonzero" d="M154.878 69.545a1.485 1.485 0 0 0-2.516 1.101c0 .058 0 .115.012.17.046.334.202.642.444.874.263.263.616.416.987.426h.07a1.482 1.482 0 0 0 1.446-1.325c.005-.064.005-.13 0-.193a1.49 1.49 0 0 0-.443-1.053zm-.074 1.53a1.058 1.058 0 0 1-1.997-.27 1.024 1.024 0 0 1 .006-.423 1.06 1.06 0 0 1 1.014-.829h.048c.566.015 1.02.473 1.033 1.04v.066a.991.991 0 0 1-.104.417z"/>
        <ellipse cx="172.82" cy="85.029" fill="#19BABD" rx="1.272" ry="1.276"/>
        <path fill="#19BABD" d="M152.788 70.638a.887.887 0 0 0 .019.168c-.144 0-.288 0-.424.01a6.465 6.465 0 0 0-1.955.402c-1.85.7-3.256 2.203-4.536 3.685a85.048 85.048 0 0 0-4.432 5.582c-.282.387-.56.778-.848 1.17-1.512 2.113-3.072 4.295-5.088 6.004-2.711 2.303-5.971 3.296-8.723 2.656-3.294-.765-5.654-3.691-7.35-6.153-.211-.317-.436-.638-.652-.964-1.575-2.339-3.203-4.756-5.603-6.166-3.16-1.86-7.53-1.54-10.387.759-1.376 1.118-2.436 2.641-3.451 4.112-.35.506-.71 1.032-1.081 1.531-1.908 2.571-3.833 3.966-5.906 4.268-.822.09-1.652.09-2.474 0a16.16 16.16 0 0 0-1.668-.066 7.996 7.996 0 0 0-6.951 4.704l-.39-.17a8.437 8.437 0 0 1 7.328-4.96c.572-.008 1.144.015 1.713.069a11 11 0 0 0 2.38 0c1.957-.283 3.797-1.625 5.626-4.1.367-.495.725-1.016 1.073-1.52 1.032-1.489 2.1-3.043 3.542-4.204a9.75 9.75 0 0 1 10.866-.793c2.485 1.46 4.14 3.919 5.743 6.298.212.32.424.638.65.96 1.644 2.398 3.933 5.245 7.094 5.979 2.62.61 5.742-.35 8.352-2.567 1.97-1.673 3.519-3.827 5.013-5.928.278-.392.56-.783.848-1.172a91.026 91.026 0 0 1 4.452-5.611c1.316-1.523 2.756-3.069 4.708-3.802a6.924 6.924 0 0 1 2.107-.426c.142 0 .288-.012.424 0-.016.08-.023.163-.02.245zM172.894 85.229c-2.486.931-5.115-.46-6.611-1.935-1.29-1.276-2.224-2.847-3.127-4.374-.286-.48-.583-.98-.884-1.459-1.575-2.507-3.148-4.19-4.95-5.303a9.44 9.44 0 0 0-2.105-.963 5.298 5.298 0 0 0-.424-.12c.065-.128.1-.27.104-.414.14.036.278.077.424.12a9.809 9.809 0 0 1 2.22 1.016c1.86 1.146 3.476 2.873 5.087 5.437.303.485.6.984.89 1.471.89 1.502 1.81 3.056 3.06 4.285 1.405 1.386 3.866 2.703 6.166 1.841l.15.398z"/>
        <path fill="#19BABD" d="M71.678 64.921l3.941.101c.106.003.19.09.186.196l-.038 1.531a.191.191 0 0 1-.196.186l-3.941-.1a.191.191 0 0 1-.186-.196l.038-1.531a.191.191 0 0 1 .196-.187z" opacity=".5"/>
        <path fill="#19BABD" d="M71.444 74.06l3.941.1c.106.004.189.091.186.197l-.039 1.531a.191.191 0 0 1-.195.186l-3.942-.1a.191.191 0 0 1-.186-.197l.04-1.53a.191.191 0 0 1 .195-.187z"/>
        <path fill="#19BABD" d="M71.212 83.203l3.941.101c.105.003.189.09.186.196L75.3 85.03a.191.191 0 0 1-.196.186l-3.94-.1a.191.191 0 0 1-.187-.197l.039-1.53a.191.191 0 0 1 .196-.187zM70.98 92.342l3.94.1c.106.003.19.091.187.197l-.039 1.53a.191.191 0 0 1-.196.187l-3.94-.101a.191.191 0 0 1-.187-.196l.039-1.531a.191.191 0 0 1 .196-.186zM70.748 101.483l3.94.1c.106.003.19.091.187.196l-.039 1.532a.191.191 0 0 1-.196.186l-3.94-.101a.191.191 0 0 1-.187-.196l.039-1.531a.191.191 0 0 1 .196-.186zM78.768 105.516l3.941.1c.105.004.189.091.186.197l-.039 1.53a.191.191 0 0 1-.196.187l-3.94-.1a.191.191 0 0 1-.187-.197l.039-1.53a.191.191 0 0 1 .196-.187zM92.224 105.86l3.941.1c.106.003.189.091.186.196l-.039 1.532a.191.191 0 0 1-.195.186l-3.941-.101a.191.191 0 0 1-.187-.196l.04-1.531a.191.191 0 0 1 .195-.186z" opacity=".5"/>
        <path fill="#19BABD" d="M105.292 106.778l3.942.119a.191.191 0 0 1 .185.196l-.045 1.532a.191.191 0 0 1-.197.185l-3.943-.118a.191.191 0 0 1-.185-.197l.046-1.532a.191.191 0 0 1 .197-.185z"/>
        <path fill="#19BABD" d="M118.821 106.54l3.941.1c.106.003.189.09.186.196l-.039 1.531a.191.191 0 0 1-.195.186l-3.942-.1a.191.191 0 0 1-.186-.196l.04-1.532a.191.191 0 0 1 .195-.186zM131.576 106.867l3.941.101c.106.003.19.09.186.196l-.038 1.531a.191.191 0 0 1-.196.186l-3.941-.1a.191.191 0 0 1-.186-.196l.038-1.532a.191.191 0 0 1 .196-.186z" opacity=".5"/>
        <path fill="#19BABD" d="M143.533 107.17l3.941.102c.106.002.189.09.186.195l-.038 1.532a.191.191 0 0 1-.196.186l-3.941-.101a.191.191 0 0 1-.187-.196l.04-1.531a.191.191 0 0 1 .195-.186zM156.14 107.493l3.941.1c.106.003.189.091.186.196l-.038 1.532a.191.191 0 0 1-.196.186l-3.941-.101a.191.191 0 0 1-.187-.196l.04-1.531a.191.191 0 0 1 .195-.186zM169.897 108.724l3.735.112c.162.005.29.141.286.304l-.04 1.324a.295.295 0 0 1-.304.286l-3.734-.113a.295.295 0 0 1-.286-.303l.04-1.324a.295.295 0 0 1 .303-.286z"/>
        <path fill="#19BABD" fill-rule="nonzero" d="M207.926 128.75a2.106 2.106 0 0 1 .803 4.05 2.095 2.095 0 0 1-2.547-.776 2.11 2.11 0 0 1 .26-2.658 2.085 2.085 0 0 1 1.484-.617zm0-.328c-.982 0-1.867.594-2.242 1.504a2.44 2.44 0 0 0 .528 2.654c.695.696 1.74.903 2.646.525a2.435 2.435 0 0 0 1.496-2.253c-.001-.645-.257-1.263-.712-1.72a2.421 2.421 0 0 0-1.716-.71z"/>
        <path fill="#19BABD" d="M207.276 131.571l.127-.17c.124.122.29.191.464.193.212 0 .38-.108.38-.28 0-.172-.155-.31-.583-.31v-.196c.381 0 .525-.128.525-.294 0-.166-.13-.244-.318-.244a.62.62 0 0 0-.4.163l-.136-.163a.846.846 0 0 1 .547-.213c.328 0 .572.16.572.438 0 .196-.142.325-.35.396v.01c.221.024.393.203.407.426 0 .301-.284.484-.623.484a.819.819 0 0 1-.612-.24z"/>
        <path fill="#5A5773" fill-rule="nonzero" d="M217.951 128.892a2.106 2.106 0 0 1 .803 4.05 2.095 2.095 0 0 1-2.548-.775 2.11 2.11 0 0 1 .261-2.658 2.083 2.083 0 0 1 1.484-.617zm0-.328a2.43 2.43 0 0 0-2.427 2.435 2.43 2.43 0 0 0 2.427 2.435 2.43 2.43 0 0 0 2.427-2.435c0-.646-.255-1.265-.71-1.722a2.421 2.421 0 0 0-1.717-.713z"/>
        <path fill="#5A5773" d="M217.983 130.744c0-.104 0-.236.015-.34h-.015c-.06.091-.127.183-.187.274l-.424.555h1.147v.223h-1.444v-.178l.861-1.136h.316v1.808h-.263l-.006-1.206zM212.42 129.608a.222.222 0 0 1 .312 0l1.094 1.102a.213.213 0 0 1 0 .306l-1.077 1.085a.212.212 0 0 1-.314 0 .213.213 0 0 1 0-.313l.924-.936-.939-.931a.213.213 0 0 1 0-.315v.002z"/>
        <path fill="#5A5773" fill-rule="nonzero" d="M210.555 130.852a2.392 2.392 0 0 0 1.47 2.214 2.38 2.38 0 0 0 2.601-.518 2.398 2.398 0 0 0 .516-2.609 2.385 2.385 0 0 0-4.587.913zm.367 0a2.019 2.019 0 1 1 3.886-.78 2.03 2.03 0 0 1-.743 2.461 2.016 2.016 0 0 1-2.552-.252 2.006 2.006 0 0 1-.591-1.429z"/>
        <rect width="48.171" height="5.071" x="35.208" y="40.199" fill="#5A5773" opacity=".2" rx=".819"/>
        <path fill="#19BABD" d="M219.17 135.743s1.257 1.648-.581 4.138c-1.838 2.49-3.351 4.59-2.739 6.143 0 0 2.773-4.623 5.028-4.689 2.256-.066.774-2.815-1.708-5.592z"/>
        <path fill="#000" d="M219.17 135.743c.11.159.197.333.256.517 2.203 2.594 3.375 5.016 1.26 5.075-1.972.058-4.338 3.594-4.904 4.485.02.072.042.143.068.213 0 0 2.773-4.623 5.028-4.69 2.256-.065.774-2.823-1.708-5.6z" opacity=".1"/>
        <path fill="#FFD037" d="M221.508 137.842c0 .58-.066 1.05-.146 1.05-.08 0-.144-.47-.144-1.05 0-.58.08-.306.16-.306.081 0 .13-.275.13.306z"/>
        <path fill="#FFD037" d="M222.31 138.535c-.51.276-.952.444-.99.374-.039-.07.343-.353.847-.638.505-.285.308-.076.348 0 .04.077.3-.015-.206.264z"/>
        <path fill="#19BABD" d="M212.53 135.743s-1.256 1.648.58 4.138c1.835 2.49 3.353 4.59 2.74 6.143 0 0-2.772-4.623-5.028-4.689-2.255-.066-.774-2.815 1.709-5.592z"/>
        <path fill="#000" d="M212.53 135.743a1.96 1.96 0 0 0-.256.517c-2.202 2.594-3.375 5.016-1.26 5.075 1.972.058 4.336 3.594 4.904 4.485a2.093 2.093 0 0 1-.068.213s-2.772-4.623-5.028-4.69c-2.255-.065-.774-2.823 1.709-5.6z" opacity=".1"/>
        <path fill="#FFD037" d="M210.192 137.842c0 .58.066 1.05.147 1.05.08 0 .144-.47.144-1.05 0-.58-.08-.306-.161-.306-.08 0-.13-.275-.13.306z"/>
        <path fill="#FFD037" d="M209.391 138.535c.509.276.952.444.99.374.038-.07-.343-.353-.848-.638-.504-.285-.31-.076-.347 0-.039.077-.304-.015.205.264z"/>
        <ellipse cx="215.848" cy="156.613" fill="#19BABD" opacity=".1" rx="13.143" ry="2.022"/>
        <path fill="#65617D" d="M222.615 143.8l-.064.514-.087.728-.036.304-.089.727-.038.304-.09.725-1.004 8.272c-.091.737-1.293 1.314-2.743 1.314h-5.228c-1.452 0-2.651-.577-2.74-1.314l-1.01-8.272-.086-.725-.036-.304-.092-.727-.036-.304-.089-.728-.061-.514c-.051-.425.6-.77 1.42-.77h10.697c.812 0 1.465.35 1.412.77z"/>
        <path fill="#9D9CB5" d="M222.551 144.314l-.09.728h-13.227l-.087-.728zM222.426 145.344l-.087.729h-12.978l-.089-.73zM222.299 146.375l-.087.727h-12.725l-.09-.727z"/>
    </g>
</svg>
