<svg xmlns="http://www.w3.org/2000/svg" width="100" height="100" viewBox="0 0 100 100">
    <path fill="#454E7B" fill-rule="nonzero" d="M55 .15C78.65 2.5 97.5 21.25 99.75 45 102.5 72.5 82.5 96.9 55 99.65v-10c18.2-2.15 32.5-16.6 34.8-34.8 2.7-21.95-12.85-41.9-34.8-44.6V.15zM45 .3v10c-7.15 1-13.9 3.9-19.5 8.4l-7.15-7.4C25.95 5 35.25 1.25 45 .3zM11.3 18.35l7.15 7.15C14 31.15 11.2 37.9 10.25 45h-10c1-9.8 4.75-19.05 11.05-26.65zM.3 55h10c.9 7.1 3.75 13.85 8.15 19.5l-7.1 7.15A50.197 50.197 0 0 1 .3 55zm25.2 26.85C31.15 86.25 37.9 89.1 45 90v10c-9.8-1.05-19.1-5-26.65-11.3l7.15-6.85zM50 27.5L27.5 50H45v20h10V50h17.5L50 27.5z" opacity=".5"/>
</svg>
